STARTFONT 2.1
COMMENT
COMMENT Converted from OpenType font "ipam.ttf" by "otf2bdf 3.0".
COMMENT
FONT -FreeType-IPAMincho-Medium-R-Normal--16-160-72-72-P-140-ISO10646-1
SIZE 16 72 72
FONTBOUNDINGBOX 16 16 0 -2
STARTPROPERTIES 19
FOUNDRY "FreeType"
FAMILY_NAME "IPAMincho"
WEIGHT_NAME "Medium"
SLANT "R"
SETWIDTH_NAME "Normal"
ADD_STYLE_NAME ""
PIXEL_SIZE 16
POINT_SIZE 160
RESOLUTION_X 72
RESOLUTION_Y 72
SPACING "P"
AVERAGE_WIDTH 140
CHARSET_REGISTRY "ISO10646"
CHARSET_ENCODING "1"
FONT_ASCENT 14
FONT_DESCENT 1
COPYRIGHT "Copyright(c) Information-technology Promotion Agency, Japan (IPA), 2003-2011. You must accept "http://ipafont.ipa.go.jp/ipa_font_license_v1.html" to use this product."
_OTF_FONTFILE "ipam.ttf"
_OTF_PSNAME "IPAMincho"
ENDPROPERTIES
CHARS 11158
STARTCHAR 0020
ENCODING 32
SWIDTH 500 0
DWIDTH 8 0
BBX 0 0 0 0
BITMAP
ENDCHAR
STARTCHAR 0021
ENCODING 33
SWIDTH 500 0
DWIDTH 8 0
BBX 2 14 3 -1
BITMAP
C0
C0
C0
C0
C0
C0
80
80
80
80
00
00
C0
C0
ENDCHAR
STARTCHAR 0022
ENCODING 34
SWIDTH 500 0
DWIDTH 8 0
BBX 6 4 1 9
BITMAP
4C
EC
48
98
ENDCHAR
STARTCHAR 0023
ENCODING 35
SWIDTH 500 0
DWIDTH 8 0
BBX 6 14 1 -1
BITMAP
28
28
48
48
FC
48
50
50
50
FC
50
50
50
90
ENDCHAR
STARTCHAR 0024
ENCODING 36
SWIDTH 500 0
DWIDTH 8 0
BBX 6 14 1 -1
BITMAP
20
30
EC
AC
A0
60
30
28
24
A4
A4
A8
70
20
ENDCHAR
STARTCHAR 0025
ENCODING 37
SWIDTH 500 0
DWIDTH 8 0
BBX 6 14 1 -1
BITMAP
E4
A4
A8
A8
B0
F0
10
20
3C
54
54
94
94
8C
ENDCHAR
STARTCHAR 0026
ENCODING 38
SWIDTH 500 0
DWIDTH 8 0
BBX 7 12 1 0
BITMAP
70
50
50
50
60
4E
A4
A8
98
9A
8C
74
ENDCHAR
STARTCHAR 0027
ENCODING 39
SWIDTH 500 0
DWIDTH 8 0
BBX 3 4 1 9
BITMAP
40
E0
40
80
ENDCHAR
STARTCHAR 0028
ENCODING 40
SWIDTH 500 0
DWIDTH 8 0
BBX 5 14 2 -1
BITMAP
18
20
40
40
40
80
80
80
80
40
40
40
20
18
ENDCHAR
STARTCHAR 0029
ENCODING 41
SWIDTH 500 0
DWIDTH 8 0
BBX 5 14 1 -1
BITMAP
C0
20
20
10
10
08
08
08
10
10
10
20
20
C0
ENDCHAR
STARTCHAR 002A
ENCODING 42
SWIDTH 500 0
DWIDTH 8 0
BBX 6 7 1 2
BITMAP
30
94
68
30
EC
30
30
ENDCHAR
STARTCHAR 002B
ENCODING 43
SWIDTH 500 0
DWIDTH 8 0
BBX 6 8 1 2
BITMAP
20
20
20
20
FC
20
20
20
ENDCHAR
STARTCHAR 002C
ENCODING 44
SWIDTH 500 0
DWIDTH 8 0
BBX 3 5 1 -2
BITMAP
40
60
40
40
80
ENDCHAR
STARTCHAR 002D
ENCODING 45
SWIDTH 500 0
DWIDTH 8 0
BBX 6 1 1 5
BITMAP
FC
ENDCHAR
STARTCHAR 002E
ENCODING 46
SWIDTH 500 0
DWIDTH 8 0
BBX 3 2 1 0
BITMAP
60
E0
ENDCHAR
STARTCHAR 002F
ENCODING 47
SWIDTH 500 0
DWIDTH 8 0
BBX 6 14 1 -1
BITMAP
04
04
08
08
10
10
10
20
20
40
40
80
80
80
ENDCHAR
STARTCHAR 0030
ENCODING 48
SWIDTH 500 0
DWIDTH 8 0
BBX 6 12 1 0
BITMAP
30
48
84
84
84
84
84
84
84
84
48
30
ENDCHAR
STARTCHAR 0031
ENCODING 49
SWIDTH 500 0
DWIDTH 8 0
BBX 4 12 2 1
BITMAP
20
E0
20
20
20
20
20
20
20
20
20
F0
ENDCHAR
STARTCHAR 0032
ENCODING 50
SWIDTH 500 0
DWIDTH 8 0
BBX 6 11 1 1
BITMAP
78
84
C4
CC
08
18
10
20
44
84
FC
ENDCHAR
STARTCHAR 0033
ENCODING 51
SWIDTH 500 0
DWIDTH 8 0
BBX 6 12 1 0
BITMAP
78
88
C4
04
08
30
08
04
04
C4
88
78
ENDCHAR
STARTCHAR 0034
ENCODING 52
SWIDTH 500 0
DWIDTH 8 0
BBX 6 11 1 1
BITMAP
08
18
28
28
48
48
88
88
FC
08
3C
ENDCHAR
STARTCHAR 0035
ENCODING 53
SWIDTH 500 0
DWIDTH 8 0
BBX 6 12 1 0
BITMAP
7C
80
80
80
B8
C8
04
04
84
C4
88
70
ENDCHAR
STARTCHAR 0036
ENCODING 54
SWIDTH 500 0
DWIDTH 8 0
BBX 6 12 1 0
BITMAP
38
4C
40
80
B8
CC
84
84
84
C4
48
38
ENDCHAR
STARTCHAR 0037
ENCODING 55
SWIDTH 500 0
DWIDTH 8 0
BBX 6 12 1 0
BITMAP
FC
84
88
88
10
10
10
10
30
20
20
20
ENDCHAR
STARTCHAR 0038
ENCODING 56
SWIDTH 500 0
DWIDTH 8 0
BBX 6 12 1 0
BITMAP
78
4C
84
88
48
30
48
84
84
84
CC
78
ENDCHAR
STARTCHAR 0039
ENCODING 57
SWIDTH 500 0
DWIDTH 8 0
BBX 6 12 1 0
BITMAP
70
C8
84
84
84
CC
74
04
04
C8
88
70
ENDCHAR
STARTCHAR 003A
ENCODING 58
SWIDTH 500 0
DWIDTH 8 0
BBX 2 8 3 0
BITMAP
C0
C0
00
00
00
00
C0
C0
ENDCHAR
STARTCHAR 003B
ENCODING 59
SWIDTH 500 0
DWIDTH 8 0
BBX 2 10 3 -2
BITMAP
C0
C0
00
00
00
00
C0
40
80
80
ENDCHAR
STARTCHAR 003C
ENCODING 60
SWIDTH 500 0
DWIDTH 8 0
BBX 6 10 1 1
BITMAP
04
08
10
20
40
C0
20
10
08
04
ENDCHAR
STARTCHAR 003D
ENCODING 61
SWIDTH 500 0
DWIDTH 8 0
BBX 6 4 1 4
BITMAP
FC
00
00
FC
ENDCHAR
STARTCHAR 003E
ENCODING 62
SWIDTH 500 0
DWIDTH 8 0
BBX 6 10 1 1
BITMAP
80
40
20
10
08
0C
10
20
40
80
ENDCHAR
STARTCHAR 003F
ENCODING 63
SWIDTH 500 0
DWIDTH 8 0
BBX 6 12 1 0
BITMAP
78
8C
C4
C4
08
10
10
20
20
00
30
30
ENDCHAR
STARTCHAR 0040
ENCODING 64
SWIDTH 500 0
DWIDTH 8 0
BBX 7 12 1 0
BITMAP
38
44
BC
AC
CA
CA
CA
CC
BC
80
46
38
ENDCHAR
STARTCHAR 0041
ENCODING 65
SWIDTH 500 0
DWIDTH 8 0
BBX 8 11 0 1
BITMAP
10
18
18
28
28
24
24
3C
44
42
E7
ENDCHAR
STARTCHAR 0042
ENCODING 66
SWIDTH 500 0
DWIDTH 8 0
BBX 7 11 0 1
BITMAP
FC
24
22
26
24
38
26
22
22
22
FC
ENDCHAR
STARTCHAR 0043
ENCODING 67
SWIDTH 500 0
DWIDTH 8 0
BBX 6 12 1 0
BITMAP
3C
4C
84
80
80
80
80
80
84
44
48
38
ENDCHAR
STARTCHAR 0044
ENCODING 68
SWIDTH 500 0
DWIDTH 8 0
BBX 6 11 1 1
BITMAP
F0
48
44
44
44
44
44
44
44
48
F0
ENDCHAR
STARTCHAR 0045
ENCODING 69
SWIDTH 500 0
DWIDTH 8 0
BBX 6 11 1 1
BITMAP
FC
44
44
40
48
78
48
40
44
44
FC
ENDCHAR
STARTCHAR 0046
ENCODING 70
SWIDTH 500 0
DWIDTH 8 0
BBX 6 11 1 1
BITMAP
FC
44
44
40
48
78
48
40
40
40
E0
ENDCHAR
STARTCHAR 0047
ENCODING 71
SWIDTH 500 0
DWIDTH 8 0
BBX 7 12 1 0
BITMAP
34
4C
C4
80
80
80
8E
84
84
C4
4C
30
ENDCHAR
STARTCHAR 0048
ENCODING 72
SWIDTH 500 0
DWIDTH 8 0
BBX 8 11 0 1
BITMAP
E7
42
42
42
42
7E
42
42
42
42
E7
ENDCHAR
STARTCHAR 0049
ENCODING 73
SWIDTH 500 0
DWIDTH 8 0
BBX 4 11 2 1
BITMAP
F0
20
20
20
20
20
20
20
20
20
F0
ENDCHAR
STARTCHAR 004A
ENCODING 74
SWIDTH 500 0
DWIDTH 8 0
BBX 6 12 1 0
BITMAP
1C
08
08
08
08
08
08
08
08
C8
90
70
ENDCHAR
STARTCHAR 004B
ENCODING 75
SWIDTH 500 0
DWIDTH 8 0
BBX 8 11 0 1
BITMAP
EE
48
48
50
50
68
68
44
44
44
E7
ENDCHAR
STARTCHAR 004C
ENCODING 76
SWIDTH 500 0
DWIDTH 8 0
BBX 6 11 1 1
BITMAP
E0
40
40
40
40
40
40
44
44
44
FC
ENDCHAR
STARTCHAR 004D
ENCODING 77
SWIDTH 500 0
DWIDTH 8 0
BBX 8 11 0 1
BITMAP
C3
66
66
66
6A
6A
5A
5A
52
52
D7
ENDCHAR
STARTCHAR 004E
ENCODING 78
SWIDTH 500 0
DWIDTH 8 0
BBX 8 11 0 1
BITMAP
E7
62
62
52
52
4A
4A
46
46
46
E2
ENDCHAR
STARTCHAR 004F
ENCODING 79
SWIDTH 500 0
DWIDTH 8 0
BBX 6 12 1 0
BITMAP
30
48
84
84
84
84
84
84
84
84
48
30
ENDCHAR
STARTCHAR 0050
ENCODING 80
SWIDTH 500 0
DWIDTH 8 0
BBX 6 11 1 1
BITMAP
F8
44
44
44
4C
78
40
40
40
40
E0
ENDCHAR
STARTCHAR 0051
ENCODING 81
SWIDTH 500 0
DWIDTH 8 0
BBX 7 13 1 -1
BITMAP
70
48
84
84
84
84
84
84
B4
D4
48
3A
0C
ENDCHAR
STARTCHAR 0052
ENCODING 82
SWIDTH 500 0
DWIDTH 8 0
BBX 8 11 0 1
BITMAP
FC
42
42
42
44
38
48
48
44
44
E3
ENDCHAR
STARTCHAR 0053
ENCODING 83
SWIDTH 500 0
DWIDTH 8 0
BBX 6 12 1 0
BITMAP
7C
8C
84
C0
40
30
08
04
84
84
CC
38
ENDCHAR
STARTCHAR 0054
ENCODING 84
SWIDTH 500 0
DWIDTH 8 0
BBX 6 11 1 1
BITMAP
FC
A4
A4
20
20
20
20
20
20
20
78
ENDCHAR
STARTCHAR 0055
ENCODING 85
SWIDTH 500 0
DWIDTH 8 0
BBX 8 12 0 0
BITMAP
E7
42
42
42
42
42
42
42
42
42
24
3C
ENDCHAR
STARTCHAR 0056
ENCODING 86
SWIDTH 500 0
DWIDTH 8 0
BBX 8 11 0 1
BITMAP
E7
42
24
24
24
24
18
18
18
18
10
ENDCHAR
STARTCHAR 0057
ENCODING 87
SWIDTH 500 0
DWIDTH 8 0
BBX 8 11 0 1
BITMAP
DB
4A
4A
5A
5A
5A
6C
24
24
24
24
ENDCHAR
STARTCHAR 0058
ENCODING 88
SWIDTH 500 0
DWIDTH 8 0
BBX 8 11 0 1
BITMAP
E6
24
24
18
18
18
18
24
24
42
E7
ENDCHAR
STARTCHAR 0059
ENCODING 89
SWIDTH 500 0
DWIDTH 8 0
BBX 8 11 0 1
BITMAP
E7
42
24
24
18
18
10
10
10
10
3C
ENDCHAR
STARTCHAR 005A
ENCODING 90
SWIDTH 500 0
DWIDTH 8 0
BBX 6 11 1 1
BITMAP
FC
8C
88
10
10
20
20
40
44
84
FC
ENDCHAR
STARTCHAR 005B
ENCODING 91
SWIDTH 500 0
DWIDTH 8 0
BBX 4 14 3 -1
BITMAP
F0
80
80
80
80
80
80
80
80
80
80
80
80
F0
ENDCHAR
STARTCHAR 005C
ENCODING 92
SWIDTH 500 0
DWIDTH 8 0
BBX 8 11 0 1
BITMAP
E7
42
24
24
7E
18
18
7E
10
10
3C
ENDCHAR
STARTCHAR 005D
ENCODING 93
SWIDTH 500 0
DWIDTH 8 0
BBX 4 14 1 -1
BITMAP
F0
10
10
10
10
10
10
10
10
10
10
10
10
F0
ENDCHAR
STARTCHAR 005E
ENCODING 94
SWIDTH 500 0
DWIDTH 8 0
BBX 6 2 1 10
BITMAP
30
CC
ENDCHAR
STARTCHAR 005F
ENCODING 95
SWIDTH 500 0
DWIDTH 8 0
BBX 0 0 0 -2
BITMAP
ENDCHAR
STARTCHAR 0060
ENCODING 96
SWIDTH 500 0
DWIDTH 8 0
BBX 5 2 1 10
BITMAP
E0
18
ENDCHAR
STARTCHAR 0061
ENCODING 97
SWIDTH 500 0
DWIDTH 8 0
BBX 7 8 1 0
BITMAP
70
C8
08
38
C8
88
8A
74
ENDCHAR
STARTCHAR 0062
ENCODING 98
SWIDTH 500 0
DWIDTH 8 0
BBX 6 12 1 0
BITMAP
C0
40
40
40
78
4C
44
44
44
44
4C
B8
ENDCHAR
STARTCHAR 0063
ENCODING 99
SWIDTH 500 0
DWIDTH 8 0
BBX 6 8 1 0
BITMAP
38
4C
C0
80
80
C4
44
38
ENDCHAR
STARTCHAR 0064
ENCODING 100
SWIDTH 500 0
DWIDTH 8 0
BBX 6 12 1 0
BITMAP
18
08
08
08
78
C8
88
88
88
88
54
70
ENDCHAR
STARTCHAR 0065
ENCODING 101
SWIDTH 500 0
DWIDTH 8 0
BBX 6 8 1 0
BITMAP
30
48
84
FC
80
80
4C
38
ENDCHAR
STARTCHAR 0066
ENCODING 102
SWIDTH 500 0
DWIDTH 8 0
BBX 6 11 1 1
BITMAP
1C
24
20
20
F8
20
20
20
20
20
70
ENDCHAR
STARTCHAR 0067
ENCODING 103
SWIDTH 500 0
DWIDTH 8 0
BBX 7 10 1 -2
BITMAP
7E
88
88
78
80
C0
BC
84
84
78
ENDCHAR
STARTCHAR 0068
ENCODING 104
SWIDTH 500 0
DWIDTH 8 0
BBX 7 11 1 1
BITMAP
80
80
80
80
B8
C4
84
84
84
84
CE
ENDCHAR
STARTCHAR 0069
ENCODING 105
SWIDTH 500 0
DWIDTH 8 0
BBX 3 11 3 1
BITMAP
C0
C0
00
40
C0
40
40
40
40
40
E0
ENDCHAR
STARTCHAR 006A
ENCODING 106
SWIDTH 500 0
DWIDTH 8 0
BBX 5 14 1 -2
BITMAP
18
18
00
10
30
10
10
10
10
10
10
10
D0
70
ENDCHAR
STARTCHAR 006B
ENCODING 107
SWIDTH 500 0
DWIDTH 8 0
BBX 7 11 1 1
BITMAP
80
80
80
80
9C
90
A0
50
90
88
CE
ENDCHAR
STARTCHAR 006C
ENCODING 108
SWIDTH 500 0
DWIDTH 8 0
BBX 3 12 3 1
BITMAP
40
C0
40
40
40
40
40
40
40
40
40
E0
ENDCHAR
STARTCHAR 006D
ENCODING 109
SWIDTH 500 0
DWIDTH 8 0
BBX 8 7 0 1
BITMAP
F6
5A
52
52
52
52
DB
ENDCHAR
STARTCHAR 006E
ENCODING 110
SWIDTH 500 0
DWIDTH 8 0
BBX 7 7 1 1
BITMAP
B8
C4
84
84
84
84
CE
ENDCHAR
STARTCHAR 006F
ENCODING 111
SWIDTH 500 0
DWIDTH 8 0
BBX 6 8 1 0
BITMAP
78
C8
84
84
84
84
48
78
ENDCHAR
STARTCHAR 0070
ENCODING 112
SWIDTH 500 0
DWIDTH 8 0
BBX 6 10 1 -2
BITMAP
F8
4C
44
44
44
4C
78
40
40
E0
ENDCHAR
STARTCHAR 0071
ENCODING 113
SWIDTH 500 0
DWIDTH 8 0
BBX 6 10 1 -2
BITMAP
78
C8
88
88
88
88
78
08
08
1C
ENDCHAR
STARTCHAR 0072
ENCODING 114
SWIDTH 500 0
DWIDTH 8 0
BBX 5 7 2 1
BITMAP
B8
40
40
40
40
40
E0
ENDCHAR
STARTCHAR 0073
ENCODING 115
SWIDTH 500 0
DWIDTH 8 0
BBX 6 8 1 0
BITMAP
78
48
40
20
18
84
C4
38
ENDCHAR
STARTCHAR 0074
ENCODING 116
SWIDTH 500 0
DWIDTH 8 0
BBX 6 10 1 0
BITMAP
20
20
F8
20
20
20
20
20
24
38
ENDCHAR
STARTCHAR 0075
ENCODING 117
SWIDTH 500 0
DWIDTH 8 0
BBX 7 8 1 0
BITMAP
8C
84
84
84
84
84
5C
32
ENDCHAR
STARTCHAR 0076
ENCODING 118
SWIDTH 500 0
DWIDTH 8 0
BBX 8 7 0 1
BITMAP
E7
24
24
24
18
18
18
ENDCHAR
STARTCHAR 0077
ENCODING 119
SWIDTH 500 0
DWIDTH 8 0
BBX 8 7 0 1
BITMAP
DB
4A
4A
5A
5C
24
24
ENDCHAR
STARTCHAR 0078
ENCODING 120
SWIDTH 500 0
DWIDTH 8 0
BBX 8 7 0 1
BITMAP
66
24
18
08
38
24
E7
ENDCHAR
STARTCHAR 0079
ENCODING 121
SWIDTH 500 0
DWIDTH 8 0
BBX 8 10 0 -2
BITMAP
E7
22
24
14
18
18
08
10
50
60
ENDCHAR
STARTCHAR 007A
ENCODING 122
SWIDTH 500 0
DWIDTH 8 0
BBX 6 7 1 1
BITMAP
FC
88
10
20
44
44
FC
ENDCHAR
STARTCHAR 007B
ENCODING 123
SWIDTH 500 0
DWIDTH 8 0
BBX 4 14 2 -1
BITMAP
10
20
20
20
20
20
40
C0
20
20
20
20
20
10
ENDCHAR
STARTCHAR 007C
ENCODING 124
SWIDTH 500 0
DWIDTH 8 0
BBX 1 16 3 -2
BITMAP
80
80
80
80
80
80
80
80
80
80
80
80
80
80
80
80
ENDCHAR
STARTCHAR 007D
ENCODING 125
SWIDTH 500 0
DWIDTH 8 0
BBX 4 14 2 -1
BITMAP
80
40
40
40
40
40
20
30
40
40
40
40
40
80
ENDCHAR
STARTCHAR 007E
ENCODING 126
SWIDTH 500 0
DWIDTH 8 0
BBX 6 2 1 10
BITMAP
64
98
ENDCHAR
STARTCHAR 00A0
ENCODING 160
SWIDTH 500 0
DWIDTH 8 0
BBX 0 0 0 0
BITMAP
ENDCHAR
STARTCHAR 00A1
ENCODING 161
SWIDTH 500 0
DWIDTH 8 0
BBX 2 14 3 -1
BITMAP
C0
C0
00
00
80
80
80
80
C0
C0
C0
C0
C0
C0
ENDCHAR
STARTCHAR 00A2
ENCODING 162
SWIDTH 1000 0
DWIDTH 16 0
BBX 8 11 4 1
BITMAP
04
3C
6A
4A
C8
D0
50
53
3C
20
20
ENDCHAR
STARTCHAR 00A3
ENCODING 163
SWIDTH 1000 0
DWIDTH 16 0
BBX 10 12 3 0
BITMAP
0F00
1180
1180
1000
1000
7F00
0800
0800
0800
7840
8E40
7180
ENDCHAR
STARTCHAR 00A4
ENCODING 164
SWIDTH 500 0
DWIDTH 8 0
BBX 6 6 1 3
BITMAP
88
7C
48
88
48
B4
ENDCHAR
STARTCHAR 00A5
ENCODING 165
SWIDTH 1000 0
DWIDTH 16 0
BBX 12 11 2 1
BITMAP
F8F0
2040
1080
0900
7FE0
0600
0600
7FE0
0600
0600
0F00
ENDCHAR
STARTCHAR 00A6
ENCODING 166
SWIDTH 500 0
DWIDTH 8 0
BBX 1 14 3 -1
BITMAP
80
80
80
80
80
80
00
00
80
80
80
80
80
80
ENDCHAR
STARTCHAR 00A7
ENCODING 167
SWIDTH 1000 0
DWIDTH 16 0
BBX 6 14 5 -1
BITMAP
78
84
8C
80
60
98
84
84
64
18
04
84
84
78
ENDCHAR
STARTCHAR 00A8
ENCODING 168
SWIDTH 1000 0
DWIDTH 16 0
BBX 6 2 5 10
BITMAP
CC
CC
ENDCHAR
STARTCHAR 00A9
ENCODING 169
SWIDTH 500 0
DWIDTH 8 0
BBX 8 7 0 2
BITMAP
3C
66
A6
A1
A6
5A
3C
ENDCHAR
STARTCHAR 00AA
ENCODING 170
SWIDTH 500 0
DWIDTH 8 0
BBX 5 7 1 5
BITMAP
E0
A0
E0
A0
F8
00
F0
ENDCHAR
STARTCHAR 00AB
ENCODING 171
SWIDTH 500 0
DWIDTH 8 0
BBX 5 7 2 1
BITMAP
38
50
60
A0
60
50
38
ENDCHAR
STARTCHAR 00AC
ENCODING 172
SWIDTH 1000 0
DWIDTH 16 0
BBX 14 6 1 3
BITMAP
FFFC
0004
0004
0004
0004
0004
ENDCHAR
STARTCHAR 00AD
ENCODING 173
SWIDTH 500 0
DWIDTH 8 0
BBX 6 1 1 5
BITMAP
FC
ENDCHAR
STARTCHAR 00AE
ENCODING 174
SWIDTH 500 0
DWIDTH 8 0
BBX 8 6 0 3
BITMAP
3C
66
A5
B9
A6
7C
ENDCHAR
STARTCHAR 00AF
ENCODING 175
SWIDTH 500 0
DWIDTH 8 0
BBX 6 1 1 11
BITMAP
FC
ENDCHAR
STARTCHAR 00B0
ENCODING 176
SWIDTH 1000 0
DWIDTH 16 0
BBX 3 3 1 10
BITMAP
E0
A0
E0
ENDCHAR
STARTCHAR 00B1
ENCODING 177
SWIDTH 1000 0
DWIDTH 16 0
BBX 11 11 3 1
BITMAP
0800
0800
0800
0800
FFE0
0800
0800
0800
0800
0000
FFE0
ENDCHAR
STARTCHAR 00B2
ENCODING 178
SWIDTH 500 0
DWIDTH 8 0
BBX 4 6 1 7
BITMAP
E0
B0
20
40
90
F0
ENDCHAR
STARTCHAR 00B3
ENCODING 179
SWIDTH 500 0
DWIDTH 8 0
BBX 4 7 1 7
BITMAP
60
A0
20
40
20
90
E0
ENDCHAR
STARTCHAR 00B4
ENCODING 180
SWIDTH 1000 0
DWIDTH 16 0
BBX 5 2 6 10
BITMAP
38
C0
ENDCHAR
STARTCHAR 00B6
ENCODING 182
SWIDTH 1000 0
DWIDTH 16 0
BBX 6 14 4 -1
BITMAP
7C
F4
F4
F4
74
34
14
14
14
14
14
14
14
14
ENDCHAR
STARTCHAR 00B7
ENCODING 183
SWIDTH 500 0
DWIDTH 8 0
BBX 2 2 3 5
BITMAP
C0
C0
ENDCHAR
STARTCHAR 00B8
ENCODING 184
SWIDTH 500 0
DWIDTH 8 0
BBX 4 4 2 -1
BITMAP
40
70
10
F0
ENDCHAR
STARTCHAR 00B9
ENCODING 185
SWIDTH 500 0
DWIDTH 8 0
BBX 2 6 2 8
BITMAP
80
80
80
80
80
C0
ENDCHAR
STARTCHAR 00BA
ENCODING 186
SWIDTH 500 0
DWIDTH 8 0
BBX 4 7 1 5
BITMAP
E0
90
90
90
A0
40
F0
ENDCHAR
STARTCHAR 00BB
ENCODING 187
SWIDTH 500 0
DWIDTH 8 0
BBX 5 7 1 1
BITMAP
A0
60
50
28
50
60
A0
ENDCHAR
STARTCHAR 00BC
ENCODING 188
SWIDTH 500 0
DWIDTH 8 0
BBX 7 14 1 -1
BITMAP
84
84
88
88
90
90
A0
64
3C
54
64
BE
84
8C
ENDCHAR
STARTCHAR 00BD
ENCODING 189
SWIDTH 500 0
DWIDTH 8 0
BBX 6 14 1 -1
BITMAP
84
84
88
88
90
90
A0
6C
34
44
44
88
94
9C
ENDCHAR
STARTCHAR 00BE
ENCODING 190
SWIDTH 500 0
DWIDTH 8 0
BBX 7 14 1 -1
BITMAP
C4
A4
28
48
30
B0
F0
24
3C
54
64
BE
84
8C
ENDCHAR
STARTCHAR 00BF
ENCODING 191
SWIDTH 500 0
DWIDTH 8 0
BBX 6 13 1 0
BITMAP
30
30
00
20
20
20
20
40
80
8C
8C
C4
78
ENDCHAR
STARTCHAR 00C0
ENCODING 192
SWIDTH 500 0
DWIDTH 8 0
BBX 8 13 0 1
BITMAP
30
08
10
18
18
28
28
24
24
3C
44
42
E7
ENDCHAR
STARTCHAR 00C1
ENCODING 193
SWIDTH 500 0
DWIDTH 8 0
BBX 8 13 0 1
BITMAP
0C
10
10
18
18
28
28
24
24
3C
44
42
E7
ENDCHAR
STARTCHAR 00C2
ENCODING 194
SWIDTH 500 0
DWIDTH 8 0
BBX 8 13 0 1
BITMAP
18
24
10
18
18
28
28
24
24
3C
44
42
E7
ENDCHAR
STARTCHAR 00C3
ENCODING 195
SWIDTH 500 0
DWIDTH 8 0
BBX 8 12 0 1
BITMAP
3C
10
18
18
28
28
24
24
3C
44
42
E7
ENDCHAR
STARTCHAR 00C4
ENCODING 196
SWIDTH 500 0
DWIDTH 8 0
BBX 8 12 0 1
BITMAP
24
10
18
18
28
28
24
24
3C
44
42
E7
ENDCHAR
STARTCHAR 00C5
ENCODING 197
SWIDTH 500 0
DWIDTH 8 0
BBX 8 13 0 1
BITMAP
38
28
10
18
18
28
28
24
24
3C
44
42
E7
ENDCHAR
STARTCHAR 00C6
ENCODING 198
SWIDTH 500 0
DWIDTH 8 0
BBX 7 11 0 1
BITMAP
0E
1A
1A
28
2A
2E
2A
3A
48
4A
DE
ENDCHAR
STARTCHAR 00C7
ENCODING 199
SWIDTH 500 0
DWIDTH 8 0
BBX 6 14 1 -2
BITMAP
3C
4C
84
80
80
80
80
80
84
44
48
38
38
38
ENDCHAR
STARTCHAR 00C8
ENCODING 200
SWIDTH 500 0
DWIDTH 8 0
BBX 6 13 1 1
BITMAP
60
10
FC
44
44
40
48
78
48
40
44
44
FC
ENDCHAR
STARTCHAR 00C9
ENCODING 201
SWIDTH 500 0
DWIDTH 8 0
BBX 6 13 1 1
BITMAP
18
20
FC
44
44
40
48
78
48
40
44
44
FC
ENDCHAR
STARTCHAR 00CA
ENCODING 202
SWIDTH 500 0
DWIDTH 8 0
BBX 6 13 1 1
BITMAP
30
48
FC
44
44
40
48
78
48
40
44
44
FC
ENDCHAR
STARTCHAR 00CB
ENCODING 203
SWIDTH 500 0
DWIDTH 8 0
BBX 6 12 1 1
BITMAP
48
FC
44
44
40
48
78
48
40
44
44
FC
ENDCHAR
STARTCHAR 00CC
ENCODING 204
SWIDTH 500 0
DWIDTH 8 0
BBX 4 13 2 1
BITMAP
C0
20
F0
20
20
20
20
20
20
20
20
20
F0
ENDCHAR
STARTCHAR 00CD
ENCODING 205
SWIDTH 500 0
DWIDTH 8 0
BBX 4 13 2 1
BITMAP
30
40
F0
20
20
20
20
20
20
20
20
20
F0
ENDCHAR
STARTCHAR 00CE
ENCODING 206
SWIDTH 500 0
DWIDTH 8 0
BBX 4 13 2 1
BITMAP
60
90
60
40
40
40
40
40
40
40
40
40
F0
ENDCHAR
STARTCHAR 00CF
ENCODING 207
SWIDTH 500 0
DWIDTH 8 0
BBX 4 12 2 1
BITMAP
90
60
40
40
40
40
40
40
40
40
40
F0
ENDCHAR
STARTCHAR 00D0
ENCODING 208
SWIDTH 500 0
DWIDTH 8 0
BBX 7 11 0 1
BITMAP
78
24
22
22
22
F2
22
22
22
24
78
ENDCHAR
STARTCHAR 00D1
ENCODING 209
SWIDTH 500 0
DWIDTH 8 0
BBX 8 13 0 1
BITMAP
3C
00
E7
62
62
52
52
4A
4A
46
46
46
E2
ENDCHAR
STARTCHAR 00D2
ENCODING 210
SWIDTH 500 0
DWIDTH 8 0
BBX 6 14 1 0
BITMAP
60
10
30
48
84
84
84
84
84
84
84
84
48
30
ENDCHAR
STARTCHAR 00D3
ENCODING 211
SWIDTH 500 0
DWIDTH 8 0
BBX 6 14 1 0
BITMAP
18
20
30
48
84
84
84
84
84
84
84
84
48
30
ENDCHAR
STARTCHAR 00D4
ENCODING 212
SWIDTH 500 0
DWIDTH 8 0
BBX 6 14 1 0
BITMAP
30
48
30
48
84
84
84
84
84
84
84
84
48
30
ENDCHAR
STARTCHAR 00D5
ENCODING 213
SWIDTH 500 0
DWIDTH 8 0
BBX 6 14 1 0
BITMAP
78
00
30
48
84
84
84
84
84
84
84
84
48
30
ENDCHAR
STARTCHAR 00D6
ENCODING 214
SWIDTH 500 0
DWIDTH 8 0
BBX 6 13 1 0
BITMAP
48
30
48
84
84
84
84
84
84
84
84
48
30
ENDCHAR
STARTCHAR 00D7
ENCODING 215
SWIDTH 1000 0
DWIDTH 16 0
BBX 10 10 3 1
BITMAP
8040
4080
2100
1200
0C00
0C00
1200
2100
4080
80C0
ENDCHAR
STARTCHAR 00D8
ENCODING 216
SWIDTH 500 0
DWIDTH 8 0
BBX 6 13 1 0
BITMAP
04
3C
48
8C
94
94
A4
A4
C4
C4
84
C8
B0
ENDCHAR
STARTCHAR 00D9
ENCODING 217
SWIDTH 500 0
DWIDTH 8 0
BBX 8 14 0 0
BITMAP
30
08
E7
42
42
42
42
42
42
42
42
42
24
3C
ENDCHAR
STARTCHAR 00DA
ENCODING 218
SWIDTH 500 0
DWIDTH 8 0
BBX 8 14 0 0
BITMAP
0C
10
E7
42
42
42
42
42
42
42
42
42
24
3C
ENDCHAR
STARTCHAR 00DB
ENCODING 219
SWIDTH 500 0
DWIDTH 8 0
BBX 8 14 0 0
BITMAP
18
24
E3
42
42
42
42
42
42
42
42
42
24
3C
ENDCHAR
STARTCHAR 00DC
ENCODING 220
SWIDTH 500 0
DWIDTH 8 0
BBX 8 13 0 0
BITMAP
24
E3
42
42
42
42
42
42
42
42
42
24
3C
ENDCHAR
STARTCHAR 00DD
ENCODING 221
SWIDTH 500 0
DWIDTH 8 0
BBX 8 13 0 1
BITMAP
0C
10
E7
42
24
24
18
18
10
10
10
10
3C
ENDCHAR
STARTCHAR 00DE
ENCODING 222
SWIDTH 500 0
DWIDTH 8 0
BBX 6 11 1 1
BITMAP
E0
40
78
4C
44
44
44
4C
78
40
E0
ENDCHAR
STARTCHAR 00DF
ENCODING 223
SWIDTH 500 0
DWIDTH 8 0
BBX 6 12 1 0
BITMAP
70
48
48
88
88
B0
88
84
84
84
AC
38
ENDCHAR
STARTCHAR 00E0
ENCODING 224
SWIDTH 500 0
DWIDTH 8 0
BBX 7 11 1 0
BITMAP
60
10
00
70
C8
08
38
C8
88
8A
74
ENDCHAR
STARTCHAR 00E1
ENCODING 225
SWIDTH 500 0
DWIDTH 8 0
BBX 7 11 1 0
BITMAP
18
20
00
70
C8
08
38
C8
88
8A
74
ENDCHAR
STARTCHAR 00E2
ENCODING 226
SWIDTH 500 0
DWIDTH 8 0
BBX 7 11 1 0
BITMAP
30
48
00
70
C8
08
38
C8
88
8A
74
ENDCHAR
STARTCHAR 00E3
ENCODING 227
SWIDTH 500 0
DWIDTH 8 0
BBX 7 10 1 0
BITMAP
78
00
70
C8
08
38
C8
88
8A
74
ENDCHAR
STARTCHAR 00E4
ENCODING 228
SWIDTH 500 0
DWIDTH 8 0
BBX 7 10 1 0
BITMAP
48
00
70
C8
08
38
C8
88
8A
74
ENDCHAR
STARTCHAR 00E5
ENCODING 229
SWIDTH 500 0
DWIDTH 8 0
BBX 7 11 1 0
BITMAP
70
50
20
70
C8
08
38
C8
88
8A
74
ENDCHAR
STARTCHAR 00E6
ENCODING 230
SWIDTH 500 0
DWIDTH 8 0
BBX 6 8 1 0
BITMAP
F8
94
24
7C
A0
94
94
F8
ENDCHAR
STARTCHAR 00E7
ENCODING 231
SWIDTH 500 0
DWIDTH 8 0
BBX 6 10 1 -2
BITMAP
38
4C
C0
80
80
44
44
38
38
38
ENDCHAR
STARTCHAR 00E8
ENCODING 232
SWIDTH 500 0
DWIDTH 8 0
BBX 6 11 1 0
BITMAP
60
10
00
30
48
84
FC
80
80
4C
38
ENDCHAR
STARTCHAR 00E9
ENCODING 233
SWIDTH 500 0
DWIDTH 8 0
BBX 6 11 1 0
BITMAP
18
20
00
30
48
84
FC
80
80
4C
38
ENDCHAR
STARTCHAR 00EA
ENCODING 234
SWIDTH 500 0
DWIDTH 8 0
BBX 6 11 1 0
BITMAP
30
48
00
30
48
84
FC
80
80
4C
38
ENDCHAR
STARTCHAR 00EB
ENCODING 235
SWIDTH 500 0
DWIDTH 8 0
BBX 6 10 1 0
BITMAP
48
00
30
48
84
FC
80
80
4C
38
ENDCHAR
STARTCHAR 00EC
ENCODING 236
SWIDTH 500 0
DWIDTH 8 0
BBX 4 10 2 1
BITMAP
C0
20
00
60
20
20
20
20
20
70
ENDCHAR
STARTCHAR 00ED
ENCODING 237
SWIDTH 500 0
DWIDTH 8 0
BBX 3 10 3 1
BITMAP
60
80
00
C0
40
40
40
40
40
E0
ENDCHAR
STARTCHAR 00EE
ENCODING 238
SWIDTH 500 0
DWIDTH 8 0
BBX 4 10 2 1
BITMAP
60
90
00
60
20
20
20
20
20
70
ENDCHAR
STARTCHAR 00EF
ENCODING 239
SWIDTH 500 0
DWIDTH 8 0
BBX 4 10 2 1
BITMAP
90
00
60
20
20
20
20
20
20
70
ENDCHAR
STARTCHAR 00F0
ENCODING 240
SWIDTH 500 0
DWIDTH 8 0
BBX 6 12 1 0
BITMAP
58
20
D0
08
78
4C
84
84
84
84
48
70
ENDCHAR
STARTCHAR 00F1
ENCODING 241
SWIDTH 500 0
DWIDTH 8 0
BBX 7 9 1 1
BITMAP
78
00
B8
C4
84
84
84
84
CE
ENDCHAR
STARTCHAR 00F2
ENCODING 242
SWIDTH 500 0
DWIDTH 8 0
BBX 6 11 1 0
BITMAP
60
10
00
78
C8
84
84
84
84
48
78
ENDCHAR
STARTCHAR 00F3
ENCODING 243
SWIDTH 500 0
DWIDTH 8 0
BBX 6 11 1 0
BITMAP
18
20
00
78
C8
84
84
84
84
48
78
ENDCHAR
STARTCHAR 00F4
ENCODING 244
SWIDTH 500 0
DWIDTH 8 0
BBX 6 11 1 0
BITMAP
30
48
00
78
C8
84
84
84
84
48
78
ENDCHAR
STARTCHAR 00F5
ENCODING 245
SWIDTH 500 0
DWIDTH 8 0
BBX 6 10 1 0
BITMAP
78
00
78
C8
84
84
84
84
48
78
ENDCHAR
STARTCHAR 00F6
ENCODING 246
SWIDTH 500 0
DWIDTH 8 0
BBX 6 10 1 0
BITMAP
48
00
78
C8
84
84
84
84
48
78
ENDCHAR
STARTCHAR 00F7
ENCODING 247
SWIDTH 1000 0
DWIDTH 16 0
BBX 11 9 3 1
BITMAP
0C00
0C00
0000
0000
FFE0
0000
0000
0C00
0C00
ENDCHAR
STARTCHAR 00F8
ENCODING 248
SWIDTH 500 0
DWIDTH 8 0
BBX 6 9 1 0
BITMAP
04
78
CC
94
A4
A4
C4
48
B8
ENDCHAR
STARTCHAR 00F9
ENCODING 249
SWIDTH 500 0
DWIDTH 8 0
BBX 7 11 1 0
BITMAP
60
10
00
8C
84
84
84
84
84
4C
76
ENDCHAR
STARTCHAR 00FA
ENCODING 250
SWIDTH 500 0
DWIDTH 8 0
BBX 7 11 1 0
BITMAP
18
20
00
8C
84
84
84
84
84
4C
76
ENDCHAR
STARTCHAR 00FB
ENCODING 251
SWIDTH 500 0
DWIDTH 8 0
BBX 7 11 1 0
BITMAP
30
48
00
8C
84
84
84
84
84
4C
76
ENDCHAR
STARTCHAR 00FC
ENCODING 252
SWIDTH 500 0
DWIDTH 8 0
BBX 7 10 1 0
BITMAP
48
84
8C
84
84
84
84
84
4C
7A
ENDCHAR
STARTCHAR 00FD
ENCODING 253
SWIDTH 500 0
DWIDTH 8 0
BBX 8 13 0 -2
BITMAP
0C
10
00
E7
22
24
14
18
18
08
10
50
60
ENDCHAR
STARTCHAR 00FE
ENCODING 254
SWIDTH 500 0
DWIDTH 8 0
BBX 6 14 1 -2
BITMAP
C0
40
40
40
78
4C
44
44
44
44
4C
78
40
E0
ENDCHAR
STARTCHAR 00FF
ENCODING 255
SWIDTH 500 0
DWIDTH 8 0
BBX 8 12 0 -2
BITMAP
26
00
E7
22
24
14
18
18
08
10
50
60
ENDCHAR
STARTCHAR 0100
ENCODING 256
SWIDTH 500 0
DWIDTH 8 0
BBX 8 13 0 1
BITMAP
3C
00
10
18
18
28
28
24
24
3C
44
42
E7
ENDCHAR
STARTCHAR 0101
ENCODING 257
SWIDTH 500 0
DWIDTH 8 0
BBX 7 11 1 0
BITMAP
78
00
00
70
C8
08
38
C8
88
8A
74
ENDCHAR
STARTCHAR 0102
ENCODING 258
SWIDTH 500 0
DWIDTH 8 0
BBX 8 13 0 1
BITMAP
24
18
10
18
18
28
28
24
24
3C
44
42
E7
ENDCHAR
STARTCHAR 0103
ENCODING 259
SWIDTH 500 0
DWIDTH 8 0
BBX 7 11 1 0
BITMAP
48
30
00
70
C8
08
38
C8
88
8A
74
ENDCHAR
STARTCHAR 0104
ENCODING 260
SWIDTH 500 0
DWIDTH 8 0
BBX 8 14 0 -2
BITMAP
10
18
18
28
28
24
24
3C
44
42
42
A5
04
07
ENDCHAR
STARTCHAR 0105
ENCODING 261
SWIDTH 500 0
DWIDTH 8 0
BBX 7 10 1 -2
BITMAP
70
C8
08
38
C8
88
8A
74
18
0C
ENDCHAR
STARTCHAR 0106
ENCODING 262
SWIDTH 500 0
DWIDTH 8 0
BBX 6 14 1 0
BITMAP
18
20
3C
4C
84
80
80
80
80
80
84
44
48
38
ENDCHAR
STARTCHAR 0107
ENCODING 263
SWIDTH 500 0
DWIDTH 8 0
BBX 6 11 1 0
BITMAP
18
20
00
38
4C
C0
80
80
C4
44
38
ENDCHAR
STARTCHAR 0108
ENCODING 264
SWIDTH 500 0
DWIDTH 8 0
BBX 6 14 1 0
BITMAP
30
48
3C
4C
84
80
80
80
80
80
84
44
48
38
ENDCHAR
STARTCHAR 0109
ENCODING 265
SWIDTH 500 0
DWIDTH 8 0
BBX 6 11 1 0
BITMAP
10
28
40
38
4C
C0
80
80
C4
44
38
ENDCHAR
STARTCHAR 010C
ENCODING 268
SWIDTH 500 0
DWIDTH 8 0
BBX 6 14 1 0
BITMAP
48
30
34
4C
C4
80
80
80
80
80
84
44
48
38
ENDCHAR
STARTCHAR 010D
ENCODING 269
SWIDTH 500 0
DWIDTH 8 0
BBX 6 11 1 0
BITMAP
68
10
00
38
4C
C0
80
80
C4
44
38
ENDCHAR
STARTCHAR 010E
ENCODING 270
SWIDTH 500 0
DWIDTH 8 0
BBX 6 13 1 1
BITMAP
50
20
D0
48
44
44
44
44
44
44
44
48
F0
ENDCHAR
STARTCHAR 010F
ENCODING 271
SWIDTH 500 0
DWIDTH 8 0
BBX 7 13 1 0
BITMAP
06
1E
0C
08
08
78
88
88
88
88
88
98
74
ENDCHAR
STARTCHAR 0111
ENCODING 273
SWIDTH 500 0
DWIDTH 8 0
BBX 7 12 1 0
BITMAP
18
08
1E
08
78
C8
88
88
88
88
48
7C
ENDCHAR
STARTCHAR 0112
ENCODING 274
SWIDTH 500 0
DWIDTH 8 0
BBX 6 13 1 1
BITMAP
78
00
FC
44
44
40
48
78
48
40
44
44
FC
ENDCHAR
STARTCHAR 0113
ENCODING 275
SWIDTH 500 0
DWIDTH 8 0
BBX 6 11 1 0
BITMAP
78
00
00
30
48
84
FC
80
80
4C
38
ENDCHAR
STARTCHAR 0118
ENCODING 280
SWIDTH 500 0
DWIDTH 8 0
BBX 6 14 1 -2
BITMAP
FC
44
44
40
48
78
48
48
40
44
44
B8
40
38
ENDCHAR
STARTCHAR 0119
ENCODING 281
SWIDTH 500 0
DWIDTH 8 0
BBX 6 10 1 -2
BITMAP
70
48
84
FC
80
80
4C
30
20
38
ENDCHAR
STARTCHAR 011A
ENCODING 282
SWIDTH 500 0
DWIDTH 8 0
BBX 6 13 1 1
BITMAP
48
30
FC
44
44
40
48
78
48
40
44
44
FC
ENDCHAR
STARTCHAR 011B
ENCODING 283
SWIDTH 500 0
DWIDTH 8 0
BBX 6 11 1 0
BITMAP
48
30
00
30
48
84
FC
80
80
4C
38
ENDCHAR
STARTCHAR 011C
ENCODING 284
SWIDTH 500 0
DWIDTH 8 0
BBX 7 14 1 0
BITMAP
30
48
34
4C
C4
80
80
80
8E
84
84
C4
4C
30
ENDCHAR
STARTCHAR 011D
ENCODING 285
SWIDTH 500 0
DWIDTH 8 0
BBX 7 13 1 -2
BITMAP
30
50
08
7E
88
88
78
80
C0
BC
84
84
78
ENDCHAR
STARTCHAR 0124
ENCODING 292
SWIDTH 500 0
DWIDTH 8 0
BBX 8 13 0 1
BITMAP
18
24
E7
42
42
42
42
7E
42
42
42
42
E7
ENDCHAR
STARTCHAR 0125
ENCODING 293
SWIDTH 500 0
DWIDTH 8 0
BBX 7 13 1 1
BITMAP
30
48
80
80
80
80
B8
C4
84
84
84
84
CE
ENDCHAR
STARTCHAR 0127
ENCODING 295
SWIDTH 500 0
DWIDTH 8 0
BBX 8 11 0 1
BITMAP
40
40
F0
40
5C
62
42
42
42
42
67
ENDCHAR
STARTCHAR 012A
ENCODING 298
SWIDTH 500 0
DWIDTH 8 0
BBX 4 13 2 1
BITMAP
F0
00
F0
20
20
20
20
20
20
20
20
20
F0
ENDCHAR
STARTCHAR 012B
ENCODING 299
SWIDTH 500 0
DWIDTH 8 0
BBX 4 10 2 1
BITMAP
F0
00
20
60
20
20
20
20
20
70
ENDCHAR
STARTCHAR 0134
ENCODING 308
SWIDTH 500 0
DWIDTH 8 0
BBX 6 14 1 0
BITMAP
08
14
0C
08
08
08
08
08
08
08
08
C8
90
70
ENDCHAR
STARTCHAR 0135
ENCODING 309
SWIDTH 500 0
DWIDTH 8 0
BBX 6 13 1 -2
BITMAP
18
28
04
30
10
10
10
10
10
10
10
D0
70
ENDCHAR
STARTCHAR 0139
ENCODING 313
SWIDTH 500 0
DWIDTH 8 0
BBX 6 13 1 1
BITMAP
18
20
C0
40
40
40
40
40
40
44
44
44
FC
ENDCHAR
STARTCHAR 013A
ENCODING 314
SWIDTH 500 0
DWIDTH 8 0
BBX 3 13 3 1
BITMAP
60
80
C0
40
40
40
40
40
40
40
40
40
E0
ENDCHAR
STARTCHAR 013D
ENCODING 317
SWIDTH 500 0
DWIDTH 8 0
BBX 6 12 1 1
BITMAP
0C
E4
48
40
40
40
40
40
44
44
44
FC
ENDCHAR
STARTCHAR 013E
ENCODING 318
SWIDTH 500 0
DWIDTH 8 0
BBX 5 12 2 1
BITMAP
58
C8
50
40
40
40
40
40
40
40
40
E0
ENDCHAR
STARTCHAR 0141
ENCODING 321
SWIDTH 500 0
DWIDTH 8 0
BBX 7 11 0 1
BITMAP
70
20
20
30
20
60
A0
22
22
22
7E
ENDCHAR
STARTCHAR 0142
ENCODING 322
SWIDTH 500 0
DWIDTH 8 0
BBX 4 12 2 1
BITMAP
20
E0
20
20
30
20
60
A0
20
20
20
70
ENDCHAR
STARTCHAR 0143
ENCODING 323
SWIDTH 500 0
DWIDTH 8 0
BBX 8 13 0 1
BITMAP
0C
10
E7
62
62
52
52
4A
4A
46
46
46
E2
ENDCHAR
STARTCHAR 0144
ENCODING 324
SWIDTH 500 0
DWIDTH 8 0
BBX 7 10 1 1
BITMAP
18
20
00
B8
C4
84
84
84
84
CE
ENDCHAR
STARTCHAR 0147
ENCODING 327
SWIDTH 500 0
DWIDTH 8 0
BBX 8 13 0 1
BITMAP
24
18
E7
62
62
52
52
4A
4A
46
46
46
E2
ENDCHAR
STARTCHAR 0148
ENCODING 328
SWIDTH 500 0
DWIDTH 8 0
BBX 7 10 1 1
BITMAP
48
30
00
B8
C4
84
84
84
84
CE
ENDCHAR
STARTCHAR 014B
ENCODING 331
SWIDTH 500 0
DWIDTH 8 0
BBX 6 10 1 -2
BITMAP
B8
C4
84
84
84
84
C4
04
28
38
ENDCHAR
STARTCHAR 014C
ENCODING 332
SWIDTH 500 0
DWIDTH 8 0
BBX 6 14 1 0
BITMAP
78
00
30
48
84
84
84
84
84
84
84
84
48
30
ENDCHAR
STARTCHAR 014D
ENCODING 333
SWIDTH 500 0
DWIDTH 8 0
BBX 6 11 1 0
BITMAP
78
00
00
78
C8
84
84
84
84
48
78
ENDCHAR
STARTCHAR 0150
ENCODING 336
SWIDTH 500 0
DWIDTH 8 0
BBX 7 14 1 0
BITMAP
3E
50
30
48
84
84
84
84
84
84
84
84
48
30
ENDCHAR
STARTCHAR 0151
ENCODING 337
SWIDTH 500 0
DWIDTH 8 0
BBX 7 11 1 0
BITMAP
3E
50
00
78
C8
84
84
84
84
48
78
ENDCHAR
STARTCHAR 0152
ENCODING 338
SWIDTH 500 0
DWIDTH 8 0
BBX 6 12 1 0
BITMAP
7C
54
94
90
98
98
98
90
94
94
5C
60
ENDCHAR
STARTCHAR 0153
ENCODING 339
SWIDTH 500 0
DWIDTH 8 0
BBX 6 8 1 0
BITMAP
78
B4
94
9C
90
94
B4
68
ENDCHAR
STARTCHAR 0154
ENCODING 340
SWIDTH 500 0
DWIDTH 8 0
BBX 8 13 0 1
BITMAP
0C
10
EC
42
42
42
44
38
48
48
44
44
E3
ENDCHAR
STARTCHAR 0155
ENCODING 341
SWIDTH 500 0
DWIDTH 8 0
BBX 5 10 2 1
BITMAP
30
40
00
B8
40
40
40
40
40
E0
ENDCHAR
STARTCHAR 0158
ENCODING 344
SWIDTH 500 0
DWIDTH 8 0
BBX 8 13 0 1
BITMAP
2C
10
EC
42
42
42
44
38
48
48
44
44
E3
ENDCHAR
STARTCHAR 0159
ENCODING 345
SWIDTH 500 0
DWIDTH 8 0
BBX 5 10 2 1
BITMAP
90
60
00
B8
40
40
40
40
40
E0
ENDCHAR
STARTCHAR 015A
ENCODING 346
SWIDTH 500 0
DWIDTH 8 0
BBX 6 14 1 0
BITMAP
18
20
7C
8C
84
C0
40
30
08
04
84
84
CC
38
ENDCHAR
STARTCHAR 015B
ENCODING 347
SWIDTH 500 0
DWIDTH 8 0
BBX 6 11 1 0
BITMAP
18
20
00
78
48
40
20
18
84
C4
38
ENDCHAR
STARTCHAR 015C
ENCODING 348
SWIDTH 500 0
DWIDTH 8 0
BBX 6 14 1 0
BITMAP
30
48
74
CC
84
80
40
20
18
08
84
84
CC
38
ENDCHAR
STARTCHAR 015D
ENCODING 349
SWIDTH 500 0
DWIDTH 8 0
BBX 6 11 1 0
BITMAP
30
48
00
78
48
40
20
18
84
C4
38
ENDCHAR
STARTCHAR 015E
ENCODING 350
SWIDTH 500 0
DWIDTH 8 0
BBX 6 14 1 -2
BITMAP
7C
CC
84
80
40
30
08
84
84
CC
38
30
30
20
ENDCHAR
STARTCHAR 015F
ENCODING 351
SWIDTH 500 0
DWIDTH 8 0
BBX 6 10 1 -2
BITMAP
78
48
40
30
88
C4
B8
30
30
20
ENDCHAR
STARTCHAR 0160
ENCODING 352
SWIDTH 500 0
DWIDTH 8 0
BBX 6 14 1 0
BITMAP
48
30
74
CC
84
80
40
20
18
08
84
84
CC
38
ENDCHAR
STARTCHAR 0161
ENCODING 353
SWIDTH 500 0
DWIDTH 8 0
BBX 6 11 1 0
BITMAP
48
30
00
78
48
40
20
18
84
C4
38
ENDCHAR
STARTCHAR 0162
ENCODING 354
SWIDTH 500 0
DWIDTH 8 0
BBX 6 14 1 -2
BITMAP
FC
A4
A4
20
20
20
20
20
20
30
48
30
30
20
ENDCHAR
STARTCHAR 0163
ENCODING 355
SWIDTH 500 0
DWIDTH 8 0
BBX 6 12 1 -2
BITMAP
20
20
F8
20
20
20
20
24
38
30
30
20
ENDCHAR
STARTCHAR 0164
ENCODING 356
SWIDTH 500 0
DWIDTH 8 0
BBX 6 13 1 1
BITMAP
48
30
FC
A4
A4
20
20
20
20
20
20
20
78
ENDCHAR
STARTCHAR 0165
ENCODING 357
SWIDTH 500 0
DWIDTH 8 0
BBX 6 13 1 0
BITMAP
0C
0C
08
30
20
F8
20
20
20
20
20
24
38
ENDCHAR
STARTCHAR 016A
ENCODING 362
SWIDTH 500 0
DWIDTH 8 0
BBX 8 14 0 0
BITMAP
3C
00
E7
42
42
42
42
42
42
42
42
42
24
3C
ENDCHAR
STARTCHAR 016B
ENCODING 363
SWIDTH 500 0
DWIDTH 8 0
BBX 7 11 1 0
BITMAP
78
00
84
8C
84
84
84
84
84
4C
7A
ENDCHAR
STARTCHAR 016C
ENCODING 364
SWIDTH 500 0
DWIDTH 8 0
BBX 8 14 0 0
BITMAP
24
18
E7
42
42
42
42
42
42
42
42
42
24
3C
ENDCHAR
STARTCHAR 016D
ENCODING 365
SWIDTH 500 0
DWIDTH 8 0
BBX 7 11 1 0
BITMAP
48
30
84
8C
84
84
84
84
84
4C
7A
ENDCHAR
STARTCHAR 016E
ENCODING 366
SWIDTH 500 0
DWIDTH 8 0
BBX 8 14 0 0
BITMAP
18
18
E7
42
42
42
42
42
42
42
42
42
24
3C
ENDCHAR
STARTCHAR 016F
ENCODING 367
SWIDTH 500 0
DWIDTH 8 0
BBX 7 11 1 0
BITMAP
70
30
84
8C
84
84
84
84
84
4C
7A
ENDCHAR
STARTCHAR 0170
ENCODING 368
SWIDTH 500 0
DWIDTH 8 0
BBX 8 14 0 0
BITMAP
1F
28
E7
42
42
42
42
42
42
42
42
42
24
3C
ENDCHAR
STARTCHAR 0171
ENCODING 369
SWIDTH 500 0
DWIDTH 8 0
BBX 7 11 1 0
BITMAP
3E
50
8C
84
84
84
84
84
84
4C
7A
ENDCHAR
STARTCHAR 0179
ENCODING 377
SWIDTH 500 0
DWIDTH 8 0
BBX 6 13 1 1
BITMAP
18
20
FC
8C
88
10
10
20
20
40
44
84
FC
ENDCHAR
STARTCHAR 017A
ENCODING 378
SWIDTH 500 0
DWIDTH 8 0
BBX 6 10 1 1
BITMAP
18
20
00
FC
88
10
20
44
44
FC
ENDCHAR
STARTCHAR 017B
ENCODING 379
SWIDTH 500 0
DWIDTH 8 0
BBX 6 13 1 1
BITMAP
30
30
FC
8C
88
10
10
20
20
40
44
84
FC
ENDCHAR
STARTCHAR 017C
ENCODING 380
SWIDTH 500 0
DWIDTH 8 0
BBX 6 10 1 1
BITMAP
30
30
00
FC
88
10
20
44
44
FC
ENDCHAR
STARTCHAR 017D
ENCODING 381
SWIDTH 500 0
DWIDTH 8 0
BBX 6 13 1 1
BITMAP
48
30
FC
8C
88
10
10
20
20
40
44
84
FC
ENDCHAR
STARTCHAR 017E
ENCODING 382
SWIDTH 500 0
DWIDTH 8 0
BBX 6 10 1 1
BITMAP
48
30
00
FC
88
10
20
44
44
FC
ENDCHAR
STARTCHAR 0193
ENCODING 403
SWIDTH 500 0
DWIDTH 8 0
BBX 7 14 1 0
BITMAP
0E
0A
78
48
88
80
80
80
9C
88
88
88
58
70
ENDCHAR
STARTCHAR 01C2
ENCODING 450
SWIDTH 500 0
DWIDTH 8 0
BBX 6 14 1 -2
BITMAP
30
30
30
30
FC
30
30
30
FC
30
30
30
30
30
ENDCHAR
STARTCHAR 01CD
ENCODING 461
SWIDTH 1000 0
DWIDTH 16 0
BBX 12 13 2 1
BITMAP
1100
0E00
0400
0600
0600
0B00
0900
1180
1080
3F80
20C0
4040
F0F0
ENDCHAR
STARTCHAR 01CE
ENCODING 462
SWIDTH 1000 0
DWIDTH 16 0
BBX 8 11 5 0
BITMAP
48
30
00
F8
88
04
3C
C4
84
8D
F6
ENDCHAR
STARTCHAR 01D0
ENCODING 464
SWIDTH 1000 0
DWIDTH 16 0
BBX 4 10 6 1
BITMAP
F0
00
60
E0
20
20
20
20
20
F0
ENDCHAR
STARTCHAR 01D1
ENCODING 465
SWIDTH 1000 0
DWIDTH 16 0
BBX 10 13 3 1
BITMAP
1200
0C00
1E00
6180
C0C0
8040
8040
8040
8040
8040
C0C0
6180
1E00
ENDCHAR
STARTCHAR 01D2
ENCODING 466
SWIDTH 1000 0
DWIDTH 16 0
BBX 8 11 4 0
BITMAP
24
18
00
3C
42
C1
81
81
C3
66
3C
ENDCHAR
STARTCHAR 01D4
ENCODING 468
SWIDTH 1000 0
DWIDTH 16 0
BBX 8 11 4 0
BITMAP
3C
00
42
C6
42
42
42
42
42
3E
05
ENDCHAR
STARTCHAR 01D6
ENCODING 470
SWIDTH 1000 0
DWIDTH 16 0
BBX 8 12 4 0
BITMAP
3C
42
66
00
C6
42
42
42
42
42
46
3B
ENDCHAR
STARTCHAR 01D8
ENCODING 472
SWIDTH 1000 0
DWIDTH 16 0
BBX 8 12 4 0
BITMAP
0E
52
66
00
C6
42
42
42
42
42
46
3B
ENDCHAR
STARTCHAR 01DA
ENCODING 474
SWIDTH 1000 0
DWIDTH 16 0
BBX 8 12 4 0
BITMAP
24
5A
66
00
C6
42
42
42
42
42
46
3B
ENDCHAR
STARTCHAR 01DC
ENCODING 476
SWIDTH 1000 0
DWIDTH 16 0
BBX 8 12 4 0
BITMAP
70
4A
66
00
C6
42
42
42
42
42
46
3B
ENDCHAR
STARTCHAR 01F8
ENCODING 504
SWIDTH 500 0
DWIDTH 8 0
BBX 8 13 0 1
BITMAP
30
08
E7
62
62
52
52
4A
4A
46
46
46
E2
ENDCHAR
STARTCHAR 01F9
ENCODING 505
SWIDTH 500 0
DWIDTH 8 0
BBX 7 10 1 1
BITMAP
60
20
10
B8
C4
84
84
84
84
CE
ENDCHAR
STARTCHAR 01FD
ENCODING 509
SWIDTH 500 0
DWIDTH 8 0
BBX 6 11 1 0
BITMAP
18
20
00
F8
94
24
7C
A0
94
94
F8
ENDCHAR
STARTCHAR 0250
ENCODING 592
SWIDTH 500 0
DWIDTH 8 0
BBX 7 8 0 0
BITMAP
7C
A2
22
24
38
26
24
1C
ENDCHAR
STARTCHAR 0251
ENCODING 593
SWIDTH 500 0
DWIDTH 8 0
BBX 6 8 1 0
BITMAP
78
C8
88
88
88
88
4C
74
ENDCHAR
STARTCHAR 0252
ENCODING 594
SWIDTH 500 0
DWIDTH 8 0
BBX 6 8 1 0
BITMAP
F8
4C
44
44
44
44
48
B0
ENDCHAR
STARTCHAR 0253
ENCODING 595
SWIDTH 500 0
DWIDTH 8 0
BBX 5 12 2 0
BITMAP
70
88
98
80
F0
90
88
88
88
88
90
F0
ENDCHAR
STARTCHAR 0254
ENCODING 596
SWIDTH 500 0
DWIDTH 8 0
BBX 6 8 1 0
BITMAP
70
88
0C
04
04
C8
88
70
ENDCHAR
STARTCHAR 0255
ENCODING 597
SWIDTH 500 0
DWIDTH 8 0
BBX 6 8 1 0
BITMAP
38
4C
C0
80
8C
54
64
B8
ENDCHAR
STARTCHAR 0256
ENCODING 598
SWIDTH 500 0
DWIDTH 8 0
BBX 7 14 1 -2
BITMAP
18
08
08
08
78
88
88
88
88
88
98
68
0A
0E
ENDCHAR
STARTCHAR 0257
ENCODING 599
SWIDTH 500 0
DWIDTH 8 0
BBX 7 12 1 0
BITMAP
0E
0A
08
08
78
88
88
88
88
88
98
6C
ENDCHAR
STARTCHAR 0258
ENCODING 600
SWIDTH 500 0
DWIDTH 8 0
BBX 6 8 1 0
BITMAP
30
48
84
FC
04
04
88
70
ENDCHAR
STARTCHAR 0259
ENCODING 601
SWIDTH 500 0
DWIDTH 8 0
BBX 6 8 1 0
BITMAP
78
88
04
04
FC
84
48
30
ENDCHAR
STARTCHAR 025A
ENCODING 602
SWIDTH 500 0
DWIDTH 8 0
BBX 7 8 1 0
BITMAP
60
90
1A
36
D0
90
D0
60
ENDCHAR
STARTCHAR 025C
ENCODING 604
SWIDTH 500 0
DWIDTH 8 0
BBX 6 8 1 0
BITMAP
F8
88
08
30
0C
84
8C
78
ENDCHAR
STARTCHAR 025E
ENCODING 606
SWIDTH 500 0
DWIDTH 8 0
BBX 6 8 1 0
BITMAP
38
C4
84
98
84
84
84
78
ENDCHAR
STARTCHAR 025F
ENCODING 607
SWIDTH 500 0
DWIDTH 8 0
BBX 6 10 1 -2
BITMAP
38
10
10
10
10
7C
10
10
90
E0
ENDCHAR
STARTCHAR 0260
ENCODING 608
SWIDTH 500 0
DWIDTH 8 0
BBX 7 14 1 -2
BITMAP
0E
0A
08
08
78
88
88
88
88
78
08
88
90
70
ENDCHAR
STARTCHAR 0261
ENCODING 609
SWIDTH 500 0
DWIDTH 8 0
BBX 5 10 1 -2
BITMAP
78
C8
88
88
88
78
08
C8
C8
70
ENDCHAR
STARTCHAR 0264
ENCODING 612
SWIDTH 500 0
DWIDTH 8 0
BBX 7 8 1 0
BITMAP
C4
CA
30
20
30
30
50
30
ENDCHAR
STARTCHAR 0265
ENCODING 613
SWIDTH 500 0
DWIDTH 8 0
BBX 7 10 0 -2
BITMAP
E6
44
44
44
44
44
24
3C
02
04
ENDCHAR
STARTCHAR 0266
ENCODING 614
SWIDTH 500 0
DWIDTH 8 0
BBX 7 11 1 1
BITMAP
38
4C
80
80
B8
C4
84
84
84
84
CE
ENDCHAR
STARTCHAR 0267
ENCODING 615
SWIDTH 500 0
DWIDTH 8 0
BBX 6 14 1 -2
BITMAP
38
4C
80
80
B8
C4
84
84
84
84
C4
04
28
38
ENDCHAR
STARTCHAR 0268
ENCODING 616
SWIDTH 500 0
DWIDTH 8 0
BBX 4 11 2 1
BITMAP
60
60
00
20
60
20
20
F0
20
20
70
ENDCHAR
STARTCHAR 026C
ENCODING 620
SWIDTH 500 0
DWIDTH 8 0
BBX 5 11 1 1
BITMAP
70
10
10
10
D0
B0
78
10
10
10
38
ENDCHAR
STARTCHAR 026D
ENCODING 621
SWIDTH 500 0
DWIDTH 8 0
BBX 5 14 2 -2
BITMAP
C0
40
40
40
40
40
40
40
40
40
40
40
48
38
ENDCHAR
STARTCHAR 026E
ENCODING 622
SWIDTH 500 0
DWIDTH 8 0
BBX 6 14 1 -2
BITMAP
C0
40
40
40
7C
48
50
78
44
44
C4
24
4C
38
ENDCHAR
STARTCHAR 026F
ENCODING 623
SWIDTH 500 0
DWIDTH 8 0
BBX 8 8 0 0
BITMAP
DB
52
52
52
52
52
5A
6F
ENDCHAR
STARTCHAR 0270
ENCODING 624
SWIDTH 500 0
DWIDTH 8 0
BBX 8 10 0 -2
BITMAP
DB
52
52
52
52
52
5A
6E
02
03
ENDCHAR
STARTCHAR 0271
ENCODING 625
SWIDTH 500 0
DWIDTH 8 0
BBX 7 10 0 -2
BITMAP
F6
5A
52
52
52
52
5A
82
0A
06
ENDCHAR
STARTCHAR 0272
ENCODING 626
SWIDTH 500 0
DWIDTH 8 0
BBX 8 10 0 -2
BITMAP
2C
32
22
22
22
22
22
25
A0
E0
ENDCHAR
STARTCHAR 0273
ENCODING 627
SWIDTH 500 0
DWIDTH 8 0
BBX 8 10 0 -2
BITMAP
D8
64
44
44
44
44
44
A4
05
07
ENDCHAR
STARTCHAR 0275
ENCODING 629
SWIDTH 500 0
DWIDTH 8 0
BBX 6 8 1 0
BITMAP
78
C8
84
FC
84
84
48
78
ENDCHAR
STARTCHAR 0279
ENCODING 633
SWIDTH 500 0
DWIDTH 8 0
BBX 5 8 1 0
BITMAP
38
10
10
10
10
10
B0
D8
ENDCHAR
STARTCHAR 027A
ENCODING 634
SWIDTH 500 0
DWIDTH 8 0
BBX 5 12 1 0
BITMAP
38
10
10
10
10
10
10
10
10
10
A8
D0
ENDCHAR
STARTCHAR 027B
ENCODING 635
SWIDTH 500 0
DWIDTH 8 0
BBX 6 10 1 -2
BITMAP
38
10
10
10
10
10
B0
D0
14
0C
ENDCHAR
STARTCHAR 027D
ENCODING 637
SWIDTH 500 0
DWIDTH 8 0
BBX 5 10 2 -2
BITMAP
B8
40
40
40
40
40
40
40
50
70
ENDCHAR
STARTCHAR 027E
ENCODING 638
SWIDTH 500 0
DWIDTH 8 0
BBX 5 7 2 1
BITMAP
38
48
40
40
40
40
E0
ENDCHAR
STARTCHAR 0281
ENCODING 641
SWIDTH 500 0
DWIDTH 8 0
BBX 7 7 1 1
BITMAP
E6
48
50
78
44
44
F8
ENDCHAR
STARTCHAR 0282
ENCODING 642
SWIDTH 500 0
DWIDTH 8 0
BBX 6 10 1 -2
BITMAP
78
48
40
20
18
84
C4
B8
A0
60
ENDCHAR
STARTCHAR 0283
ENCODING 643
SWIDTH 500 0
DWIDTH 8 0
BBX 6 14 1 -2
BITMAP
1C
14
20
20
20
20
20
20
20
20
20
20
A0
E0
ENDCHAR
STARTCHAR 0284
ENCODING 644
SWIDTH 500 0
DWIDTH 8 0
BBX 6 14 1 -2
BITMAP
1C
14
20
20
20
20
20
20
20
78
20
20
A0
E0
ENDCHAR
STARTCHAR 0288
ENCODING 648
SWIDTH 500 0
DWIDTH 8 0
BBX 6 12 1 -2
BITMAP
20
20
F8
20
20
20
20
20
20
20
2C
18
ENDCHAR
STARTCHAR 0289
ENCODING 649
SWIDTH 500 0
DWIDTH 8 0
BBX 7 8 1 0
BITMAP
8C
84
84
FE
84
84
4C
76
ENDCHAR
STARTCHAR 028A
ENCODING 650
SWIDTH 500 0
DWIDTH 8 0
BBX 6 8 1 0
BITMAP
CC
88
84
84
84
84
48
78
ENDCHAR
STARTCHAR 028B
ENCODING 651
SWIDTH 500 0
DWIDTH 8 0
BBX 6 8 1 0
BITMAP
88
8C
84
84
84
88
48
70
ENDCHAR
STARTCHAR 028C
ENCODING 652
SWIDTH 500 0
DWIDTH 8 0
BBX 8 8 0 1
BITMAP
10
18
18
28
24
44
44
E7
ENDCHAR
STARTCHAR 028D
ENCODING 653
SWIDTH 500 0
DWIDTH 8 0
BBX 8 8 0 1
BITMAP
24
24
24
6C
5A
52
92
DB
ENDCHAR
STARTCHAR 028E
ENCODING 654
SWIDTH 500 0
DWIDTH 8 0
BBX 8 11 0 1
BITMAP
07
07
08
10
10
18
28
28
44
44
E7
ENDCHAR
STARTCHAR 0290
ENCODING 656
SWIDTH 500 0
DWIDTH 8 0
BBX 7 10 1 -2
BITMAP
F8
90
20
20
48
88
F8
08
0A
06
ENDCHAR
STARTCHAR 0291
ENCODING 657
SWIDTH 500 0
DWIDTH 8 0
BBX 6 8 1 0
BITMAP
FC
88
10
20
4C
54
FC
40
ENDCHAR
STARTCHAR 0292
ENCODING 658
SWIDTH 500 0
DWIDTH 8 0
BBX 6 10 1 -2
BITMAP
F8
90
A0
40
78
08
04
C4
88
70
ENDCHAR
STARTCHAR 0294
ENCODING 660
SWIDTH 500 0
DWIDTH 8 0
BBX 5 11 2 1
BITMAP
E0
90
08
08
10
10
60
40
40
40
E0
ENDCHAR
STARTCHAR 0295
ENCODING 661
SWIDTH 500 0
DWIDTH 8 0
BBX 5 11 1 1
BITMAP
38
48
C0
80
40
40
30
10
10
10
38
ENDCHAR
STARTCHAR 0298
ENCODING 664
SWIDTH 500 0
DWIDTH 8 0
BBX 6 8 1 0
BITMAP
78
CC
84
B4
B4
84
C8
78
ENDCHAR
STARTCHAR 029D
ENCODING 669
SWIDTH 500 0
DWIDTH 8 0
BBX 5 14 1 -2
BITMAP
30
30
00
10
30
10
10
10
10
10
10
10
F0
E8
ENDCHAR
STARTCHAR 02A1
ENCODING 673
SWIDTH 500 0
DWIDTH 8 0
BBX 5 11 2 1
BITMAP
E0
90
18
08
10
10
20
40
F0
40
E0
ENDCHAR
STARTCHAR 02A2
ENCODING 674
SWIDTH 500 0
DWIDTH 8 0
BBX 5 11 1 1
BITMAP
38
48
C0
80
40
40
20
10
78
10
38
ENDCHAR
STARTCHAR 02C7
ENCODING 711
SWIDTH 500 0
DWIDTH 8 0
BBX 6 2 1 10
BITMAP
CC
30
ENDCHAR
STARTCHAR 02C8
ENCODING 712
SWIDTH 500 0
DWIDTH 8 0
BBX 1 2 3 12
BITMAP
80
80
ENDCHAR
STARTCHAR 02CC
ENCODING 716
SWIDTH 500 0
DWIDTH 8 0
BBX 1 2 3 -1
BITMAP
80
80
ENDCHAR
STARTCHAR 02D0
ENCODING 720
SWIDTH 500 0
DWIDTH 8 0
BBX 2 7 3 1
BITMAP
C0
80
00
00
00
80
C0
ENDCHAR
STARTCHAR 02D1
ENCODING 721
SWIDTH 500 0
DWIDTH 8 0
BBX 2 2 3 6
BITMAP
C0
80
ENDCHAR
STARTCHAR 02D8
ENCODING 728
SWIDTH 500 0
DWIDTH 8 0
BBX 6 2 1 10
BITMAP
8C
78
ENDCHAR
STARTCHAR 02D9
ENCODING 729
SWIDTH 500 0
DWIDTH 8 0
BBX 2 2 3 10
BITMAP
C0
C0
ENDCHAR
STARTCHAR 02DB
ENCODING 731
SWIDTH 500 0
DWIDTH 8 0
BBX 4 3 2 0
BITMAP
60
80
F0
ENDCHAR
STARTCHAR 02DC
ENCODING 732
SWIDTH 500 0
DWIDTH 8 0
BBX 6 2 1 10
BITMAP
64
98
ENDCHAR
STARTCHAR 02DD
ENCODING 733
SWIDTH 500 0
DWIDTH 8 0
BBX 6 2 1 10
BITMAP
6C
B0
ENDCHAR
STARTCHAR 02DE
ENCODING 734
SWIDTH 500 0
DWIDTH 8 0
BBX 5 3 1 4
BITMAP
40
A8
18
ENDCHAR
STARTCHAR 02E5
ENCODING 741
SWIDTH 500 0
DWIDTH 8 0
BBX 4 16 2 -2
BITMAP
F0
10
10
10
10
10
10
10
10
10
10
10
10
10
10
10
ENDCHAR
STARTCHAR 02E6
ENCODING 742
SWIDTH 500 0
DWIDTH 8 0
BBX 4 16 2 -2
BITMAP
10
10
10
10
F0
10
10
10
10
10
10
10
10
10
10
10
ENDCHAR
STARTCHAR 02E7
ENCODING 743
SWIDTH 500 0
DWIDTH 8 0
BBX 4 16 2 -2
BITMAP
10
10
10
10
10
10
10
10
F0
10
10
10
10
10
10
10
ENDCHAR
STARTCHAR 02E8
ENCODING 744
SWIDTH 500 0
DWIDTH 8 0
BBX 4 16 2 -2
BITMAP
10
10
10
10
10
10
10
10
10
10
10
F0
10
10
10
10
ENDCHAR
STARTCHAR 02E9
ENCODING 745
SWIDTH 500 0
DWIDTH 8 0
BBX 4 16 2 -2
BITMAP
10
10
10
10
10
10
10
10
10
10
10
10
10
10
10
F0
ENDCHAR
STARTCHAR 0300
ENCODING 768
SWIDTH 500 0
DWIDTH 8 0
BBX 3 2 2 12
BITMAP
C0
20
ENDCHAR
STARTCHAR 0301
ENCODING 769
SWIDTH 500 0
DWIDTH 8 0
BBX 3 2 3 12
BITMAP
60
80
ENDCHAR
STARTCHAR 0302
ENCODING 770
SWIDTH 500 0
DWIDTH 8 0
BBX 4 2 2 12
BITMAP
60
90
ENDCHAR
STARTCHAR 0303
ENCODING 771
SWIDTH 500 0
DWIDTH 8 0
BBX 4 1 2 13
BITMAP
F0
ENDCHAR
STARTCHAR 0304
ENCODING 772
SWIDTH 500 0
DWIDTH 8 0
BBX 4 1 2 13
BITMAP
F0
ENDCHAR
STARTCHAR 0306
ENCODING 774
SWIDTH 500 0
DWIDTH 8 0
BBX 4 2 2 12
BITMAP
90
60
ENDCHAR
STARTCHAR 0308
ENCODING 776
SWIDTH 500 0
DWIDTH 8 0
BBX 4 1 2 12
BITMAP
90
ENDCHAR
STARTCHAR 030B
ENCODING 779
SWIDTH 500 0
DWIDTH 8 0
BBX 6 2 2 12
BITMAP
7C
A0
ENDCHAR
STARTCHAR 030C
ENCODING 780
SWIDTH 500 0
DWIDTH 8 0
BBX 4 2 2 12
BITMAP
90
60
ENDCHAR
STARTCHAR 030F
ENCODING 783
SWIDTH 500 0
DWIDTH 8 0
BBX 6 2 0 12
BITMAP
F8
34
ENDCHAR
STARTCHAR 0318
ENCODING 792
SWIDTH 500 0
DWIDTH 8 0
BBX 2 2 3 -2
BITMAP
C0
40
ENDCHAR
STARTCHAR 0319
ENCODING 793
SWIDTH 500 0
DWIDTH 8 0
BBX 2 2 3 -2
BITMAP
C0
80
ENDCHAR
STARTCHAR 031A
ENCODING 794
SWIDTH 500 0
DWIDTH 8 0
BBX 2 2 5 12
BITMAP
C0
40
ENDCHAR
STARTCHAR 031C
ENCODING 796
SWIDTH 500 0
DWIDTH 8 0
BBX 2 2 3 -2
BITMAP
C0
40
ENDCHAR
STARTCHAR 031D
ENCODING 797
SWIDTH 500 0
DWIDTH 8 0
BBX 2 1 3 -1
BITMAP
C0
ENDCHAR
STARTCHAR 031E
ENCODING 798
SWIDTH 500 0
DWIDTH 8 0
BBX 2 2 3 -2
BITMAP
C0
80
ENDCHAR
STARTCHAR 031F
ENCODING 799
SWIDTH 500 0
DWIDTH 8 0
BBX 2 2 3 -2
BITMAP
C0
80
ENDCHAR
STARTCHAR 0320
ENCODING 800
SWIDTH 500 0
DWIDTH 8 0
BBX 2 1 3 -1
BITMAP
C0
ENDCHAR
STARTCHAR 0324
ENCODING 804
SWIDTH 500 0
DWIDTH 8 0
BBX 4 1 2 -1
BITMAP
90
ENDCHAR
STARTCHAR 0325
ENCODING 805
SWIDTH 500 0
DWIDTH 8 0
BBX 2 2 3 -2
BITMAP
C0
C0
ENDCHAR
STARTCHAR 0329
ENCODING 809
SWIDTH 500 0
DWIDTH 8 0
BBX 1 2 3 -2
BITMAP
80
80
ENDCHAR
STARTCHAR 032A
ENCODING 810
SWIDTH 500 0
DWIDTH 8 0
BBX 4 1 2 -1
BITMAP
F0
ENDCHAR
STARTCHAR 032C
ENCODING 812
SWIDTH 500 0
DWIDTH 8 0
BBX 4 1 2 -1
BITMAP
F0
ENDCHAR
STARTCHAR 032F
ENCODING 815
SWIDTH 500 0
DWIDTH 8 0
BBX 4 2 2 -2
BITMAP
60
90
ENDCHAR
STARTCHAR 0330
ENCODING 816
SWIDTH 500 0
DWIDTH 8 0
BBX 4 1 2 -1
BITMAP
F0
ENDCHAR
STARTCHAR 0334
ENCODING 820
SWIDTH 500 0
DWIDTH 8 0
BBX 4 1 2 6
BITMAP
F0
ENDCHAR
STARTCHAR 0339
ENCODING 825
SWIDTH 500 0
DWIDTH 8 0
BBX 2 2 3 -2
BITMAP
C0
80
ENDCHAR
STARTCHAR 033A
ENCODING 826
SWIDTH 500 0
DWIDTH 8 0
BBX 4 1 2 -1
BITMAP
F0
ENDCHAR
STARTCHAR 033B
ENCODING 827
SWIDTH 500 0
DWIDTH 8 0
BBX 4 1 2 -1
BITMAP
F0
ENDCHAR
STARTCHAR 033C
ENCODING 828
SWIDTH 500 0
DWIDTH 8 0
BBX 4 1 2 -1
BITMAP
F0
ENDCHAR
STARTCHAR 033D
ENCODING 829
SWIDTH 500 0
DWIDTH 8 0
BBX 4 2 2 12
BITMAP
F0
F0
ENDCHAR
STARTCHAR 0361
ENCODING 865
SWIDTH 500 0
DWIDTH 8 0
BBX 8 2 0 12
BITMAP
3C
C3
ENDCHAR
STARTCHAR 0391
ENCODING 913
SWIDTH 1000 0
DWIDTH 16 0
BBX 12 11 2 1
BITMAP
0400
0600
0A00
0B00
0900
1180
1080
3FC0
20C0
4040
F0F0
ENDCHAR
STARTCHAR 0392
ENCODING 914
SWIDTH 1000 0
DWIDTH 16 0
BBX 10 11 3 1
BITMAP
FF00
6180
2080
2080
2100
3E00
2180
2040
2040
2080
FF00
ENDCHAR
STARTCHAR 0393
ENCODING 915
SWIDTH 1000 0
DWIDTH 16 0
BBX 10 11 3 1
BITMAP
FFC0
20C0
2040
2040
2000
2000
2000
2000
2000
2000
F800
ENDCHAR
STARTCHAR 0394
ENCODING 916
SWIDTH 1000 0
DWIDTH 16 0
BBX 10 11 3 1
BITMAP
0C00
0C00
1600
1200
2200
2100
4100
4080
8080
8040
FFC0
ENDCHAR
STARTCHAR 0395
ENCODING 917
SWIDTH 1000 0
DWIDTH 16 0
BBX 10 11 3 1
BITMAP
FF80
6080
6080
6000
6200
7E00
6200
6000
6040
60C0
FFC0
ENDCHAR
STARTCHAR 0396
ENCODING 918
SWIDTH 1000 0
DWIDTH 16 0
BBX 8 11 4 1
BITMAP
FF
81
82
04
08
18
30
21
41
81
FF
ENDCHAR
STARTCHAR 0397
ENCODING 919
SWIDTH 1000 0
DWIDTH 16 0
BBX 12 11 2 1
BITMAP
F0F0
2040
2040
2040
2040
3FC0
2040
2040
2040
2040
F0F0
ENDCHAR
STARTCHAR 0398
ENCODING 920
SWIDTH 1000 0
DWIDTH 16 0
BBX 10 11 3 1
BITMAP
1E00
6180
C0C0
8040
A140
BF40
A140
8040
C0C0
6080
1F00
ENDCHAR
STARTCHAR 0399
ENCODING 921
SWIDTH 1000 0
DWIDTH 16 0
BBX 4 11 6 1
BITMAP
F0
60
60
60
60
60
60
60
60
60
F0
ENDCHAR
STARTCHAR 039A
ENCODING 922
SWIDTH 1000 0
DWIDTH 16 0
BBX 11 11 3 1
BITMAP
F3C0
4100
4200
4400
4800
5C00
6600
4200
4100
4080
F1E0
ENDCHAR
STARTCHAR 039B
ENCODING 923
SWIDTH 1000 0
DWIDTH 16 0
BBX 12 11 2 1
BITMAP
0600
0600
0A00
0900
1100
1180
1080
2080
2040
4040
F1F0
ENDCHAR
STARTCHAR 039C
ENCODING 924
SWIDTH 1000 0
DWIDTH 16 0
BBX 14 11 1 1
BITMAP
E01C
5030
5030
5850
4850
4890
4490
4510
4310
4310
F23C
ENDCHAR
STARTCHAR 039D
ENCODING 925
SWIDTH 1000 0
DWIDTH 16 0
BBX 12 11 2 1
BITMAP
E0F0
5040
5840
4840
4440
4240
4340
41C0
40C0
4040
F040
ENDCHAR
STARTCHAR 039E
ENCODING 926
SWIDTH 1000 0
DWIDTH 16 0
BBX 10 11 3 1
BITMAP
7F80
8080
0000
0000
2100
3F00
2100
0000
0000
8040
FFC0
ENDCHAR
STARTCHAR 039F
ENCODING 927
SWIDTH 1000 0
DWIDTH 16 0
BBX 10 11 3 1
BITMAP
1E00
6180
C0C0
8040
8040
8040
8040
8040
C040
6080
1F00
ENDCHAR
STARTCHAR 03A0
ENCODING 928
SWIDTH 1000 0
DWIDTH 16 0
BBX 12 11 2 1
BITMAP
FFF0
2040
2040
2040
2040
2040
2040
2040
2040
2040
F0F0
ENDCHAR
STARTCHAR 03A1
ENCODING 929
SWIDTH 1000 0
DWIDTH 16 0
BBX 10 11 3 1
BITMAP
FF00
20C0
2040
2040
2080
3F00
2000
2000
2000
2000
F800
ENDCHAR
STARTCHAR 03A3
ENCODING 931
SWIDTH 1000 0
DWIDTH 16 0
BBX 10 11 3 1
BITMAP
FF80
4080
2080
1000
0800
0400
0800
1000
2040
4040
FFC0
ENDCHAR
STARTCHAR 03A4
ENCODING 932
SWIDTH 1000 0
DWIDTH 16 0
BBX 10 11 3 1
BITMAP
FFC0
8C40
8C40
8C40
0C00
0C00
0C00
0C00
0C00
0C00
1E00
ENDCHAR
STARTCHAR 03A5
ENCODING 933
SWIDTH 1000 0
DWIDTH 16 0
BBX 10 11 3 1
BITMAP
7380
8C40
8C40
8C40
0C00
0C00
0C00
0C00
0C00
0C00
1E00
ENDCHAR
STARTCHAR 03A6
ENCODING 934
SWIDTH 1000 0
DWIDTH 16 0
BBX 10 11 3 1
BITMAP
1E00
0C00
3F00
CCC0
8C40
8C40
8C40
CCC0
2D00
1E00
1E00
ENDCHAR
STARTCHAR 03A7
ENCODING 935
SWIDTH 1000 0
DWIDTH 16 0
BBX 12 11 2 1
BITMAP
F9E0
3080
1900
0900
0600
0600
0B00
1100
1080
2040
F0F0
ENDCHAR
STARTCHAR 03A8
ENCODING 936
SWIDTH 1000 0
DWIDTH 16 0
BBX 12 11 2 1
BITMAP
CF30
A650
2640
2640
2640
2640
2640
1780
0E00
0600
0F00
ENDCHAR
STARTCHAR 03A9
ENCODING 937
SWIDTH 1000 0
DWIDTH 16 0
BBX 10 11 3 1
BITMAP
1E00
6180
4080
C0C0
8040
8040
C0C0
4080
2100
9240
F3C0
ENDCHAR
STARTCHAR 03B1
ENCODING 945
SWIDTH 1000 0
DWIDTH 16 0
BBX 9 7 4 1
BITMAP
3900
6600
C600
8400
8400
9D00
E780
ENDCHAR
STARTCHAR 03B2
ENCODING 946
SWIDTH 1000 0
DWIDTH 16 0
BBX 8 14 3 -2
BITMAP
0E
11
11
21
21
3E
42
41
43
42
7C
40
40
C0
ENDCHAR
STARTCHAR 03B3
ENCODING 947
SWIDTH 1000 0
DWIDTH 16 0
BBX 9 10 3 -2
BITMAP
7080
9100
0A00
0A00
0C00
0800
0800
0800
0800
0800
ENDCHAR
STARTCHAR 03B4
ENCODING 948
SWIDTH 1000 0
DWIDTH 16 0
BBX 8 11 4 1
BITMAP
3C
23
20
10
0C
36
42
82
86
4C
78
ENDCHAR
STARTCHAR 03B5
ENCODING 949
SWIDTH 1000 0
DWIDTH 16 0
BBX 7 7 4 1
BITMAP
3C
42
40
38
C0
C0
7E
ENDCHAR
STARTCHAR 03B6
ENCODING 950
SWIDTH 1000 0
DWIDTH 16 0
BBX 7 14 4 -2
BITMAP
32
2C
10
20
20
40
80
80
80
C0
30
0C
24
1C
ENDCHAR
STARTCHAR 03B7
ENCODING 951
SWIDTH 1000 0
DWIDTH 16 0
BBX 8 10 3 -2
BITMAP
6E
99
11
11
21
22
42
02
02
04
ENDCHAR
STARTCHAR 03B8
ENCODING 952
SWIDTH 1000 0
DWIDTH 16 0
BBX 7 11 4 1
BITMAP
1C
32
22
42
42
FE
C2
82
84
48
70
ENDCHAR
STARTCHAR 03B9
ENCODING 953
SWIDTH 1000 0
DWIDTH 16 0
BBX 5 7 5 1
BITMAP
30
20
40
40
40
C8
70
ENDCHAR
STARTCHAR 03BA
ENCODING 954
SWIDTH 1000 0
DWIDTH 16 0
BBX 8 7 4 1
BITMAP
23
2C
50
78
48
89
8E
ENDCHAR
STARTCHAR 03BB
ENCODING 955
SWIDTH 1000 0
DWIDTH 16 0
BBX 9 11 3 1
BITMAP
1800
2400
0400
0400
0400
0C00
0C00
1400
2400
6480
C300
ENDCHAR
STARTCHAR 03BC
ENCODING 956
SWIDTH 1000 0
DWIDTH 16 0
BBX 9 11 3 -2
BITMAP
2000
1180
2100
2200
4200
4200
6680
BB80
8000
8000
8000
ENDCHAR
STARTCHAR 03BD
ENCODING 957
SWIDTH 1000 0
DWIDTH 16 0
BBX 8 8 4 0
BITMAP
E3
21
21
21
22
2C
30
40
ENDCHAR
STARTCHAR 03BE
ENCODING 958
SWIDTH 1000 0
DWIDTH 16 0
BBX 6 14 5 -2
BITMAP
4C
30
20
40
40
3C
40
80
80
80
60
18
48
70
ENDCHAR
STARTCHAR 03BF
ENCODING 959
SWIDTH 1000 0
DWIDTH 16 0
BBX 6 7 5 1
BITMAP
38
44
84
84
84
8C
78
ENDCHAR
STARTCHAR 03C0
ENCODING 960
SWIDTH 1000 0
DWIDTH 16 0
BBX 8 8 4 1
BITMAP
01
7F
A4
28
28
48
49
C6
ENDCHAR
STARTCHAR 03C1
ENCODING 961
SWIDTH 1000 0
DWIDTH 16 0
BBX 8 10 3 -2
BITMAP
0E
11
21
21
61
63
5E
40
40
C0
ENDCHAR
STARTCHAR 03C2
ENCODING 962
SWIDTH 500 0
DWIDTH 8 0
BBX 6 10 1 -2
BITMAP
78
C4
84
80
40
20
10
10
98
F0
ENDCHAR
STARTCHAR 03C3
ENCODING 963
SWIDTH 1000 0
DWIDTH 16 0
BBX 8 8 5 1
BITMAP
3F
44
84
84
84
84
CC
78
ENDCHAR
STARTCHAR 03C4
ENCODING 964
SWIDTH 1000 0
DWIDTH 16 0
BBX 8 8 4 1
BITMAP
01
7F
90
10
20
20
24
38
ENDCHAR
STARTCHAR 03C5
ENCODING 965
SWIDTH 1000 0
DWIDTH 16 0
BBX 9 7 3 1
BITMAP
7100
9180
2080
2080
2100
2300
3C00
ENDCHAR
STARTCHAR 03C6
ENCODING 966
SWIDTH 1000 0
DWIDTH 16 0
BBX 8 13 4 -2
BITMAP
04
04
08
3E
49
91
91
91
93
64
38
20
60
ENDCHAR
STARTCHAR 03C7
ENCODING 967
SWIDTH 1000 0
DWIDTH 16 0
BBX 8 10 4 -2
BITMAP
63
92
14
18
08
10
30
49
4A
86
ENDCHAR
STARTCHAR 03C8
ENCODING 968
SWIDTH 1000 0
DWIDTH 16 0
BBX 9 13 4 -2
BITMAP
0400
0400
2600
4900
8900
8980
9180
9100
9300
7400
2800
2000
2000
ENDCHAR
STARTCHAR 03C9
ENCODING 969
SWIDTH 1000 0
DWIDTH 16 0
BBX 10 7 3 1
BITMAP
3080
4040
8440
8440
8440
88C0
7780
ENDCHAR
STARTCHAR 0401
ENCODING 1025
SWIDTH 1000 0
DWIDTH 16 0
BBX 10 13 3 1
BITMAP
2100
3300
FF80
6080
6080
6000
6200
7E00
6200
6000
6040
60C0
FFC0
ENDCHAR
STARTCHAR 0410
ENCODING 1040
SWIDTH 1000 0
DWIDTH 16 0
BBX 12 11 2 1
BITMAP
0400
0600
0A00
0B00
0900
1180
1080
3FC0
20C0
4040
F0F0
ENDCHAR
STARTCHAR 0411
ENCODING 1041
SWIDTH 1000 0
DWIDTH 16 0
BBX 10 11 3 1
BITMAP
FF80
6080
2080
2000
2000
3F00
2080
2040
2040
2080
FF00
ENDCHAR
STARTCHAR 0412
ENCODING 1042
SWIDTH 1000 0
DWIDTH 16 0
BBX 10 11 3 1
BITMAP
FF00
6180
2080
2080
2100
3E00
2180
2040
2040
2080
FF00
ENDCHAR
STARTCHAR 0413
ENCODING 1043
SWIDTH 1000 0
DWIDTH 16 0
BBX 10 11 3 1
BITMAP
FFC0
20C0
2040
2040
2000
2000
2000
2000
2000
2000
F800
ENDCHAR
STARTCHAR 0414
ENCODING 1044
SWIDTH 1000 0
DWIDTH 16 0
BBX 12 13 2 -1
BITMAP
3FE0
1040
1040
1040
1040
1040
1040
2040
2040
4040
FFF0
8010
8010
ENDCHAR
STARTCHAR 0415
ENCODING 1045
SWIDTH 1000 0
DWIDTH 16 0
BBX 10 11 3 1
BITMAP
FF80
6080
6080
6000
6200
7E00
6200
6000
6040
60C0
FFC0
ENDCHAR
STARTCHAR 0416
ENCODING 1046
SWIDTH 1000 0
DWIDTH 16 0
BBX 14 11 1 1
BITMAP
6798
E31C
1320
1320
0B40
0FC0
0B40
1320
2310
2310
E79C
ENDCHAR
STARTCHAR 0417
ENCODING 1047
SWIDTH 1000 0
DWIDTH 16 0
BBX 8 11 4 1
BITMAP
3C
C2
81
01
02
3C
07
01
81
C1
FE
ENDCHAR
STARTCHAR 0418
ENCODING 1048
SWIDTH 1000 0
DWIDTH 16 0
BBX 12 11 2 1
BITMAP
F0F0
2040
2040
21C0
2240
2440
2840
3040
2040
2040
F0F0
ENDCHAR
STARTCHAR 0419
ENCODING 1049
SWIDTH 1000 0
DWIDTH 16 0
BBX 12 13 2 1
BITMAP
0900
0F00
F0F0
2040
2040
21C0
2240
2440
2840
3040
2040
2040
F0F0
ENDCHAR
STARTCHAR 041A
ENCODING 1050
SWIDTH 1000 0
DWIDTH 16 0
BBX 11 11 3 1
BITMAP
F1C0
41C0
4200
4400
4800
7C00
4600
4200
4100
4080
F1E0
ENDCHAR
STARTCHAR 041B
ENCODING 1051
SWIDTH 1000 0
DWIDTH 16 0
BBX 11 11 2 1
BITMAP
1FE0
0840
0840
0840
0840
0840
0840
0840
C840
D040
E1E0
ENDCHAR
STARTCHAR 041C
ENCODING 1052
SWIDTH 1000 0
DWIDTH 16 0
BBX 14 11 1 1
BITMAP
7038
3050
2850
2890
2C90
2490
4510
4310
4210
4210
F03C
ENDCHAR
STARTCHAR 041D
ENCODING 1053
SWIDTH 1000 0
DWIDTH 16 0
BBX 12 11 2 1
BITMAP
F0F0
2040
2040
2040
2040
3FC0
2040
2040
2040
2040
F0F0
ENDCHAR
STARTCHAR 041E
ENCODING 1054
SWIDTH 1000 0
DWIDTH 16 0
BBX 10 11 3 1
BITMAP
1E00
6180
C0C0
8040
8040
8040
8040
8040
C040
6080
1F00
ENDCHAR
STARTCHAR 041F
ENCODING 1055
SWIDTH 1000 0
DWIDTH 16 0
BBX 12 11 2 1
BITMAP
FFF0
2040
2040
2040
2040
2040
2040
2040
2040
2040
F0F0
ENDCHAR
STARTCHAR 0420
ENCODING 1056
SWIDTH 1000 0
DWIDTH 16 0
BBX 10 11 3 1
BITMAP
FF00
20C0
2040
2040
2080
3F00
2000
2000
2000
2000
F800
ENDCHAR
STARTCHAR 0421
ENCODING 1057
SWIDTH 1000 0
DWIDTH 16 0
BBX 10 11 3 1
BITMAP
1F00
20C0
4040
C000
8000
8000
8000
8000
4040
60C0
1FC0
ENDCHAR
STARTCHAR 0422
ENCODING 1058
SWIDTH 1000 0
DWIDTH 16 0
BBX 10 11 3 1
BITMAP
FFC0
8C40
8C40
8C40
0C00
0C00
0C00
0C00
0C00
0C00
1E00
ENDCHAR
STARTCHAR 0423
ENCODING 1059
SWIDTH 1000 0
DWIDTH 16 0
BBX 11 11 3 1
BITMAP
F1E0
2080
2100
1100
1200
0A00
0C00
0400
0800
C800
7000
ENDCHAR
STARTCHAR 0424
ENCODING 1060
SWIDTH 1000 0
DWIDTH 16 0
BBX 10 11 3 1
BITMAP
1E00
0C00
3F00
CCC0
8C40
8C40
8C40
CCC0
2D00
1E00
1E00
ENDCHAR
STARTCHAR 0425
ENCODING 1061
SWIDTH 1000 0
DWIDTH 16 0
BBX 12 11 2 1
BITMAP
F9E0
3080
1900
0900
0600
0600
0B00
1100
1080
2040
F0F0
ENDCHAR
STARTCHAR 0426
ENCODING 1062
SWIDTH 1000 0
DWIDTH 16 0
BBX 12 13 2 -1
BITMAP
F1E0
2040
2040
2040
2040
2040
2040
2040
2040
2040
FFF0
0010
0010
ENDCHAR
STARTCHAR 0427
ENCODING 1063
SWIDTH 1000 0
DWIDTH 16 0
BBX 10 11 3 1
BITMAP
F3C0
4080
4080
4080
4080
6180
3E80
0080
0080
0080
03C0
ENDCHAR
STARTCHAR 0428
ENCODING 1064
SWIDTH 1000 0
DWIDTH 16 0
BBX 14 11 1 1
BITMAP
F7BC
2310
2310
2310
2310
2310
2310
2310
2310
2310
FFFC
ENDCHAR
STARTCHAR 0429
ENCODING 1065
SWIDTH 1000 0
DWIDTH 16 0
BBX 14 13 1 -1
BITMAP
F7BC
6210
6210
6210
6210
6210
6210
6210
6210
6210
FFFC
0004
0004
ENDCHAR
STARTCHAR 042A
ENCODING 1066
SWIDTH 1000 0
DWIDTH 16 0
BBX 12 11 2 1
BITMAP
FE00
8800
8800
0800
0800
0FC0
0830
0810
0810
0830
3FE0
ENDCHAR
STARTCHAR 042B
ENCODING 1067
SWIDTH 1000 0
DWIDTH 16 0
BBX 14 11 1 1
BITMAP
F83C
2010
2010
2010
2010
3F10
2090
20D0
20D0
2190
FF3C
ENDCHAR
STARTCHAR 042C
ENCODING 1068
SWIDTH 1000 0
DWIDTH 16 0
BBX 10 11 3 1
BITMAP
F000
2000
2000
2000
2000
3F00
20C0
2040
2040
20C0
FF00
ENDCHAR
STARTCHAR 042D
ENCODING 1069
SWIDTH 1000 0
DWIDTH 16 0
BBX 10 11 3 1
BITMAP
3E00
C300
8080
00C0
0040
3840
47C0
0040
80C0
C180
FE00
ENDCHAR
STARTCHAR 042E
ENCODING 1070
SWIDTH 1000 0
DWIDTH 16 0
BBX 14 11 1 1
BITMAP
F1E0
2210
2608
2408
2408
3C0C
2408
2408
2608
2310
F1E0
ENDCHAR
STARTCHAR 042F
ENCODING 1071
SWIDTH 1000 0
DWIDTH 16 0
BBX 11 11 2 1
BITMAP
1FE0
30C0
2040
2040
3040
0FC0
0440
0840
1840
3040
C1E0
ENDCHAR
STARTCHAR 0430
ENCODING 1072
SWIDTH 1000 0
DWIDTH 16 0
BBX 8 7 5 1
BITMAP
F8
88
04
3C
C4
84
FF
ENDCHAR
STARTCHAR 0431
ENCODING 1073
SWIDTH 1000 0
DWIDTH 16 0
BBX 8 11 4 1
BITMAP
01
1E
60
40
BC
C2
81
81
C3
42
3C
ENDCHAR
STARTCHAR 0432
ENCODING 1074
SWIDTH 1000 0
DWIDTH 16 0
BBX 8 7 4 1
BITMAP
FC
42
42
7C
43
42
FC
ENDCHAR
STARTCHAR 0433
ENCODING 1075
SWIDTH 1000 0
DWIDTH 16 0
BBX 8 7 4 1
BITMAP
FF
21
21
20
20
20
F0
ENDCHAR
STARTCHAR 0434
ENCODING 1076
SWIDTH 1000 0
DWIDTH 16 0
BBX 10 9 3 -1
BITMAP
3F80
1100
1100
1100
2100
4100
FFC0
8040
8040
ENDCHAR
STARTCHAR 0435
ENCODING 1077
SWIDTH 1000 0
DWIDTH 16 0
BBX 8 7 4 1
BITMAP
3C
42
C2
FF
80
40
3E
ENDCHAR
STARTCHAR 0436
ENCODING 1078
SWIDTH 1000 0
DWIDTH 16 0
BBX 12 7 2 1
BITMAP
CF30
24C0
1480
1F80
2440
2440
EF70
ENDCHAR
STARTCHAR 0437
ENCODING 1079
SWIDTH 1000 0
DWIDTH 16 0
BBX 6 7 5 1
BITMAP
F8
84
04
38
0C
84
F8
ENDCHAR
STARTCHAR 0438
ENCODING 1080
SWIDTH 1000 0
DWIDTH 16 0
BBX 10 7 3 1
BITMAP
F3C0
2100
2700
2900
3100
2100
F3C0
ENDCHAR
STARTCHAR 0439
ENCODING 1081
SWIDTH 1000 0
DWIDTH 16 0
BBX 10 10 3 1
BITMAP
1200
1E00
0000
F3C0
2100
2700
2900
3100
2100
F3C0
ENDCHAR
STARTCHAR 043A
ENCODING 1082
SWIDTH 1000 0
DWIDTH 16 0
BBX 9 7 4 1
BITMAP
E300
4400
4800
7800
4400
4200
E780
ENDCHAR
STARTCHAR 043B
ENCODING 1083
SWIDTH 1000 0
DWIDTH 16 0
BBX 9 7 3 1
BITMAP
3F80
1100
1100
1100
1100
9100
E380
ENDCHAR
STARTCHAR 043C
ENCODING 1084
SWIDTH 1000 0
DWIDTH 16 0
BBX 10 7 3 1
BITMAP
E1C0
6280
6280
5280
5480
4C80
E9C0
ENDCHAR
STARTCHAR 043D
ENCODING 1085
SWIDTH 1000 0
DWIDTH 16 0
BBX 10 7 3 1
BITMAP
F3C0
2100
2100
3F00
2100
2100
F3C0
ENDCHAR
STARTCHAR 043E
ENCODING 1086
SWIDTH 1000 0
DWIDTH 16 0
BBX 8 7 4 1
BITMAP
3C
42
C1
81
C3
42
3C
ENDCHAR
STARTCHAR 043F
ENCODING 1087
SWIDTH 1000 0
DWIDTH 16 0
BBX 10 7 3 1
BITMAP
FFC0
2100
2100
2100
2100
2100
F3C0
ENDCHAR
STARTCHAR 0440
ENCODING 1088
SWIDTH 1000 0
DWIDTH 16 0
BBX 8 10 4 -2
BITMAP
FC
42
41
41
41
42
7C
40
40
E0
ENDCHAR
STARTCHAR 0441
ENCODING 1089
SWIDTH 1000 0
DWIDTH 16 0
BBX 7 7 4 1
BITMAP
3C
62
C0
80
80
42
3C
ENDCHAR
STARTCHAR 0442
ENCODING 1090
SWIDTH 1000 0
DWIDTH 16 0
BBX 8 7 4 1
BITMAP
FF
99
99
18
18
18
3C
ENDCHAR
STARTCHAR 0443
ENCODING 1091
SWIDTH 1000 0
DWIDTH 16 0
BBX 9 10 4 -2
BITMAP
E780
4200
2200
2400
1400
0800
0800
5000
5000
6000
ENDCHAR
STARTCHAR 0444
ENCODING 1092
SWIDTH 1000 0
DWIDTH 16 0
BBX 10 14 3 -2
BITMAP
0C00
1C00
0400
0400
3F00
4480
44C0
C4C0
44C0
4480
3F00
0400
0C00
1E00
ENDCHAR
STARTCHAR 0445
ENCODING 1093
SWIDTH 1000 0
DWIDTH 16 0
BBX 10 7 3 1
BITMAP
F380
1200
0C00
0C00
1600
2300
F3C0
ENDCHAR
STARTCHAR 0446
ENCODING 1094
SWIDTH 1000 0
DWIDTH 16 0
BBX 9 9 3 -1
BITMAP
F380
2100
2100
2100
2100
2100
FF80
0080
0080
ENDCHAR
STARTCHAR 0447
ENCODING 1095
SWIDTH 1000 0
DWIDTH 16 0
BBX 9 7 3 1
BITMAP
F380
2100
2100
2100
1F00
0100
0380
ENDCHAR
STARTCHAR 0448
ENCODING 1096
SWIDTH 1000 0
DWIDTH 16 0
BBX 12 7 2 1
BITMAP
EF70
4220
4220
4220
4220
4620
FFF0
ENDCHAR
STARTCHAR 0449
ENCODING 1097
SWIDTH 1000 0
DWIDTH 16 0
BBX 12 9 2 -1
BITMAP
EF70
4220
4220
4220
4220
4620
FFF0
0010
0010
ENDCHAR
STARTCHAR 044A
ENCODING 1098
SWIDTH 1000 0
DWIDTH 16 0
BBX 8 7 4 1
BITMAP
F0
A0
20
3E
21
21
7F
ENDCHAR
STARTCHAR 044B
ENCODING 1099
SWIDTH 1000 0
DWIDTH 16 0
BBX 12 7 2 1
BITMAP
F0F0
2040
2040
3E40
2140
2140
FEF0
ENDCHAR
STARTCHAR 044C
ENCODING 1100
SWIDTH 1000 0
DWIDTH 16 0
BBX 8 7 4 1
BITMAP
F0
40
40
7E
41
41
FE
ENDCHAR
STARTCHAR 044D
ENCODING 1101
SWIDTH 1000 0
DWIDTH 16 0
BBX 8 7 4 1
BITMAP
7C
42
01
7F
01
02
FC
ENDCHAR
STARTCHAR 044E
ENCODING 1102
SWIDTH 1000 0
DWIDTH 16 0
BBX 12 7 2 1
BITMAP
F3C0
4420
4C30
7810
4C30
4420
F3C0
ENDCHAR
STARTCHAR 044F
ENCODING 1103
SWIDTH 1000 0
DWIDTH 16 0
BBX 8 7 4 1
BITMAP
7F
42
42
7E
32
22
C7
ENDCHAR
STARTCHAR 0451
ENCODING 1105
SWIDTH 1000 0
DWIDTH 16 0
BBX 8 10 4 1
BITMAP
66
66
00
3C
42
C2
FF
80
40
3E
ENDCHAR
STARTCHAR 1E3E
ENCODING 7742
SWIDTH 500 0
DWIDTH 8 0
BBX 8 13 0 1
BITMAP
0C
10
C3
66
66
66
6A
6A
5A
5A
52
52
D7
ENDCHAR
STARTCHAR 1E3F
ENCODING 7743
SWIDTH 500 0
DWIDTH 8 0
BBX 8 10 0 1
BITMAP
0C
10
00
F6
5A
52
52
52
52
DB
ENDCHAR
STARTCHAR 1F70
ENCODING 8048
SWIDTH 500 0
DWIDTH 8 0
BBX 6 11 1 0
BITMAP
60
10
00
78
C8
88
88
88
88
4C
74
ENDCHAR
STARTCHAR 1F71
ENCODING 8049
SWIDTH 500 0
DWIDTH 8 0
BBX 6 11 1 0
BITMAP
18
20
00
78
C8
88
88
88
88
4C
74
ENDCHAR
STARTCHAR 1F72
ENCODING 8050
SWIDTH 500 0
DWIDTH 8 0
BBX 6 11 1 0
BITMAP
60
10
00
7C
44
40
30
C0
84
C4
78
ENDCHAR
STARTCHAR 1F73
ENCODING 8051
SWIDTH 500 0
DWIDTH 8 0
BBX 6 11 1 0
BITMAP
18
20
00
7C
44
40
30
C0
84
C4
78
ENDCHAR
STARTCHAR 2010
ENCODING 8208
SWIDTH 1000 0
DWIDTH 16 0
BBX 6 1 5 5
BITMAP
FC
ENDCHAR
STARTCHAR 2013
ENCODING 8211
SWIDTH 500 0
DWIDTH 8 0
BBX 4 1 2 5
BITMAP
F0
ENDCHAR
STARTCHAR 2014
ENCODING 8212
SWIDTH 1000 0
DWIDTH 16 0
BBX 14 1 1 5
BITMAP
FFFC
ENDCHAR
STARTCHAR 2015
ENCODING 8213
SWIDTH 1000 0
DWIDTH 16 0
BBX 14 1 1 5
BITMAP
FFFC
ENDCHAR
STARTCHAR 2016
ENCODING 8214
SWIDTH 1000 0
DWIDTH 16 0
BBX 4 16 6 -2
BITMAP
90
90
90
90
90
90
90
90
90
90
90
90
90
90
90
90
ENDCHAR
STARTCHAR 2018
ENCODING 8216
SWIDTH 1000 0
DWIDTH 16 0
BBX 3 4 12 9
BITMAP
60
40
E0
40
ENDCHAR
STARTCHAR 2019
ENCODING 8217
SWIDTH 1000 0
DWIDTH 16 0
BBX 3 4 1 9
BITMAP
40
E0
40
80
ENDCHAR
STARTCHAR 201C
ENCODING 8220
SWIDTH 1000 0
DWIDTH 16 0
BBX 6 4 9 9
BITMAP
6C
88
DC
C8
ENDCHAR
STARTCHAR 201D
ENCODING 8221
SWIDTH 1000 0
DWIDTH 16 0
BBX 6 4 1 9
BITMAP
4C
EC
48
98
ENDCHAR
STARTCHAR 2020
ENCODING 8224
SWIDTH 1000 0
DWIDTH 16 0
BBX 6 14 5 -1
BITMAP
30
30
FC
FC
10
30
30
20
20
20
20
20
20
20
ENDCHAR
STARTCHAR 2021
ENCODING 8225
SWIDTH 1000 0
DWIDTH 16 0
BBX 6 15 5 -1
BITMAP
30
30
30
FC
30
20
20
20
20
20
30
EC
FC
30
30
ENDCHAR
STARTCHAR 2022
ENCODING 8226
SWIDTH 500 0
DWIDTH 8 0
BBX 4 3 2 4
BITMAP
70
E0
60
ENDCHAR
STARTCHAR 2025
ENCODING 8229
SWIDTH 1000 0
DWIDTH 16 0
BBX 10 2 3 5
BITMAP
C0C0
C0C0
ENDCHAR
STARTCHAR 2026
ENCODING 8230
SWIDTH 1000 0
DWIDTH 16 0
BBX 12 2 2 5
BITMAP
C630
C630
ENDCHAR
STARTCHAR 2030
ENCODING 8240
SWIDTH 1000 0
DWIDTH 16 0
BBX 14 14 1 -1
BITMAP
0100
6100
9200
9200
9400
9400
6800
0B18
14A4
14A4
24A4
24A4
4718
4000
ENDCHAR
STARTCHAR 2032
ENCODING 8242
SWIDTH 1000 0
DWIDTH 16 0
BBX 2 4 1 9
BITMAP
40
80
80
80
ENDCHAR
STARTCHAR 2033
ENCODING 8243
SWIDTH 1000 0
DWIDTH 16 0
BBX 4 4 1 9
BITMAP
50
90
A0
A0
ENDCHAR
STARTCHAR 203B
ENCODING 8251
SWIDTH 1000 0
DWIDTH 16 0
BBX 12 12 2 0
BITMAP
8610
4620
2040
1080
0900
C630
C630
0900
1080
2040
4620
8610
ENDCHAR
STARTCHAR 203C
ENCODING 8252
SWIDTH 500 0
DWIDTH 8 0
BBX 5 14 2 -1
BITMAP
90
90
90
90
90
90
90
90
90
90
00
00
90
98
ENDCHAR
STARTCHAR 203E
ENCODING 8254
SWIDTH 1000 0
DWIDTH 16 0
BBX 0 0 0 14
BITMAP
ENDCHAR
STARTCHAR 203F
ENCODING 8255
SWIDTH 500 0
DWIDTH 8 0
BBX 6 1 1 -1
BITMAP
FC
ENDCHAR
STARTCHAR 2042
ENCODING 8258
SWIDTH 500 0
DWIDTH 8 0
BBX 8 10 0 1
BITMAP
10
34
18
34
00
44
DD
66
FF
44
ENDCHAR
STARTCHAR 2047
ENCODING 8263
SWIDTH 500 0
DWIDTH 8 0
BBX 8 14 0 -1
BITMAP
66
BB
99
5D
22
22
24
44
44
44
00
00
66
66
ENDCHAR
STARTCHAR 2048
ENCODING 8264
SWIDTH 500 0
DWIDTH 8 0
BBX 7 14 0 -1
BITMAP
76
96
D6
56
12
12
22
24
24
24
00
00
26
66
ENDCHAR
STARTCHAR 2049
ENCODING 8265
SWIDTH 500 0
DWIDTH 8 0
BBX 6 14 1 -1
BITMAP
D8
E4
F4
F4
84
88
88
90
90
90
00
00
D8
D8
ENDCHAR
STARTCHAR 2051
ENCODING 8273
SWIDTH 1000 0
DWIDTH 16 0
BBX 4 12 6 0
BITMAP
40
D0
60
D0
40
00
00
40
D0
60
F0
40
ENDCHAR
STARTCHAR 20AC
ENCODING 8364
SWIDTH 500 0
DWIDTH 8 0
BBX 7 12 0 0
BITMAP
1E
32
22
20
7C
20
F8
20
22
22
34
1C
ENDCHAR
STARTCHAR 2103
ENCODING 8451
SWIDTH 1000 0
DWIDTH 16 0
BBX 13 12 1 1
BITMAP
E000
A3F0
EC10
0810
1000
1000
1000
1000
1008
1808
0C10
03E0
ENDCHAR
STARTCHAR 210F
ENCODING 8463
SWIDTH 500 0
DWIDTH 8 0
BBX 7 12 1 0
BITMAP
60
20
38
40
D8
68
48
48
88
8C
8E
0C
ENDCHAR
STARTCHAR 2113
ENCODING 8467
SWIDTH 500 0
DWIDTH 8 0
BBX 7 12 0 0
BITMAP
0C
0A
12
14
24
24
28
30
22
62
A4
18
ENDCHAR
STARTCHAR 2116
ENCODING 8470
SWIDTH 1000 0
DWIDTH 16 0
BBX 14 11 1 1
BITMAP
C600
4400
A400
A4E0
9490
9510
8D10
8D10
8D10
8494
C4EC
ENDCHAR
STARTCHAR 2121
ENCODING 8481
SWIDTH 1000 0
DWIDTH 16 0
BBX 14 11 1 1
BITMAP
F800
A800
A800
27B0
2290
2210
2290
2390
2290
2294
77BC
ENDCHAR
STARTCHAR 2127
ENCODING 8487
SWIDTH 500 0
DWIDTH 8 0
BBX 6 12 1 0
BITMAP
CC
D4
48
88
84
84
84
84
84
84
48
30
ENDCHAR
STARTCHAR 212B
ENCODING 8491
SWIDTH 1000 0
DWIDTH 16 0
BBX 12 13 2 1
BITMAP
0E00
0A00
0600
0600
0600
0A00
0900
1100
1180
1F80
2080
2040
F1F0
ENDCHAR
STARTCHAR 2135
ENCODING 8501
SWIDTH 500 0
DWIDTH 8 0
BBX 6 12 1 0
BITMAP
88
88
44
4C
30
F0
90
88
88
84
84
08
ENDCHAR
STARTCHAR 2153
ENCODING 8531
SWIDTH 500 0
DWIDTH 8 0
BBX 6 14 1 -1
BITMAP
84
84
88
88
90
90
A0
7C
24
48
44
84
94
9C
ENDCHAR
STARTCHAR 2154
ENCODING 8532
SWIDTH 500 0
DWIDTH 8 0
BBX 6 15 1 -1
BITMAP
C0
A4
A4
48
48
90
B0
E0
3C
24
48
44
84
94
9C
ENDCHAR
STARTCHAR 2155
ENCODING 8533
SWIDTH 500 0
DWIDTH 8 0
BBX 6 14 1 -1
BITMAP
84
84
88
88
90
90
A0
7C
30
50
5C
84
84
9C
ENDCHAR
STARTCHAR 2160
ENCODING 8544
SWIDTH 1000 0
DWIDTH 16 0
BBX 4 11 6 1
BITMAP
F0
60
60
60
60
60
60
60
60
60
F0
ENDCHAR
STARTCHAR 2161
ENCODING 8545
SWIDTH 1000 0
DWIDTH 16 0
BBX 10 11 3 1
BITMAP
FFC0
2100
2100
2100
2100
2100
2100
2100
2100
2100
FFC0
ENDCHAR
STARTCHAR 2162
ENCODING 8546
SWIDTH 1000 0
DWIDTH 16 0
BBX 12 11 2 1
BITMAP
FFF0
4620
4620
4620
4620
4620
4620
4620
4620
4620
FFF0
ENDCHAR
STARTCHAR 2163
ENCODING 8547
SWIDTH 1000 0
DWIDTH 16 0
BBX 14 11 1 1
BITMAP
FF1C
2608
2208
2210
2110
2120
2120
20A0
20C0
20C0
F840
ENDCHAR
STARTCHAR 2164
ENCODING 8548
SWIDTH 1000 0
DWIDTH 16 0
BBX 12 11 2 1
BITMAP
F8F0
2040
2040
1080
1080
1880
0900
0D00
0600
0600
0200
ENDCHAR
STARTCHAR 2165
ENCODING 8549
SWIDTH 1000 0
DWIDTH 16 0
BBX 14 11 1 1
BITMAP
F1FC
4090
6110
2110
2210
1210
1210
1410
0C10
0C10
087C
ENDCHAR
STARTCHAR 2166
ENCODING 8550
SWIDTH 1000 0
DWIDTH 16 0
BBX 15 11 0 1
BITMAP
F3FE
2124
2124
3124
1224
1224
1224
0C24
0C24
0C24
047E
ENDCHAR
STARTCHAR 2167
ENCODING 8551
SWIDTH 1000 0
DWIDTH 16 0
BBX 15 11 0 1
BITMAP
F3FE
2154
2254
2254
1254
1454
1454
1454
0C54
0854
08FE
ENDCHAR
STARTCHAR 2168
ENCODING 8552
SWIDTH 1000 0
DWIDTH 16 0
BBX 14 11 1 1
BITMAP
FFBC
2210
2120
21A0
20C0
2040
20E0
2120
2210
2218
FF3C
ENDCHAR
STARTCHAR 2169
ENCODING 8553
SWIDTH 1000 0
DWIDTH 16 0
BBX 12 11 2 1
BITMAP
F9E0
3080
1900
0900
0600
0600
0B00
1100
1080
2040
F0F0
ENDCHAR
STARTCHAR 216A
ENCODING 8554
SWIDTH 1000 0
DWIDTH 16 0
BBX 14 11 1 1
BITMAP
F3FC
2110
1210
1410
0C10
0810
1410
1210
2210
2110
F3FC
ENDCHAR
STARTCHAR 216B
ENCODING 8555
SWIDTH 1000 0
DWIDTH 16 0
BBX 15 11 0 1
BITMAP
7BFE
1124
1224
0C24
0C24
0424
0C24
1224
2124
2124
F3FE
ENDCHAR
STARTCHAR 2170
ENCODING 8560
SWIDTH 1000 0
DWIDTH 16 0
BBX 4 11 6 1
BITMAP
60
60
00
60
E0
20
20
20
20
20
F0
ENDCHAR
STARTCHAR 2171
ENCODING 8561
SWIDTH 1000 0
DWIDTH 16 0
BBX 8 11 4 1
BITMAP
42
42
00
42
C6
42
42
42
42
42
E7
ENDCHAR
STARTCHAR 2172
ENCODING 8562
SWIDTH 1000 0
DWIDTH 16 0
BBX 12 11 2 1
BITMAP
6660
6660
0000
EEE0
2220
2220
2220
2220
2220
2220
FFF0
ENDCHAR
STARTCHAR 2173
ENCODING 8563
SWIDTH 1000 0
DWIDTH 16 0
BBX 12 11 2 1
BITMAP
6000
2000
0000
0000
EE70
2420
2220
2240
2140
2180
F080
ENDCHAR
STARTCHAR 2174
ENCODING 8564
SWIDTH 1000 0
DWIDTH 16 0
BBX 9 7 3 1
BITMAP
F380
2100
3100
1200
1A00
0C00
0C00
ENDCHAR
STARTCHAR 2175
ENCODING 8565
SWIDTH 1000 0
DWIDTH 16 0
BBX 12 11 2 1
BITMAP
0060
0060
0000
0000
E7E0
4220
6420
2420
2820
1820
10F0
ENDCHAR
STARTCHAR 2176
ENCODING 8566
SWIDTH 1000 0
DWIDTH 16 0
BBX 14 11 1 1
BITMAP
00C8
0058
0000
0000
E7D8
4248
2448
2448
1448
1848
08FC
ENDCHAR
STARTCHAR 2177
ENCODING 8567
SWIDTH 1000 0
DWIDTH 16 0
BBX 14 11 1 1
BITMAP
01A8
01A8
0000
0000
E7F8
44A8
44A8
28A8
28A8
10A8
13FC
ENDCHAR
STARTCHAR 2178
ENCODING 8568
SWIDTH 1000 0
DWIDTH 16 0
BBX 13 11 2 1
BITMAP
6000
2000
0000
0000
EF70
2240
2180
2080
2340
2260
FE78
ENDCHAR
STARTCHAR 2179
ENCODING 8569
SWIDTH 1000 0
DWIDTH 16 0
BBX 10 7 3 1
BITMAP
F380
1200
0C00
0C00
1600
2300
F3C0
ENDCHAR
STARTCHAR 217A
ENCODING 8570
SWIDTH 1000 0
DWIDTH 16 0
BBX 12 11 2 1
BITMAP
0060
0060
0000
0000
F7E0
2420
1820
1820
2820
4420
EFF0
ENDCHAR
STARTCHAR 217B
ENCODING 8571
SWIDTH 1000 0
DWIDTH 16 0
BBX 14 11 1 1
BITMAP
00C8
0058
0000
0000
F7D8
1448
1848
1848
2448
4448
E7FC
ENDCHAR
STARTCHAR 2190
ENCODING 8592
SWIDTH 1000 0
DWIDTH 16 0
BBX 14 6 1 3
BITMAP
1800
2000
4000
FFFC
4000
3800
ENDCHAR
STARTCHAR 2191
ENCODING 8593
SWIDTH 1000 0
DWIDTH 16 0
BBX 6 14 5 -1
BITMAP
20
30
68
A4
A4
20
20
20
20
20
20
20
20
20
ENDCHAR
STARTCHAR 2192
ENCODING 8594
SWIDTH 1000 0
DWIDTH 16 0
BBX 14 6 1 3
BITMAP
0060
0010
0008
FFFC
0008
0070
ENDCHAR
STARTCHAR 2193
ENCODING 8595
SWIDTH 1000 0
DWIDTH 16 0
BBX 6 14 5 -1
BITMAP
20
20
20
20
20
20
20
20
20
A4
A4
68
30
20
ENDCHAR
STARTCHAR 2194
ENCODING 8596
SWIDTH 500 0
DWIDTH 8 0
BBX 8 5 0 3
BITMAP
24
42
FF
42
24
ENDCHAR
STARTCHAR 2196
ENCODING 8598
SWIDTH 500 0
DWIDTH 8 0
BBX 6 12 1 0
BITMAP
40
70
A8
A4
90
10
10
08
08
08
04
04
ENDCHAR
STARTCHAR 2197
ENCODING 8599
SWIDTH 500 0
DWIDTH 8 0
BBX 6 12 1 0
BITMAP
08
38
54
94
24
20
20
40
40
80
80
80
ENDCHAR
STARTCHAR 2198
ENCODING 8600
SWIDTH 500 0
DWIDTH 8 0
BBX 6 12 1 0
BITMAP
80
80
40
40
40
20
20
24
14
D8
38
08
ENDCHAR
STARTCHAR 2199
ENCODING 8601
SWIDTH 500 0
DWIDTH 8 0
BBX 6 12 1 0
BITMAP
04
04
08
08
08
10
10
A0
A0
AC
70
40
ENDCHAR
STARTCHAR 21C4
ENCODING 8644
SWIDTH 500 0
DWIDTH 8 0
BBX 6 12 1 0
BITMAP
30
08
FC
08
08
10
20
40
FC
40
40
30
ENDCHAR
STARTCHAR 21D2
ENCODING 8658
SWIDTH 1000 0
DWIDTH 16 0
BBX 14 8 1 2
BITMAP
0040
0020
FFF0
000C
000C
FFF0
0020
0040
ENDCHAR
STARTCHAR 21D4
ENCODING 8660
SWIDTH 1000 0
DWIDTH 16 0
BBX 14 8 1 2
BITMAP
0840
1020
3FF0
C00C
C00C
3FF0
1020
0840
ENDCHAR
STARTCHAR 21E6
ENCODING 8678
SWIDTH 500 0
DWIDTH 8 0
BBX 6 6 1 3
BITMAP
20
60
9C
BC
60
20
ENDCHAR
STARTCHAR 21E7
ENCODING 8679
SWIDTH 500 0
DWIDTH 8 0
BBX 6 13 1 0
BITMAP
20
50
50
88
78
B4
30
30
30
30
30
30
30
ENDCHAR
STARTCHAR 21E8
ENCODING 8680
SWIDTH 500 0
DWIDTH 8 0
BBX 6 6 1 3
BITMAP
10
18
E4
F8
18
10
ENDCHAR
STARTCHAR 21E9
ENCODING 8681
SWIDTH 500 0
DWIDTH 8 0
BBX 6 12 1 0
BITMAP
30
30
30
30
30
30
30
30
CC
48
50
30
ENDCHAR
STARTCHAR 2200
ENCODING 8704
SWIDTH 1000 0
DWIDTH 16 0
BBX 14 14 1 -1
BITMAP
8004
8008
4008
4010
2010
1FE0
1020
1040
0840
0880
0480
0500
0300
0200
ENDCHAR
STARTCHAR 2202
ENCODING 8706
SWIDTH 1000 0
DWIDTH 16 0
BBX 8 12 4 0
BITMAP
1C
62
03
01
01
3D
63
42
82
C6
44
38
ENDCHAR
STARTCHAR 2203
ENCODING 8707
SWIDTH 1000 0
DWIDTH 16 0
BBX 11 12 2 0
BITMAP
FFE0
0020
0020
0020
0020
0020
FFE0
0020
0020
0020
0020
FFE0
ENDCHAR
STARTCHAR 2205
ENCODING 8709
SWIDTH 500 0
DWIDTH 8 0
BBX 6 8 1 2
BITMAP
0C
78
94
94
A4
A4
78
80
ENDCHAR
STARTCHAR 2207
ENCODING 8711
SWIDTH 1000 0
DWIDTH 16 0
BBX 12 12 2 0
BITMAP
FFF0
4020
4020
2040
2040
1080
1080
0900
0900
0600
0600
0400
ENDCHAR
STARTCHAR 2208
ENCODING 8712
SWIDTH 1000 0
DWIDTH 16 0
BBX 12 11 2 1
BITMAP
1FF0
3000
4000
8000
8000
8000
FFF0
8000
8000
6000
1FF0
ENDCHAR
STARTCHAR 2209
ENCODING 8713
SWIDTH 500 0
DWIDTH 8 0
BBX 6 11 1 1
BITMAP
08
3C
50
90
90
90
FC
A0
A0
60
3C
ENDCHAR
STARTCHAR 220B
ENCODING 8715
SWIDTH 1000 0
DWIDTH 16 0
BBX 12 11 2 1
BITMAP
FF80
00C0
0020
0010
0010
0010
FFF0
0010
0020
0040
FF80
ENDCHAR
STARTCHAR 2212
ENCODING 8722
SWIDTH 500 0
DWIDTH 8 0
BBX 6 1 1 5
BITMAP
FC
ENDCHAR
STARTCHAR 2213
ENCODING 8723
SWIDTH 500 0
DWIDTH 8 0
BBX 6 10 1 1
BITMAP
FC
00
20
20
20
20
FC
20
20
20
ENDCHAR
STARTCHAR 221A
ENCODING 8730
SWIDTH 1000 0
DWIDTH 16 0
BBX 15 15 1 -1
BITMAP
03FE
0200
0200
0400
0400
0400
0800
8800
8800
D000
D000
5000
2000
2000
4000
ENDCHAR
STARTCHAR 221D
ENCODING 8733
SWIDTH 1000 0
DWIDTH 16 0
BBX 14 6 1 3
BITMAP
3870
4488
8304
8300
448C
7870
ENDCHAR
STARTCHAR 221E
ENCODING 8734
SWIDTH 1000 0
DWIDTH 16 0
BBX 14 6 1 3
BITMAP
3870
4488
8304
8304
4488
3870
ENDCHAR
STARTCHAR 221F
ENCODING 8735
SWIDTH 1000 0
DWIDTH 16 0
BBX 13 13 2 0
BITMAP
8000
8000
8000
8000
8000
8000
8000
8000
8000
8000
8000
8000
FFF8
ENDCHAR
STARTCHAR 2220
ENCODING 8736
SWIDTH 1000 0
DWIDTH 16 0
BBX 14 13 1 0
BITMAP
0004
0008
0010
0020
0040
0080
0100
0200
0400
0800
1000
2000
FFFC
ENDCHAR
STARTCHAR 2225
ENCODING 8741
SWIDTH 1000 0
DWIDTH 16 0
BBX 8 14 4 -1
BITMAP
0D
0A
0A
12
14
14
24
28
28
48
50
50
90
A0
ENDCHAR
STARTCHAR 2226
ENCODING 8742
SWIDTH 500 0
DWIDTH 8 0
BBX 8 14 0 -1
BITMAP
0B
0A
0A
92
54
34
14
28
2C
4A
52
50
50
90
ENDCHAR
STARTCHAR 2227
ENCODING 8743
SWIDTH 1000 0
DWIDTH 16 0
BBX 14 13 1 0
BITMAP
0200
0300
0500
0480
0840
0840
1020
1020
2010
2010
4008
4008
8004
ENDCHAR
STARTCHAR 2228
ENCODING 8744
SWIDTH 1000 0
DWIDTH 16 0
BBX 14 13 1 0
BITMAP
8004
4008
4008
2010
2010
1020
1020
0840
0840
0480
0500
0300
0200
ENDCHAR
STARTCHAR 2229
ENCODING 8745
SWIDTH 1000 0
DWIDTH 16 0
BBX 12 12 2 0
BITMAP
0F00
30C0
4020
4020
8020
8010
8010
8010
8010
8010
8010
8010
ENDCHAR
STARTCHAR 222A
ENCODING 8746
SWIDTH 1000 0
DWIDTH 16 0
BBX 12 12 2 0
BITMAP
8010
8010
8010
8010
8010
8010
8010
8020
4020
4020
30C0
0F00
ENDCHAR
STARTCHAR 222B
ENCODING 8747
SWIDTH 1000 0
DWIDTH 16 0
BBX 8 14 4 -1
BITMAP
07
09
08
08
08
08
08
10
10
10
10
10
90
E0
ENDCHAR
STARTCHAR 222C
ENCODING 8748
SWIDTH 1000 0
DWIDTH 16 0
BBX 14 14 1 -1
BITMAP
0718
05AC
0820
0840
0840
0840
0840
0840
0840
0840
0840
1040
D680
6380
ENDCHAR
STARTCHAR 222E
ENCODING 8750
SWIDTH 1000 0
DWIDTH 16 0
BBX 8 14 4 -1
BITMAP
07
09
08
08
08
3C
4C
54
34
18
10
10
90
E0
ENDCHAR
STARTCHAR 2234
ENCODING 8756
SWIDTH 1000 0
DWIDTH 16 0
BBX 10 10 3 1
BITMAP
0C00
0C00
0000
0000
0000
0000
0000
0000
C0C0
C0C0
ENDCHAR
STARTCHAR 2235
ENCODING 8757
SWIDTH 1000 0
DWIDTH 16 0
BBX 10 10 3 1
BITMAP
C0C0
C0C0
0000
0000
0000
0000
0000
0000
0C00
0C00
ENDCHAR
STARTCHAR 223D
ENCODING 8765
SWIDTH 1000 0
DWIDTH 16 0
BBX 14 6 1 3
BITMAP
3870
4088
8104
8204
4408
3870
ENDCHAR
STARTCHAR 2243
ENCODING 8771
SWIDTH 500 0
DWIDTH 8 0
BBX 6 4 1 4
BITMAP
FC
00
00
FC
ENDCHAR
STARTCHAR 2245
ENCODING 8773
SWIDTH 500 0
DWIDTH 8 0
BBX 6 7 1 3
BITMAP
60
9C
00
00
FC
00
FC
ENDCHAR
STARTCHAR 2248
ENCODING 8776
SWIDTH 500 0
DWIDTH 8 0
BBX 6 5 1 3
BITMAP
E4
18
00
64
98
ENDCHAR
STARTCHAR 2252
ENCODING 8786
SWIDTH 1000 0
DWIDTH 16 0
BBX 11 10 3 1
BITMAP
6000
6000
0000
FFE0
0000
0000
FFE0
0000
0180
0180
ENDCHAR
STARTCHAR 2260
ENCODING 8800
SWIDTH 1000 0
DWIDTH 16 0
BBX 11 11 3 1
BITMAP
0100
0100
0200
0200
FFE0
0400
0800
FFE0
1000
1000
2000
ENDCHAR
STARTCHAR 2261
ENCODING 8801
SWIDTH 1000 0
DWIDTH 16 0
BBX 11 8 3 2
BITMAP
FFE0
0000
0000
0000
FFE0
0000
0000
FFE0
ENDCHAR
STARTCHAR 2262
ENCODING 8802
SWIDTH 500 0
DWIDTH 8 0
BBX 6 10 1 1
BITMAP
08
FC
10
10
10
FC
20
FC
40
40
ENDCHAR
STARTCHAR 2266
ENCODING 8806
SWIDTH 1000 0
DWIDTH 16 0
BBX 12 13 2 0
BITMAP
0070
0180
0E00
7000
B000
0E00
01C0
0030
0000
FFF0
0000
0000
FFF0
ENDCHAR
STARTCHAR 2267
ENCODING 8807
SWIDTH 1000 0
DWIDTH 16 0
BBX 12 13 2 0
BITMAP
E000
1800
0700
00E0
00D0
0700
3800
C000
0000
FFF0
0000
0000
FFF0
ENDCHAR
STARTCHAR 226A
ENCODING 8810
SWIDTH 1000 0
DWIDTH 16 0
BBX 14 14 1 -1
BITMAP
00CC
0110
0260
0480
1900
2200
4C00
CC00
2200
1100
0C80
0240
0130
00CC
ENDCHAR
STARTCHAR 226B
ENCODING 8811
SWIDTH 1000 0
DWIDTH 16 0
BBX 13 14 2 -1
BITMAP
9800
4400
3200
0900
04C0
0220
0190
0198
0220
0440
0980
1200
6400
9800
ENDCHAR
STARTCHAR 2276
ENCODING 8822
SWIDTH 500 0
DWIDTH 8 0
BBX 6 12 1 0
BITMAP
04
08
30
C0
60
98
64
18
0C
30
C0
80
ENDCHAR
STARTCHAR 2277
ENCODING 8823
SWIDTH 500 0
DWIDTH 8 0
BBX 6 12 1 0
BITMAP
80
40
30
0C
18
64
98
60
C0
30
0C
04
ENDCHAR
STARTCHAR 2282
ENCODING 8834
SWIDTH 1000 0
DWIDTH 16 0
BBX 12 11 2 1
BITMAP
1FF0
2000
4000
8000
8000
8000
8000
8000
4000
2000
1FF0
ENDCHAR
STARTCHAR 2283
ENCODING 8835
SWIDTH 1000 0
DWIDTH 16 0
BBX 12 11 2 1
BITMAP
FF80
0040
0020
0010
0010
0010
0010
0010
0020
0040
FF80
ENDCHAR
STARTCHAR 2284
ENCODING 8836
SWIDTH 500 0
DWIDTH 8 0
BBX 6 11 1 1
BITMAP
08
3C
50
90
90
90
90
A0
A0
60
3C
ENDCHAR
STARTCHAR 2285
ENCODING 8837
SWIDTH 500 0
DWIDTH 8 0
BBX 6 11 1 0
BITMAP
F0
18
14
24
24
24
24
24
48
F0
40
ENDCHAR
STARTCHAR 2286
ENCODING 8838
SWIDTH 1000 0
DWIDTH 16 0
BBX 12 12 2 0
BITMAP
3FF0
6000
8000
8000
8000
8000
8000
6000
3FF0
0000
0000
FFF0
ENDCHAR
STARTCHAR 2287
ENCODING 8839
SWIDTH 1000 0
DWIDTH 16 0
BBX 12 12 2 0
BITMAP
FFC0
0060
0010
0010
0010
0010
0010
0060
FFC0
0000
0000
FFF0
ENDCHAR
STARTCHAR 228A
ENCODING 8842
SWIDTH 500 0
DWIDTH 8 0
BBX 6 11 1 0
BITMAP
3C
40
80
80
80
80
40
3C
10
FC
20
ENDCHAR
STARTCHAR 228B
ENCODING 8843
SWIDTH 500 0
DWIDTH 8 0
BBX 6 11 1 0
BITMAP
F0
08
04
04
04
04
08
F0
10
FC
20
ENDCHAR
STARTCHAR 2295
ENCODING 8853
SWIDTH 500 0
DWIDTH 8 0
BBX 8 6 0 3
BITMAP
3C
52
91
BD
92
7C
ENDCHAR
STARTCHAR 2296
ENCODING 8854
SWIDTH 500 0
DWIDTH 8 0
BBX 8 7 0 2
BITMAP
3C
42
82
BD
81
42
3C
ENDCHAR
STARTCHAR 2297
ENCODING 8855
SWIDTH 500 0
DWIDTH 8 0
BBX 8 7 0 2
BITMAP
3C
66
9A
99
A6
42
3C
ENDCHAR
STARTCHAR 22A5
ENCODING 8869
SWIDTH 1000 0
DWIDTH 16 0
BBX 14 13 1 0
BITMAP
0200
0200
0200
0200
0200
0200
0200
0200
0200
0200
0200
0200
FFFC
ENDCHAR
STARTCHAR 22BF
ENCODING 8895
SWIDTH 1000 0
DWIDTH 16 0
BBX 13 13 1 0
BITMAP
0008
0008
0018
0028
0048
0088
0108
0208
0408
0808
1008
2008
FFF8
ENDCHAR
STARTCHAR 22DA
ENCODING 8922
SWIDTH 500 0
DWIDTH 8 0
BBX 6 13 1 -1
BITMAP
04
18
E0
60
1C
04
FC
80
C0
38
0C
70
80
ENDCHAR
STARTCHAR 22DB
ENCODING 8923
SWIDTH 500 0
DWIDTH 8 0
BBX 6 13 1 -1
BITMAP
80
60
1C
18
E0
80
FC
04
0C
70
C0
38
04
ENDCHAR
STARTCHAR 2305
ENCODING 8965
SWIDTH 500 0
DWIDTH 8 0
BBX 6 7 1 2
BITMAP
FC
20
30
50
48
88
84
ENDCHAR
STARTCHAR 2306
ENCODING 8966
SWIDTH 500 0
DWIDTH 8 0
BBX 6 9 1 1
BITMAP
FC
00
FC
20
30
50
48
88
84
ENDCHAR
STARTCHAR 2312
ENCODING 8978
SWIDTH 1000 0
DWIDTH 16 0
BBX 16 4 0 9
BITMAP
07E0
381C
4002
8001
ENDCHAR
STARTCHAR 2318
ENCODING 8984
SWIDTH 1000 0
DWIDTH 16 0
BBX 14 15 1 -1
BITMAP
6018
9024
9024
9024
7FF8
1020
1020
1020
1020
1020
7FF8
9024
9024
9024
6018
ENDCHAR
STARTCHAR 23BE
ENCODING 9150
SWIDTH 1000 0
DWIDTH 16 0
BBX 8 16 8 -2
BITMAP
FF
80
80
80
80
80
80
80
80
80
80
80
80
80
80
80
ENDCHAR
STARTCHAR 23BF
ENCODING 9151
SWIDTH 1000 0
DWIDTH 16 0
BBX 8 16 8 -2
BITMAP
80
80
80
80
80
80
80
80
80
80
80
80
80
80
80
FF
ENDCHAR
STARTCHAR 23C0
ENCODING 9152
SWIDTH 1000 0
DWIDTH 16 0
BBX 12 16 2 -2
BITMAP
0400
0400
1F80
2440
4420
8410
8410
8410
8410
8410
8410
4420
2440
1F80
0400
0400
ENDCHAR
STARTCHAR 23C1
ENCODING 9153
SWIDTH 1000 0
DWIDTH 16 0
BBX 16 16 0 -2
BITMAP
FFFF
0100
03C0
0D30
1108
2108
2104
2104
2104
2104
2104
1108
0910
07E0
0100
0100
ENDCHAR
STARTCHAR 23C2
ENCODING 9154
SWIDTH 1000 0
DWIDTH 16 0
BBX 16 16 0 -2
BITMAP
0100
0100
07E0
0910
1108
2104
2104
2104
2104
2104
2108
1108
0910
07E0
0100
FFFF
ENDCHAR
STARTCHAR 23C3
ENCODING 9155
SWIDTH 1000 0
DWIDTH 16 0
BBX 14 16 1 -2
BITMAP
0200
0200
0300
0300
0680
0A80
0A40
1220
2220
2210
4210
4208
FFFC
0200
0200
0200
ENDCHAR
STARTCHAR 23C4
ENCODING 9156
SWIDTH 1000 0
DWIDTH 16 0
BBX 16 16 0 -2
BITMAP
FFFF
0100
0100
0180
0340
0540
0520
0920
0910
1108
2108
2104
7FFE
0100
0100
0100
ENDCHAR
STARTCHAR 23C5
ENCODING 9157
SWIDTH 1000 0
DWIDTH 16 0
BBX 16 16 0 -2
BITMAP
0100
0100
0180
0180
0340
0540
0520
0910
1110
1108
2108
2104
7FFE
0100
0100
FFFF
ENDCHAR
STARTCHAR 23C6
ENCODING 9158
SWIDTH 1000 0
DWIDTH 16 0
BBX 14 16 1 -2
BITMAP
0200
0200
0200
0200
0200
0200
7A00
8600
0184
0278
0200
0200
0200
0200
0200
0200
ENDCHAR
STARTCHAR 23C7
ENCODING 9159
SWIDTH 1000 0
DWIDTH 16 0
BBX 16 16 0 -2
BITMAP
FFFF
0100
0100
0100
0100
0100
3D00
4300
00C2
013C
0100
0100
0100
0100
0100
0100
ENDCHAR
STARTCHAR 23C8
ENCODING 9160
SWIDTH 1000 0
DWIDTH 16 0
BBX 16 16 0 -2
BITMAP
0100
0100
0100
0100
0100
0100
3D00
4300
00C2
013C
0100
0100
0100
0100
0100
FFFF
ENDCHAR
STARTCHAR 23C9
ENCODING 9161
SWIDTH 1000 0
DWIDTH 16 0
BBX 16 16 0 -2
BITMAP
FFFF
0100
0100
0100
0100
0100
0100
0100
0100
0100
0100
0100
0100
0100
0100
0100
ENDCHAR
STARTCHAR 23CA
ENCODING 9162
SWIDTH 1000 0
DWIDTH 16 0
BBX 16 16 0 -2
BITMAP
0100
0100
0100
0100
0100
0100
0100
0100
0100
0100
0100
0100
0100
0100
0100
FFFF
ENDCHAR
STARTCHAR 23CB
ENCODING 9163
SWIDTH 1000 0
DWIDTH 16 0
BBX 8 16 0 -2
BITMAP
FF
01
01
01
01
01
01
01
01
01
01
01
01
01
01
01
ENDCHAR
STARTCHAR 23CC
ENCODING 9164
SWIDTH 1000 0
DWIDTH 16 0
BBX 8 16 0 -2
BITMAP
01
01
01
01
01
01
01
01
01
01
01
01
01
01
01
FF
ENDCHAR
STARTCHAR 23CE
ENCODING 9166
SWIDTH 1000 0
DWIDTH 16 0
BBX 13 13 1 -1
BITMAP
0078
0088
0088
0088
0888
1888
2788
C008
8008
67F0
1800
0800
0800
ENDCHAR
STARTCHAR 2423
ENCODING 9251
SWIDTH 1000 0
DWIDTH 16 0
BBX 12 3 2 0
BITMAP
8010
8010
FFF0
ENDCHAR
STARTCHAR 2460
ENCODING 9312
SWIDTH 1000 0
DWIDTH 16 0
BBX 14 14 1 -1
BITMAP
0FC0
3020
4110
8708
8104
8104
8104
8104
8104
8104
8108
4310
34A0
0FC0
ENDCHAR
STARTCHAR 2461
ENCODING 9313
SWIDTH 1000 0
DWIDTH 16 0
BBX 14 14 1 -1
BITMAP
0FC0
3030
4798
88C8
8844
8044
8084
8104
8204
8444
8848
4FD0
3020
0FC0
ENDCHAR
STARTCHAR 2462
ENCODING 9314
SWIDTH 1000 0
DWIDTH 16 0
BBX 14 15 1 -1
BITMAP
0780
1860
2010
4788
8844
8C44
80C4
8304
80C4
8044
8844
8848
4790
3020
0FC0
ENDCHAR
STARTCHAR 2463
ENCODING 9315
SWIDTH 1000 0
DWIDTH 16 0
BBX 14 15 1 -2
BITMAP
0FC0
3030
4198
8288
8484
8484
8884
9084
9FE4
8084
8084
4188
2250
1820
0FC0
ENDCHAR
STARTCHAR 2464
ENCODING 9316
SWIDTH 1000 0
DWIDTH 16 0
BBX 14 14 1 -1
BITMAP
0FC0
3030
47D8
8808
8804
8B84
8CC4
8044
8044
8844
88C8
4790
3020
0FC0
ENDCHAR
STARTCHAR 2465
ENCODING 9317
SWIDTH 1000 0
DWIDTH 16 0
BBX 14 14 1 -1
BITMAP
0FC0
3030
4398
84C8
8804
8804
8F84
8844
8844
8844
8CC8
4790
3020
0FC0
ENDCHAR
STARTCHAR 2466
ENCODING 9318
SWIDTH 1000 0
DWIDTH 16 0
BBX 14 15 1 -1
BITMAP
0780
1860
2010
4FC8
8848
8884
8084
8104
8104
8104
8104
8308
4310
3020
0FC0
ENDCHAR
STARTCHAR 2467
ENCODING 9319
SWIDTH 1000 0
DWIDTH 16 0
BBX 14 14 1 -1
BITMAP
0FC0
3030
4798
8C48
8844
8484
8304
8484
8844
8844
8848
4790
3020
0FC0
ENDCHAR
STARTCHAR 2468
ENCODING 9320
SWIDTH 1000 0
DWIDTH 16 0
BBX 14 14 1 -1
BITMAP
0FC0
3030
4798
8CC8
8844
8844
8C44
87C4
8044
8C44
8888
4710
3020
0FC0
ENDCHAR
STARTCHAR 2469
ENCODING 9321
SWIDTH 1000 0
DWIDTH 16 0
BBX 14 15 1 -2
BITMAP
0780
1860
6010
58C8
8924
8924
8934
8934
8934
8924
8924
58C8
2410
1020
0FC0
ENDCHAR
STARTCHAR 246A
ENCODING 9322
SWIDTH 1000 0
DWIDTH 16 0
BBX 14 15 1 -2
BITMAP
0780
1860
6010
58C8
8844
8844
8844
8844
8844
8844
8844
5868
2490
1020
0FC0
ENDCHAR
STARTCHAR 246B
ENCODING 9323
SWIDTH 1000 0
DWIDTH 16 0
BBX 14 15 1 -2
BITMAP
0FC0
3020
49D0
9928
8924
8824
8824
8844
8884
8924
8924
59E8
2410
1820
0FC0
ENDCHAR
STARTCHAR 246C
ENCODING 9324
SWIDTH 1000 0
DWIDTH 16 0
BBX 14 16 1 -2
BITMAP
0780
1860
2010
59C8
8928
8824
8824
88C4
8864
8824
8B24
8928
59C8
2410
1820
07C0
ENDCHAR
STARTCHAR 246D
ENCODING 9325
SWIDTH 1000 0
DWIDTH 16 0
BBX 14 16 1 -2
BITMAP
0780
1860
2010
5848
8848
88C4
8944
8A44
8A44
8BF4
8844
8844
5868
2490
1820
07C0
ENDCHAR
STARTCHAR 246E
ENCODING 9326
SWIDTH 1000 0
DWIDTH 16 0
BBX 14 16 1 -2
BITMAP
0780
1860
2010
59E8
8908
8A04
8A04
89E4
8824
8834
8B24
8924
59C8
2410
1820
07C0
ENDCHAR
STARTCHAR 246F
ENCODING 9327
SWIDTH 1000 0
DWIDTH 16 0
BBX 14 15 1 -2
BITMAP
0780
1860
6010
58E8
8924
8904
89E4
8924
8B24
8934
8924
58C8
2410
1020
0FC0
ENDCHAR
STARTCHAR 2470
ENCODING 9328
SWIDTH 1000 0
DWIDTH 16 0
BBX 14 16 1 -2
BITMAP
0780
1860
2010
59E8
8A28
8A24
8844
8844
8844
8844
8884
8884
5888
2410
1820
07C0
ENDCHAR
STARTCHAR 2471
ENCODING 9329
SWIDTH 1000 0
DWIDTH 16 0
BBX 14 15 1 -2
BITMAP
0780
1860
6010
59E8
8924
8924
8944
88C4
8B24
8A14
8B24
59E8
2410
1020
0FC0
ENDCHAR
STARTCHAR 2472
ENCODING 9330
SWIDTH 1000 0
DWIDTH 16 0
BBX 14 15 1 -2
BITMAP
0780
1860
6010
59C8
8924
8A24
8924
89E4
8824
8824
8924
59C8
2410
1020
0FC0
ENDCHAR
STARTCHAR 2473
ENCODING 9331
SWIDTH 1000 0
DWIDTH 16 0
BBX 14 15 1 -2
BITMAP
0FC0
3020
5C70
A6A8
B294
8494
8494
8894
8894
9294
A2A4
7E68
2010
1820
0FC0
ENDCHAR
STARTCHAR 24D0
ENCODING 9424
SWIDTH 1000 0
DWIDTH 16 0
BBX 14 14 1 -1
BITMAP
0FC0
3030
4018
8008
8784
8484
8384
8C84
8884
87E4
8008
4010
3020
0FC0
ENDCHAR
STARTCHAR 24D1
ENCODING 9425
SWIDTH 1000 0
DWIDTH 16 0
BBX 14 14 1 -1
BITMAP
0FC0
3030
4C18
8408
8404
8784
8444
8424
8424
8444
8788
4010
3020
0FC0
ENDCHAR
STARTCHAR 24D2
ENCODING 9426
SWIDTH 1000 0
DWIDTH 16 0
BBX 14 14 1 -1
BITMAP
0FC0
3030
4018
8008
8784
8C84
8804
8804
8C44
8784
8008
4010
3020
0FC0
ENDCHAR
STARTCHAR 24D3
ENCODING 9427
SWIDTH 1000 0
DWIDTH 16 0
BBX 14 14 1 -1
BITMAP
0FC0
3030
4198
8088
8084
8784
8884
8884
8884
8884
8F88
4050
3020
0FC0
ENDCHAR
STARTCHAR 24D4
ENCODING 9428
SWIDTH 1000 0
DWIDTH 16 0
BBX 14 15 1 -1
BITMAP
0780
1860
2010
4008
8788
8484
8844
8FC4
8804
8844
8484
8788
4010
3020
0FC0
ENDCHAR
STARTCHAR 24D5
ENCODING 9429
SWIDTH 1000 0
DWIDTH 16 0
BBX 14 15 1 -1
BITMAP
0780
1860
2010
4388
82C8
8204
8784
8204
8204
8204
8204
4208
2510
1020
0FC0
ENDCHAR
STARTCHAR 24D6
ENCODING 9430
SWIDTH 1000 0
DWIDTH 16 0
BBX 14 14 1 -1
BITMAP
0FC0
3030
4018
87E8
8884
8484
8704
8404
8BC4
8844
8788
4010
3020
0FC0
ENDCHAR
STARTCHAR 24D7
ENCODING 9431
SWIDTH 1000 0
DWIDTH 16 0
BBX 14 15 1 -1
BITMAP
0780
1860
2010
4C08
8404
8404
8784
8444
8444
8444
8444
4C48
22B0
1020
0FC0
ENDCHAR
STARTCHAR 24D8
ENCODING 9432
SWIDTH 1000 0
DWIDTH 16 0
BBX 14 15 1 -1
BITMAP
0780
1860
2010
4308
8004
8004
8304
8104
8104
8104
8104
4308
2090
1020
0FC0
ENDCHAR
STARTCHAR 24D9
ENCODING 9433
SWIDTH 1000 0
DWIDTH 16 0
BBX 14 14 1 -1
BITMAP
0FC0
3030
4118
8008
8304
8104
8104
8104
8104
8104
8D08
4610
3020
0FC0
ENDCHAR
STARTCHAR 24DA
ENCODING 9434
SWIDTH 1000 0
DWIDTH 16 0
BBX 14 14 1 -1
BITMAP
0FC0
3030
4C18
8408
8404
85C4
8504
8604
8504
8484
8448
4AB0
3020
0FC0
ENDCHAR
STARTCHAR 24DB
ENCODING 9435
SWIDTH 1000 0
DWIDTH 16 0
BBX 14 15 1 -1
BITMAP
0780
1860
2010
4308
8104
8104
8104
8104
8104
8104
8104
4308
2090
1020
0FC0
ENDCHAR
STARTCHAR 24DC
ENCODING 9436
SWIDTH 1000 0
DWIDTH 16 0
BBX 14 14 1 -1
BITMAP
0FC0
3030
4018
8008
BEE4
9124
9124
9124
9124
9134
AAC8
4010
3020
0FC0
ENDCHAR
STARTCHAR 24DD
ENCODING 9437
SWIDTH 1000 0
DWIDTH 16 0
BBX 14 14 1 -1
BITMAP
0FC0
3030
4018
8008
8F84
8444
8444
8444
8444
8C44
82A8
4010
3020
0FC0
ENDCHAR
STARTCHAR 24DE
ENCODING 9438
SWIDTH 1000 0
DWIDTH 16 0
BBX 14 14 1 -1
BITMAP
0FC0
3030
4018
8008
8784
8844
8844
8844
8C44
8784
8008
4010
3020
0FC0
ENDCHAR
STARTCHAR 24DF
ENCODING 9439
SWIDTH 1000 0
DWIDTH 16 0
BBX 14 15 1 -1
BITMAP
0780
1860
2010
4008
8F84
8444
8424
8424
8444
8784
8404
4408
2A10
1020
0FC0
ENDCHAR
STARTCHAR 24E0
ENCODING 9440
SWIDTH 1000 0
DWIDTH 16 0
BBX 14 15 1 -1
BITMAP
0780
1860
2010
4008
8784
8884
9084
9084
8884
8784
8084
4088
2150
1020
0FC0
ENDCHAR
STARTCHAR 24E1
ENCODING 9441
SWIDTH 1000 0
DWIDTH 16 0
BBX 14 14 1 -1
BITMAP
0FC0
3030
4018
8008
87C4
8204
8204
8204
8204
8204
8508
4010
3020
0FC0
ENDCHAR
STARTCHAR 24E2
ENCODING 9442
SWIDTH 1000 0
DWIDTH 16 0
BBX 14 14 1 -1
BITMAP
0FC0
3030
4018
8008
8784
8484
8704
8184
8844
8C84
8308
4010
3020
0FC0
ENDCHAR
STARTCHAR 24E3
ENCODING 9443
SWIDTH 1000 0
DWIDTH 16 0
BBX 14 15 1 -1
BITMAP
0780
1860
2010
4208
8204
8F84
8204
8204
8204
8204
8284
8388
4010
3020
0FC0
ENDCHAR
STARTCHAR 24E4
ENCODING 9444
SWIDTH 1000 0
DWIDTH 16 0
BBX 14 14 1 -1
BITMAP
0FC0
3030
4018
8008
98C4
8844
8844
8844
8844
87C4
8028
4010
3020
0FC0
ENDCHAR
STARTCHAR 24E5
ENCODING 9445
SWIDTH 1000 0
DWIDTH 16 0
BBX 14 14 1 -1
BITMAP
0FC0
3030
4018
8008
9CE4
8484
8484
8484
8304
8304
8008
6010
1020
0FC0
ENDCHAR
STARTCHAR 24E6
ENCODING 9446
SWIDTH 1000 0
DWIDTH 16 0
BBX 14 15 1 -1
BITMAP
0780
1860
2010
4008
8008
BBB4
9124
8B44
8AC4
8CC4
8484
8008
6010
1020
0FC0
ENDCHAR
STARTCHAR 24E7
ENCODING 9447
SWIDTH 1000 0
DWIDTH 16 0
BBX 14 14 1 -1
BITMAP
0FC0
3030
4018
8008
9EE4
8484
8304
8304
8484
8844
94A8
4010
3020
0FC0
ENDCHAR
STARTCHAR 24E8
ENCODING 9448
SWIDTH 1000 0
DWIDTH 16 0
BBX 14 15 1 -1
BITMAP
0780
1860
2010
4008
8EE4
8444
8284
8284
8104
8104
8E04
4608
2010
1020
0FC0
ENDCHAR
STARTCHAR 24E9
ENCODING 9449
SWIDTH 1000 0
DWIDTH 16 0
BBX 14 14 1 -1
BITMAP
0FC0
3030
4018
8008
8FC4
8904
8104
8204
8444
8444
8B88
4010
3020
0FC0
ENDCHAR
STARTCHAR 24EB
ENCODING 9451
SWIDTH 1000 0
DWIDTH 16 0
BBX 14 15 1 -2
BITMAP
0780
1FE0
3FF0
4738
F7BC
F7BC
F7BC
F7BC
F7BC
F7BC
F7BC
6798
3FF0
1FE0
0FC0
ENDCHAR
STARTCHAR 24EC
ENCODING 9452
SWIDTH 1000 0
DWIDTH 16 0
BBX 14 15 1 -2
BITMAP
0FC0
1FE0
3710
66D8
F6DC
F7DC
F7DC
F7BC
F7FC
F7EC
F6EC
6708
3FF0
1FE0
0FC0
ENDCHAR
STARTCHAR 24ED
ENCODING 9453
SWIDTH 1000 0
DWIDTH 16 0
BBX 14 16 1 -2
BITMAP
0780
1FE0
3FF0
46D8
76D8
F7DC
F7DC
F73C
F7DC
F7CC
F6EC
76D8
66D8
3FF0
1FE0
0780
ENDCHAR
STARTCHAR 24EE
ENCODING 9454
SWIDTH 1000 0
DWIDTH 16 0
BBX 14 16 1 -2
BITMAP
0780
1FE0
3FF0
47B8
77B8
F7BC
F7BC
F6BC
F5BC
F40C
F7BC
F7BC
6798
3FF0
1FE0
07C0
ENDCHAR
STARTCHAR 24EF
ENCODING 9455
SWIDTH 1000 0
DWIDTH 16 0
BBX 14 16 1 -2
BITMAP
0780
1FE0
3FF0
6E18
7EF8
FEFC
FEFC
FEDC
FFFC
FFEC
FEEC
FEDC
66F8
3FF0
1FE0
07C0
ENDCHAR
STARTCHAR 24F0
ENCODING 9456
SWIDTH 1000 0
DWIDTH 16 0
BBX 14 15 1 -2
BITMAP
0780
1FE0
3FF0
4F58
FEDC
FEFC
FF1C
FEDC
FEEC
FEEC
FEFC
67D8
3FF0
1FE0
0FC0
ENDCHAR
STARTCHAR 24F1
ENCODING 9457
SWIDTH 1000 0
DWIDTH 16 0
BBX 14 16 1 -2
BITMAP
0780
1FE0
3FF0
6608
77F8
F7DC
F7FC
F7BC
F7BC
F7BC
F7BC
F73C
6778
3FF0
1FE0
07C0
ENDCHAR
STARTCHAR 24F2
ENCODING 9458
SWIDTH 1000 0
DWIDTH 16 0
BBX 14 15 1 -2
BITMAP
0780
1FE0
3FF0
47D8
F6FC
F6DC
F77C
F7BC
F6DC
F7EC
F7EC
66D8
3FF0
1FE0
0FC0
ENDCHAR
STARTCHAR 24F3
ENCODING 9459
SWIDTH 1000 0
DWIDTH 16 0
BBX 14 15 1 -2
BITMAP
0780
1FE0
3FF0
47D8
F6DC
F6EC
F6EC
F6CC
F7EC
F7DC
F6DC
66F8
3FF0
1FE0
0FC0
ENDCHAR
STARTCHAR 24F4
ENCODING 9460
SWIDTH 1000 0
DWIDTH 16 0
BBX 14 15 1 -2
BITMAP
0FC0
1FE0
2390
5B68
CB6C
FB6C
FB6C
F76C
FF6C
EF6C
FF6C
43F8
3FF0
1FE0
0FC0
ENDCHAR
STARTCHAR 24F5
ENCODING 9461
SWIDTH 1000 0
DWIDTH 16 0
BBX 16 14 0 -1
BITMAP
0FE0
17F0
381C
638C
C086
C086
C086
C085
C086
C086
608A
3194
1E68
0FF0
ENDCHAR
STARTCHAR 24F6
ENCODING 9462
SWIDTH 1000 0
DWIDTH 16 0
BBX 16 14 0 -1
BITMAP
0FE0
17F8
3BD4
666C
C426
C626
C046
C085
C106
C226
642A
37F4
1C28
0FF0
ENDCHAR
STARTCHAR 24F7
ENCODING 9463
SWIDTH 1000 0
DWIDTH 16 0
BBX 16 15 0 -1
BITMAP
0FE0
17D0
3838
63CC
A426
C626
C066
C185
C066
C026
A426
646A
33D4
1C68
0FF0
ENDCHAR
STARTCHAR 24F8
ENCODING 9464
SWIDTH 1000 0
DWIDTH 16 0
BBX 16 15 0 -1
BITMAP
07E0
0BD0
3C3C
30CC
6146
C246
C246
C445
C846
CFE6
C046
60CC
3134
1C68
0FF0
ENDCHAR
STARTCHAR 24F9
ENCODING 9465
SWIDTH 1000 0
DWIDTH 16 0
BBX 16 15 0 -1
BITMAP
0FE0
13D0
2C38
53EC
A406
C406
C5C6
C665
C026
C026
C426
646A
33D4
1C68
0FF0
ENDCHAR
STARTCHAR 24FA
ENCODING 9466
SWIDTH 1000 0
DWIDTH 16 0
BBX 16 15 0 -1
BITMAP
07E0
0BD0
3C38
31CC
6266
C406
C406
C5C5
C666
C426
C426
626A
33D4
1C68
0FF0
ENDCHAR
STARTCHAR 24FB
ENCODING 9467
SWIDTH 1000 0
DWIDTH 16 0
BBX 16 15 0 -1
BITMAP
0FE0
17D0
3838
67EC
A426
C446
C046
C085
C086
C086
A086
618A
3114
1C68
0FF0
ENDCHAR
STARTCHAR 24FC
ENCODING 9468
SWIDTH 1000 0
DWIDTH 16 0
BBX 16 15 0 -1
BITMAP
07E0
0BD0
3C38
33CC
6626
C426
C246
C185
C646
C426
C426
646A
33D4
1C68
0FF0
ENDCHAR
STARTCHAR 24FD
ENCODING 9469
SWIDTH 1000 0
DWIDTH 16 0
BBX 16 15 0 -1
BITMAP
07E0
0BD0
3C38
33CC
6666
C426
C426
C665
C3A6
C026
C626
644A
3394
1C68
0FF0
ENDCHAR
STARTCHAR 24FE
ENCODING 9470
SWIDTH 1000 0
DWIDTH 16 0
BBX 16 15 0 -1
BITMAP
0FE0
17D0
383C
6C6C
A496
C496
C496
C495
C496
C496
A496
646C
3A14
1C78
0FE0
ENDCHAR
STARTCHAR 2500
ENCODING 9472
SWIDTH 1000 0
DWIDTH 16 0
BBX 16 1 0 5
BITMAP
FFFF
ENDCHAR
STARTCHAR 2501
ENCODING 9473
SWIDTH 1000 0
DWIDTH 16 0
BBX 16 2 0 5
BITMAP
FFFF
FFFF
ENDCHAR
STARTCHAR 2502
ENCODING 9474
SWIDTH 1000 0
DWIDTH 16 0
BBX 1 16 7 -2
BITMAP
80
80
80
80
80
80
80
80
80
80
80
80
80
80
80
80
ENDCHAR
STARTCHAR 2503
ENCODING 9475
SWIDTH 1000 0
DWIDTH 16 0
BBX 2 16 7 -2
BITMAP
C0
C0
C0
C0
C0
C0
C0
C0
C0
C0
C0
C0
C0
C0
C0
C0
ENDCHAR
STARTCHAR 250C
ENCODING 9484
SWIDTH 1000 0
DWIDTH 16 0
BBX 8 8 8 -2
BITMAP
FF
80
80
80
80
80
80
80
ENDCHAR
STARTCHAR 250F
ENCODING 9487
SWIDTH 1000 0
DWIDTH 16 0
BBX 9 9 7 -2
BITMAP
FF80
FF80
C000
C000
C000
C000
C000
C000
C000
ENDCHAR
STARTCHAR 2510
ENCODING 9488
SWIDTH 1000 0
DWIDTH 16 0
BBX 8 8 0 -2
BITMAP
FF
01
01
01
01
01
01
01
ENDCHAR
STARTCHAR 2513
ENCODING 9491
SWIDTH 1000 0
DWIDTH 16 0
BBX 9 9 0 -2
BITMAP
FF80
FF80
0180
0180
0180
0180
0180
0180
0180
ENDCHAR
STARTCHAR 2514
ENCODING 9492
SWIDTH 1000 0
DWIDTH 16 0
BBX 8 9 8 5
BITMAP
80
80
80
80
80
80
80
80
FF
ENDCHAR
STARTCHAR 2517
ENCODING 9495
SWIDTH 1000 0
DWIDTH 16 0
BBX 9 9 7 5
BITMAP
C000
C000
C000
C000
C000
C000
C000
FF80
FF80
ENDCHAR
STARTCHAR 2518
ENCODING 9496
SWIDTH 1000 0
DWIDTH 16 0
BBX 8 9 0 5
BITMAP
01
01
01
01
01
01
01
01
FF
ENDCHAR
STARTCHAR 251B
ENCODING 9499
SWIDTH 1000 0
DWIDTH 16 0
BBX 9 9 0 5
BITMAP
0180
0180
0180
0180
0180
0180
0180
FF80
FF80
ENDCHAR
STARTCHAR 251C
ENCODING 9500
SWIDTH 1000 0
DWIDTH 16 0
BBX 8 16 8 -2
BITMAP
80
80
80
80
80
80
80
80
FF
80
80
80
80
80
80
80
ENDCHAR
STARTCHAR 251D
ENCODING 9501
SWIDTH 1000 0
DWIDTH 16 0
BBX 8 16 8 -2
BITMAP
80
80
80
80
80
80
80
FF
FF
80
80
80
80
80
80
80
ENDCHAR
STARTCHAR 2520
ENCODING 9504
SWIDTH 1000 0
DWIDTH 16 0
BBX 9 16 7 -2
BITMAP
C000
C000
C000
C000
C000
C000
C000
C000
FF80
C000
C000
C000
C000
C000
C000
C000
ENDCHAR
STARTCHAR 2523
ENCODING 9507
SWIDTH 1000 0
DWIDTH 16 0
BBX 9 16 7 -2
BITMAP
C000
C000
C000
C000
C000
C000
C000
FF80
FF80
C000
C000
C000
C000
C000
C000
C000
ENDCHAR
STARTCHAR 2524
ENCODING 9508
SWIDTH 1000 0
DWIDTH 16 0
BBX 8 16 0 -2
BITMAP
01
01
01
01
01
01
01
01
FF
01
01
01
01
01
01
01
ENDCHAR
STARTCHAR 2525
ENCODING 9509
SWIDTH 1000 0
DWIDTH 16 0
BBX 8 16 0 -2
BITMAP
01
01
01
01
01
01
01
FF
FF
01
01
01
01
01
01
01
ENDCHAR
STARTCHAR 2528
ENCODING 9512
SWIDTH 1000 0
DWIDTH 16 0
BBX 9 16 0 -2
BITMAP
0180
0180
0180
0180
0180
0180
0180
0180
FF80
0180
0180
0180
0180
0180
0180
0180
ENDCHAR
STARTCHAR 252B
ENCODING 9515
SWIDTH 1000 0
DWIDTH 16 0
BBX 9 16 0 -2
BITMAP
0180
0180
0180
0180
0180
0180
0180
FF80
FF80
0180
0180
0180
0180
0180
0180
0180
ENDCHAR
STARTCHAR 252C
ENCODING 9516
SWIDTH 1000 0
DWIDTH 16 0
BBX 16 8 0 -2
BITMAP
FFFF
0100
0100
0100
0100
0100
0100
0100
ENDCHAR
STARTCHAR 252F
ENCODING 9519
SWIDTH 1000 0
DWIDTH 16 0
BBX 16 9 0 -2
BITMAP
FFFF
FFFF
0100
0100
0100
0100
0100
0100
0100
ENDCHAR
STARTCHAR 2530
ENCODING 9520
SWIDTH 1000 0
DWIDTH 16 0
BBX 16 8 0 -2
BITMAP
FFFF
0180
0180
0180
0180
0180
0180
0180
ENDCHAR
STARTCHAR 2533
ENCODING 9523
SWIDTH 1000 0
DWIDTH 16 0
BBX 16 9 0 -2
BITMAP
FFFF
FFFF
0180
0180
0180
0180
0180
0180
0180
ENDCHAR
STARTCHAR 2534
ENCODING 9524
SWIDTH 1000 0
DWIDTH 16 0
BBX 16 9 0 5
BITMAP
0100
0100
0100
0100
0100
0100
0100
0100
FFFF
ENDCHAR
STARTCHAR 2537
ENCODING 9527
SWIDTH 1000 0
DWIDTH 16 0
BBX 16 9 0 5
BITMAP
0100
0100
0100
0100
0100
0100
0100
FFFF
FFFF
ENDCHAR
STARTCHAR 2538
ENCODING 9528
SWIDTH 1000 0
DWIDTH 16 0
BBX 16 9 0 5
BITMAP
0180
0180
0180
0180
0180
0180
0180
0180
FFFF
ENDCHAR
STARTCHAR 253B
ENCODING 9531
SWIDTH 1000 0
DWIDTH 16 0
BBX 16 9 0 5
BITMAP
0180
0180
0180
0180
0180
0180
0180
FFFF
FFFF
ENDCHAR
STARTCHAR 253C
ENCODING 9532
SWIDTH 1000 0
DWIDTH 16 0
BBX 16 16 0 -2
BITMAP
0100
0100
0100
0100
0100
0100
0100
0100
FFFF
0100
0100
0100
0100
0100
0100
0100
ENDCHAR
STARTCHAR 253F
ENCODING 9535
SWIDTH 1000 0
DWIDTH 16 0
BBX 16 16 0 -2
BITMAP
0100
0100
0100
0100
0100
0100
0100
FFFF
FFFF
0100
0100
0100
0100
0100
0100
0100
ENDCHAR
STARTCHAR 2542
ENCODING 9538
SWIDTH 1000 0
DWIDTH 16 0
BBX 16 16 0 -2
BITMAP
0180
0180
0180
0180
0180
0180
0180
0180
FFFF
0180
0180
0180
0180
0180
0180
0180
ENDCHAR
STARTCHAR 254B
ENCODING 9547
SWIDTH 1000 0
DWIDTH 16 0
BBX 16 16 0 -2
BITMAP
0180
0180
0180
0180
0180
0180
0180
FFFF
FFFF
0180
0180
0180
0180
0180
0180
0180
ENDCHAR
STARTCHAR 25A0
ENCODING 9632
SWIDTH 1000 0
DWIDTH 16 0
BBX 12 12 2 0
BITMAP
FFF0
FFF0
FFF0
FFF0
FFF0
FFF0
FFF0
FFF0
FFF0
FFF0
FFF0
FFF0
ENDCHAR
STARTCHAR 25A1
ENCODING 9633
SWIDTH 1000 0
DWIDTH 16 0
BBX 12 12 2 0
BITMAP
FFF0
8010
8010
8010
8010
8010
8010
8010
8010
8010
8010
FFF0
ENDCHAR
STARTCHAR 25B1
ENCODING 9649
SWIDTH 500 0
DWIDTH 8 0
BBX 6 4 1 4
BITMAP
7C
84
88
F8
ENDCHAR
STARTCHAR 25B2
ENCODING 9650
SWIDTH 1000 0
DWIDTH 16 0
BBX 12 12 2 0
BITMAP
0400
0600
0F00
0F00
1F80
1F80
3FC0
3FC0
7FE0
7FE0
FFF0
FFF0
ENDCHAR
STARTCHAR 25B3
ENCODING 9651
SWIDTH 1000 0
DWIDTH 16 0
BBX 12 13 2 0
BITMAP
0400
0600
0600
0900
0900
1080
2080
2040
4040
4020
8020
8010
FFF0
ENDCHAR
STARTCHAR 25B6
ENCODING 9654
SWIDTH 500 0
DWIDTH 8 0
BBX 7 9 1 2
BITMAP
80
C0
E0
F8
FC
FE
F0
E0
80
ENDCHAR
STARTCHAR 25B7
ENCODING 9655
SWIDTH 500 0
DWIDTH 8 0
BBX 7 9 1 2
BITMAP
80
C0
A0
98
84
86
98
A0
C0
ENDCHAR
STARTCHAR 25BC
ENCODING 9660
SWIDTH 1000 0
DWIDTH 16 0
BBX 12 12 2 0
BITMAP
FFF0
FFF0
7FE0
7FE0
3FC0
3FC0
1F80
1F80
0F00
0F00
0600
0400
ENDCHAR
STARTCHAR 25BD
ENCODING 9661
SWIDTH 1000 0
DWIDTH 16 0
BBX 12 13 2 -1
BITMAP
FFF0
8010
8020
4020
4040
2040
2080
1080
0900
0900
0600
0600
0400
ENDCHAR
STARTCHAR 25C0
ENCODING 9664
SWIDTH 500 0
DWIDTH 8 0
BBX 7 9 0 2
BITMAP
02
06
0E
3E
7E
FE
1E
0E
02
ENDCHAR
STARTCHAR 25C1
ENCODING 9665
SWIDTH 500 0
DWIDTH 8 0
BBX 7 9 0 2
BITMAP
02
06
0A
32
42
C2
32
0A
06
ENDCHAR
STARTCHAR 25C6
ENCODING 9670
SWIDTH 1000 0
DWIDTH 16 0
BBX 14 14 1 -1
BITMAP
0300
0780
0FC0
1FE0
3FF0
7FF8
FFFC
FFFC
7FF8
3FF0
1FE0
0FC0
0780
0300
ENDCHAR
STARTCHAR 25C7
ENCODING 9671
SWIDTH 1000 0
DWIDTH 16 0
BBX 14 14 1 -1
BITMAP
0300
0480
0840
1020
2010
4008
8004
8004
4008
2010
1020
0840
0480
0300
ENDCHAR
STARTCHAR 25C9
ENCODING 9673
SWIDTH 500 0
DWIDTH 8 0
BBX 8 8 0 2
BITMAP
3C
42
9A
BD
BD
9A
42
3C
ENDCHAR
STARTCHAR 25CB
ENCODING 9675
SWIDTH 1000 0
DWIDTH 16 0
BBX 14 14 1 -1
BITMAP
0780
1860
2010
4008
8008
8004
8004
8004
8004
4008
4008
2010
1860
07C0
ENDCHAR
STARTCHAR 25CE
ENCODING 9678
SWIDTH 1000 0
DWIDTH 16 0
BBX 14 14 1 -1
BITMAP
0780
1860
2010
4788
8848
9024
9024
9024
9024
8848
4788
2010
1860
0780
ENDCHAR
STARTCHAR 25CF
ENCODING 9679
SWIDTH 1000 0
DWIDTH 16 0
BBX 14 13 1 -1
BITMAP
0FC0
1FE0
3FF0
7FF8
7FF8
FFFC
FFFC
FFFC
7FF8
7FF8
3FF0
1FE0
0FC0
ENDCHAR
STARTCHAR 25D0
ENCODING 9680
SWIDTH 500 0
DWIDTH 8 0
BBX 8 8 0 2
BITMAP
3C
72
72
F1
F1
72
72
3C
ENDCHAR
STARTCHAR 25D1
ENCODING 9681
SWIDTH 500 0
DWIDTH 8 0
BBX 8 8 0 2
BITMAP
3C
4E
8E
8F
8F
8E
6E
3C
ENDCHAR
STARTCHAR 25D2
ENCODING 9682
SWIDTH 500 0
DWIDTH 8 0
BBX 8 8 0 2
BITMAP
3C
42
82
81
FF
7E
7E
3C
ENDCHAR
STARTCHAR 25D3
ENCODING 9683
SWIDTH 500 0
DWIDTH 8 0
BBX 8 8 0 2
BITMAP
3C
7E
7E
FF
81
82
42
3C
ENDCHAR
STARTCHAR 25E6
ENCODING 9702
SWIDTH 500 0
DWIDTH 8 0
BBX 4 4 2 4
BITMAP
60
90
90
60
ENDCHAR
STARTCHAR 25EF
ENCODING 9711
SWIDTH 1000 0
DWIDTH 16 0
BBX 14 14 1 -1
BITMAP
0FC0
3030
4018
8008
8004
8004
8004
8004
8004
8004
8008
4010
3020
0FC0
ENDCHAR
STARTCHAR 2600
ENCODING 9728
SWIDTH 1000 0
DWIDTH 16 0
BBX 15 15 1 -1
BITMAP
0200
0200
4210
2018
17A0
0FC0
1FE0
1FE0
DFEE
1FE0
0FC0
0780
3030
4218
0200
ENDCHAR
STARTCHAR 2601
ENCODING 9729
SWIDTH 1000 0
DWIDTH 16 0
BBX 14 11 1 -1
BITMAP
0F00
1F80
1FD8
1FFC
3FFC
7FFC
FFF8
FFFC
FDFC
78F8
0070
ENDCHAR
STARTCHAR 2602
ENCODING 9730
SWIDTH 1000 0
DWIDTH 16 0
BBX 14 14 1 -1
BITMAP
0200
0FC0
3FF0
7FF8
FFFC
9324
9224
0200
0200
0200
0200
0200
0A00
0600
ENDCHAR
STARTCHAR 2603
ENCODING 9731
SWIDTH 1000 0
DWIDTH 16 0
BBX 14 15 1 -1
BITMAP
8200
82CC
1120
0210
4E14
31E0
2490
A020
15A4
2210
C008
4308
8008
4308
3FF0
ENDCHAR
STARTCHAR 2605
ENCODING 9733
SWIDTH 1000 0
DWIDTH 16 0
BBX 16 15 0 -1
BITMAP
0100
0100
0180
0180
0180
03C0
FFFF
1FFC
0FF0
07E0
07E0
0FF0
0E70
0810
1008
ENDCHAR
STARTCHAR 2606
ENCODING 9734
SWIDTH 1000 0
DWIDTH 16 0
BBX 16 16 0 -2
BITMAP
0100
0100
0180
0180
0280
0240
FE7F
2004
1008
0C30
0820
0910
0AD0
1430
1818
2008
ENDCHAR
STARTCHAR 260E
ENCODING 9742
SWIDTH 1000 0
DWIDTH 16 0
BBX 14 12 1 0
BITMAP
3FF0
FFFC
ECDC
CFCC
1FE0
1860
3030
3030
7038
7878
FFFC
FFFC
ENDCHAR
STARTCHAR 2616
ENCODING 9750
SWIDTH 1000 0
DWIDTH 16 0
BBX 12 13 2 0
BITMAP
0600
1980
6060
8020
8020
8010
8010
8010
8010
8010
8010
8010
FFF0
ENDCHAR
STARTCHAR 2617
ENCODING 9751
SWIDTH 1000 0
DWIDTH 16 0
BBX 12 13 2 0
BITMAP
0600
0F00
3FC0
7FE0
7FE0
FFF0
FFF0
FFF0
FFF0
FFF0
FFF0
FFF0
FFF0
ENDCHAR
STARTCHAR 261E
ENCODING 9758
SWIDTH 1000 0
DWIDTH 16 0
BBX 14 6 1 3
BITMAP
FFFC
937C
A4A0
B9E0
B320
EFC0
ENDCHAR
STARTCHAR 2640
ENCODING 9792
SWIDTH 1000 0
DWIDTH 16 0
BBX 10 14 3 -1
BITMAP
1E00
2100
4100
4080
4100
2100
1E00
0800
0800
FFC0
0800
0800
0800
0800
ENDCHAR
STARTCHAR 2642
ENCODING 9794
SWIDTH 1000 0
DWIDTH 16 0
BBX 13 12 1 0
BITMAP
00F8
0018
0028
0048
0088
3D00
4200
8200
8100
8200
4200
3C00
ENDCHAR
STARTCHAR 2660
ENCODING 9824
SWIDTH 500 0
DWIDTH 8 0
BBX 6 9 1 2
BITMAP
30
78
78
FC
FC
FC
FC
30
30
ENDCHAR
STARTCHAR 2661
ENCODING 9825
SWIDTH 500 0
DWIDTH 8 0
BBX 6 8 1 2
BITMAP
FC
A4
84
84
84
88
48
30
ENDCHAR
STARTCHAR 2662
ENCODING 9826
SWIDTH 500 0
DWIDTH 8 0
BBX 6 10 1 1
BITMAP
20
30
48
88
84
84
88
48
30
20
ENDCHAR
STARTCHAR 2663
ENCODING 9827
SWIDTH 500 0
DWIDTH 8 0
BBX 8 9 0 2
BITMAP
18
3C
3C
7E
FF
FF
7E
18
18
ENDCHAR
STARTCHAR 2664
ENCODING 9828
SWIDTH 500 0
DWIDTH 8 0
BBX 6 10 1 2
BITMAP
20
30
48
88
84
84
B4
FC
50
30
ENDCHAR
STARTCHAR 2665
ENCODING 9829
SWIDTH 500 0
DWIDTH 8 0
BBX 6 8 1 2
BITMAP
FC
FC
FC
FC
FC
78
78
30
ENDCHAR
STARTCHAR 2666
ENCODING 9830
SWIDTH 500 0
DWIDTH 8 0
BBX 6 10 1 1
BITMAP
20
30
78
78
FC
FC
78
78
30
20
ENDCHAR
STARTCHAR 2667
ENCODING 9831
SWIDTH 500 0
DWIDTH 8 0
BBX 8 9 0 2
BITMAP
18
24
24
66
81
81
7E
28
18
ENDCHAR
STARTCHAR 2668
ENCODING 9832
SWIDTH 1000 0
DWIDTH 16 0
BBX 14 12 1 1
BITMAP
0200
1240
2440
1240
1240
1120
0920
4928
9124
9244
6408
1FF0
ENDCHAR
STARTCHAR 2669
ENCODING 9833
SWIDTH 500 0
DWIDTH 8 0
BBX 3 9 2 2
BITMAP
20
20
20
20
20
20
20
E0
C0
ENDCHAR
STARTCHAR 266A
ENCODING 9834
SWIDTH 1000 0
DWIDTH 16 0
BBX 10 14 3 -1
BITMAP
0800
0800
0E00
0B00
0980
08C0
0840
0840
0840
0980
0800
7800
F000
F000
ENDCHAR
STARTCHAR 266B
ENCODING 9835
SWIDTH 500 0
DWIDTH 8 0
BBX 6 10 1 1
BITMAP
04
3C
24
44
44
44
44
4C
CC
C0
ENDCHAR
STARTCHAR 266C
ENCODING 9836
SWIDTH 500 0
DWIDTH 8 0
BBX 6 10 1 1
BITMAP
04
3C
44
3C
44
44
44
4C
CC
C0
ENDCHAR
STARTCHAR 266D
ENCODING 9837
SWIDTH 1000 0
DWIDTH 16 0
BBX 5 13 6 0
BITMAP
80
80
80
80
80
F0
88
88
88
88
90
A0
C0
ENDCHAR
STARTCHAR 266E
ENCODING 9838
SWIDTH 500 0
DWIDTH 8 0
BBX 4 9 2 2
BITMAP
80
80
F0
90
90
B0
D0
10
10
ENDCHAR
STARTCHAR 266F
ENCODING 9839
SWIDTH 1000 0
DWIDTH 16 0
BBX 10 14 3 -1
BITMAP
0200
2200
2200
22C0
2F80
F200
2200
2200
23C0
7E00
E200
2200
2200
2000
ENDCHAR
STARTCHAR 2713
ENCODING 10003
SWIDTH 1000 0
DWIDTH 16 0
BBX 10 11 4 1
BITMAP
0040
0080
0080
0100
0200
0400
8400
8800
D000
6000
4000
ENDCHAR
STARTCHAR 2756
ENCODING 10070
SWIDTH 1000 0
DWIDTH 16 0
BBX 14 14 1 -1
BITMAP
0300
0780
0FC0
0FC0
37B0
7B78
FCFC
FCFC
7B78
37B0
0FC0
0FC0
0780
0300
ENDCHAR
STARTCHAR 2776
ENCODING 10102
SWIDTH 1000 0
DWIDTH 16 0
BBX 14 14 1 -1
BITMAP
0FC0
1FE0
7EF0
7EF8
FEFC
FEFC
FEFC
FEFC
FEFC
FEFC
7EF8
3CF0
1FE0
0FC0
ENDCHAR
STARTCHAR 2777
ENCODING 10103
SWIDTH 1000 0
DWIDTH 16 0
BBX 14 14 1 -1
BITMAP
0FC0
3FF0
7878
7738
F7BC
FFBC
FF7C
FEFC
FDFC
FBFC
77F8
3030
1FE0
0FC0
ENDCHAR
STARTCHAR 2778
ENCODING 10104
SWIDTH 1000 0
DWIDTH 16 0
BBX 14 15 1 -1
BITMAP
0780
1FE0
3FF0
7F78
F7BC
F7BC
FF3C
FCFC
FFBC
FFBC
F7BC
7738
3870
1FE0
0FC0
ENDCHAR
STARTCHAR 2779
ENCODING 10105
SWIDTH 1000 0
DWIDTH 16 0
BBX 14 15 1 -2
BITMAP
0FC0
3FF0
7EF8
7FF8
FFFC
FBFC
F7FC
EFFC
E01C
FFFC
FF7C
7E78
3FF0
1FE0
0FC0
ENDCHAR
STARTCHAR 277A
ENCODING 10106
SWIDTH 1000 0
DWIDTH 16 0
BBX 14 14 1 -1
BITMAP
0FC0
3FF0
7838
77F8
F7FC
F47C
F33C
FFBC
FFBC
F7BC
77B8
3870
1FE0
0FC0
ENDCHAR
STARTCHAR 277B
ENCODING 10107
SWIDTH 1000 0
DWIDTH 16 0
BBX 14 14 1 -1
BITMAP
0FC0
3FF0
7F78
7BB8
F7FC
F7FC
FB7C
F7BC
F7BC
F7BC
7338
3870
1FE0
0FC0
ENDCHAR
STARTCHAR 277C
ENCODING 10108
SWIDTH 1000 0
DWIDTH 16 0
BBX 14 15 1 -1
BITMAP
0780
1FE0
3FF0
7038
F7F8
F7FC
FF7C
FFFC
FEFC
FEFC
FEFC
7CF8
3DF0
1FE0
0FC0
ENDCHAR
STARTCHAR 277D
ENCODING 10109
SWIDTH 1000 0
DWIDTH 16 0
BBX 14 14 1 -1
BITMAP
0FC0
3FF0
7B78
77B8
F7BC
FB7C
FCFC
FB7C
F7BC
F7BC
77B8
3870
1FE0
0FC0
ENDCHAR
STARTCHAR 277E
ENCODING 10110
SWIDTH 1000 0
DWIDTH 16 0
BBX 14 14 1 -1
BITMAP
0FC0
3FF0
7B78
77B8
F7BC
F7BC
F7BC
FBBC
FFBC
F3BC
7778
38F0
1FE0
0FC0
ENDCHAR
STARTCHAR 277F
ENCODING 10111
SWIDTH 1000 0
DWIDTH 16 0
BBX 14 15 1 -2
BITMAP
0780
1FE0
3FF0
4FF8
EEDC
EEDC
EECC
EECC
EECC
EEDC
EEDC
67F8
3FF0
1FE0
0FC0
ENDCHAR
STARTCHAR 2934
ENCODING 10548
SWIDTH 500 0
DWIDTH 8 0
BBX 6 12 1 0
BITMAP
18
38
54
10
10
10
10
10
10
10
10
E0
ENDCHAR
STARTCHAR 2935
ENCODING 10549
SWIDTH 500 0
DWIDTH 8 0
BBX 6 12 1 0
BITMAP
E0
10
10
10
10
10
10
10
10
54
38
18
ENDCHAR
STARTCHAR 29BF
ENCODING 10687
SWIDTH 1000 0
DWIDTH 16 0
BBX 14 14 1 -1
BITMAP
0780
1860
2010
4008
8008
8304
8784
8784
8384
8008
4008
2010
1860
0780
ENDCHAR
STARTCHAR 29FA
ENCODING 10746
SWIDTH 500 0
DWIDTH 8 0
BBX 6 8 1 2
BITMAP
48
48
48
48
FC
48
48
48
ENDCHAR
STARTCHAR 29FB
ENCODING 10747
SWIDTH 500 0
DWIDTH 8 0
BBX 6 8 1 2
BITMAP
68
68
68
68
FC
68
68
68
ENDCHAR
STARTCHAR 3000
ENCODING 12288
SWIDTH 1000 0
DWIDTH 16 0
BBX 0 0 0 0
BITMAP
ENDCHAR
STARTCHAR 3001
ENCODING 12289
SWIDTH 1000 0
DWIDTH 16 0
BBX 3 3 1 -1
BITMAP
C0
60
20
ENDCHAR
STARTCHAR 3002
ENCODING 12290
SWIDTH 1000 0
DWIDTH 16 0
BBX 4 4 1 -1
BITMAP
E0
90
90
E0
ENDCHAR
STARTCHAR 3003
ENCODING 12291
SWIDTH 1000 0
DWIDTH 16 0
BBX 7 7 4 3
BITMAP
32
26
24
24
48
88
90
ENDCHAR
STARTCHAR 3005
ENCODING 12293
SWIDTH 1000 0
DWIDTH 16 0
BBX 11 10 2 2
BITMAP
0800
0400
0400
0840
17E0
2080
2100
CE00
0300
0100
ENDCHAR
STARTCHAR 3006
ENCODING 12294
SWIDTH 1000 0
DWIDTH 16 0
BBX 10 12 3 0
BITMAP
00C0
0040
0080
0100
3A00
4400
4A00
9200
A000
C000
C000
8000
ENDCHAR
STARTCHAR 3007
ENCODING 12295
SWIDTH 1000 0
DWIDTH 16 0
BBX 12 13 2 0
BITMAP
0F00
10C0
6020
8010
8010
8010
8010
8010
8010
8010
4020
30C0
1F80
ENDCHAR
STARTCHAR 3008
ENCODING 12296
SWIDTH 1000 0
DWIDTH 16 0
BBX 6 14 9 -1
BITMAP
04
08
10
20
20
40
80
80
40
20
20
10
08
04
ENDCHAR
STARTCHAR 3009
ENCODING 12297
SWIDTH 1000 0
DWIDTH 16 0
BBX 6 14 1 -1
BITMAP
80
40
20
20
10
08
04
04
08
10
20
20
40
80
ENDCHAR
STARTCHAR 300A
ENCODING 12298
SWIDTH 1000 0
DWIDTH 16 0
BBX 6 14 9 -1
BITMAP
14
14
28
50
50
A0
A0
A0
A0
50
50
28
14
14
ENDCHAR
STARTCHAR 300B
ENCODING 12299
SWIDTH 1000 0
DWIDTH 16 0
BBX 6 14 1 -1
BITMAP
A0
A0
50
50
28
14
14
14
14
28
50
50
A0
A0
ENDCHAR
STARTCHAR 300C
ENCODING 12300
SWIDTH 1000 0
DWIDTH 16 0
BBX 4 11 11 2
BITMAP
F0
80
80
80
80
80
80
80
80
80
80
ENDCHAR
STARTCHAR 300D
ENCODING 12301
SWIDTH 1000 0
DWIDTH 16 0
BBX 4 11 1 -1
BITMAP
10
10
10
10
10
10
10
10
10
10
F0
ENDCHAR
STARTCHAR 300E
ENCODING 12302
SWIDTH 1000 0
DWIDTH 16 0
BBX 6 11 9 2
BITMAP
FC
84
BC
A0
A0
A0
A0
A0
A0
A0
E0
ENDCHAR
STARTCHAR 300F
ENCODING 12303
SWIDTH 1000 0
DWIDTH 16 0
BBX 6 11 1 -1
BITMAP
1C
14
14
14
14
14
14
14
F4
84
FC
ENDCHAR
STARTCHAR 3010
ENCODING 12304
SWIDTH 1000 0
DWIDTH 16 0
BBX 4 14 11 -1
BITMAP
F0
C0
C0
80
80
80
80
80
80
80
80
C0
C0
F0
ENDCHAR
STARTCHAR 3011
ENCODING 12305
SWIDTH 1000 0
DWIDTH 16 0
BBX 4 14 1 -1
BITMAP
F0
30
30
10
10
10
10
10
10
10
10
30
30
F0
ENDCHAR
STARTCHAR 3012
ENCODING 12306
SWIDTH 1000 0
DWIDTH 16 0
BBX 12 13 2 -1
BITMAP
FFF0
FFF0
0000
0000
FFF0
FFF0
0600
0600
0600
0600
0600
0600
0600
ENDCHAR
STARTCHAR 3013
ENCODING 12307
SWIDTH 1000 0
DWIDTH 16 0
BBX 12 7 2 3
BITMAP
FFF0
FFF0
FFF0
0000
0000
FFF0
FFF0
ENDCHAR
STARTCHAR 3014
ENCODING 12308
SWIDTH 1000 0
DWIDTH 16 0
BBX 4 14 11 -1
BITMAP
30
C0
80
80
80
80
80
80
80
80
80
80
C0
30
ENDCHAR
STARTCHAR 3015
ENCODING 12309
SWIDTH 1000 0
DWIDTH 16 0
BBX 4 14 1 -1
BITMAP
C0
30
10
10
10
10
10
10
10
10
10
10
30
C0
ENDCHAR
STARTCHAR 3016
ENCODING 12310
SWIDTH 1000 0
DWIDTH 16 0
BBX 5 14 10 -1
BITMAP
F8
A0
A0
C0
C0
C0
C0
C0
C0
C0
C0
A0
A0
F8
ENDCHAR
STARTCHAR 3017
ENCODING 12311
SWIDTH 1000 0
DWIDTH 16 0
BBX 5 14 1 -1
BITMAP
F8
48
48
28
28
18
18
18
18
28
28
48
48
F8
ENDCHAR
STARTCHAR 3018
ENCODING 12312
SWIDTH 1000 0
DWIDTH 16 0
BBX 5 14 10 -1
BITMAP
18
68
90
A0
A0
A0
A0
A0
A0
A0
A0
90
48
38
ENDCHAR
STARTCHAR 3019
ENCODING 12313
SWIDTH 1000 0
DWIDTH 16 0
BBX 5 14 1 -1
BITMAP
C0
B0
48
28
28
28
28
28
28
28
28
48
90
E0
ENDCHAR
STARTCHAR 301C
ENCODING 12316
SWIDTH 1000 0
DWIDTH 16 0
BBX 14 4 1 4
BITMAP
1C00
660C
8188
00F0
ENDCHAR
STARTCHAR 301D
ENCODING 12317
SWIDTH 1000 0
DWIDTH 16 0
BBX 4 6 11 7
BITMAP
80
40
B0
80
60
10
ENDCHAR
STARTCHAR 301F
ENCODING 12319
SWIDTH 1000 0
DWIDTH 16 0
BBX 4 6 1 -1
BITMAP
80
60
10
C0
20
10
ENDCHAR
STARTCHAR 3020
ENCODING 12320
SWIDTH 1000 0
DWIDTH 16 0
BBX 14 11 1 0
BITMAP
7FF8
0000
7FF8
0300
DB74
AB54
9324
5348
4848
37B0
0FC0
ENDCHAR
STARTCHAR 3033
ENCODING 12339
SWIDTH 1000 0
DWIDTH 16 0
BBX 6 14 4 -2
BITMAP
10
08
0C
08
08
10
10
20
20
40
40
40
80
80
ENDCHAR
STARTCHAR 3034
ENCODING 12340
SWIDTH 1000 0
DWIDTH 16 0
BBX 9 14 4 -2
BITMAP
1000
0800
0C00
0800
0800
1000
1000
2200
2580
4280
4100
4000
8000
8000
ENDCHAR
STARTCHAR 3035
ENCODING 12341
SWIDTH 1000 0
DWIDTH 16 0
BBX 7 14 4 0
BITMAP
80
80
40
40
20
10
10
08
08
0C
04
06
06
02
ENDCHAR
STARTCHAR 303B
ENCODING 12347
SWIDTH 1000 0
DWIDTH 16 0
BBX 7 10 4 1
BITMAP
20
10
0C
10
20
20
18
06
18
E0
ENDCHAR
STARTCHAR 303C
ENCODING 12348
SWIDTH 1000 0
DWIDTH 16 0
BBX 14 14 1 -1
BITMAP
FFFC
800C
8014
8024
8044
8084
8104
8204
8404
8804
9004
A004
C004
FFFC
ENDCHAR
STARTCHAR 303D
ENCODING 12349
SWIDTH 1000 0
DWIDTH 16 0
BBX 11 14 3 -1
BITMAP
6000
A600
1A00
0200
0100
0100
0100
0080
0080
0080
0040
0040
0020
0020
ENDCHAR
STARTCHAR 3041
ENCODING 12353
SWIDTH 1000 0
DWIDTH 16 0
BBX 10 12 3 -1
BITMAP
1000
0800
8B00
7C00
1200
1F80
3440
5440
9840
9040
F080
0700
ENDCHAR
STARTCHAR 3042
ENCODING 12354
SWIDTH 1000 0
DWIDTH 16 0
BBX 12 14 2 -1
BITMAP
0800
0400
4980
3E00
0900
0FC0
1920
2910
4A10
8C10
8810
F820
08C0
0300
ENDCHAR
STARTCHAR 3043
ENCODING 12355
SWIDTH 1000 0
DWIDTH 16 0
BBX 11 9 3 0
BITMAP
8000
8180
8040
8040
9020
9020
A000
6000
2000
ENDCHAR
STARTCHAR 3044
ENCODING 12356
SWIDTH 1000 0
DWIDTH 16 0
BBX 14 10 1 1
BITMAP
8000
4040
4030
4018
4008
4C08
480C
4800
3000
1000
ENDCHAR
STARTCHAR 3045
ENCODING 12357
SWIDTH 1000 0
DWIDTH 16 0
BBX 8 11 4 -1
BITMAP
3C
20
00
BC
C2
01
01
02
02
04
38
ENDCHAR
STARTCHAR 3046
ENCODING 12358
SWIDTH 1000 0
DWIDTH 16 0
BBX 9 14 3 -1
BITMAP
2000
1E00
1000
0000
0F00
B180
C080
0080
0080
0080
0100
0200
0C00
7000
ENDCHAR
STARTCHAR 3047
ENCODING 12359
SWIDTH 1000 0
DWIDTH 16 0
BBX 10 12 3 -1
BITMAP
2000
1E00
1000
0200
4F00
3200
0C00
0C00
1200
6200
C200
81C0
ENDCHAR
STARTCHAR 3048
ENCODING 12360
SWIDTH 1000 0
DWIDTH 16 0
BBX 12 13 2 0
BITMAP
1000
0F80
0800
0000
4380
3D80
0200
0400
0F00
1900
2100
4100
80F0
ENDCHAR
STARTCHAR 3049
ENCODING 12361
SWIDTH 1000 0
DWIDTH 16 0
BBX 11 10 3 0
BITMAP
2000
2180
2C40
F020
2000
2F80
30C0
E040
A0C0
6780
ENDCHAR
STARTCHAR 304A
ENCODING 12362
SWIDTH 1000 0
DWIDTH 16 0
BBX 12 12 2 0
BITMAP
3080
1060
1610
FC10
1000
1000
17C0
3820
5030
9030
9020
63C0
ENDCHAR
STARTCHAR 304B
ENCODING 12363
SWIDTH 1000 0
DWIDTH 16 0
BBX 13 12 2 0
BITMAP
1800
0800
10C0
BE20
D210
1108
2118
2168
4200
5200
8C00
8C00
ENDCHAR
STARTCHAR 304C
ENCODING 12364
SWIDTH 1000 0
DWIDTH 16 0
BBX 14 14 2 0
BITMAP
0010
0048
1834
0810
10C0
BE20
D210
1108
2118
2168
4200
5200
8C00
8C00
ENDCHAR
STARTCHAR 304D
ENCODING 12365
SWIDTH 1000 0
DWIDTH 16 0
BBX 11 13 3 0
BITMAP
1800
0800
0980
7E00
8460
02C0
FF00
0100
0180
0380
4000
6000
1F80
ENDCHAR
STARTCHAR 304E
ENCODING 12366
SWIDTH 1000 0
DWIDTH 16 0
BBX 13 13 3 0
BITMAP
1830
0868
09A0
7E00
8460
02C0
FF00
0100
0180
0380
4000
6000
1F80
ENDCHAR
STARTCHAR 304F
ENCODING 12367
SWIDTH 1000 0
DWIDTH 16 0
BBX 8 14 4 -1
BITMAP
04
06
08
30
40
80
80
C0
20
10
0C
06
02
03
ENDCHAR
STARTCHAR 3050
ENCODING 12368
SWIDTH 1000 0
DWIDTH 16 0
BBX 10 14 4 -1
BITMAP
0400
0600
0800
3080
4340
8100
8000
C000
2000
1000
0C00
0600
0200
0300
ENDCHAR
STARTCHAR 3051
ENCODING 12369
SWIDTH 1000 0
DWIDTH 16 0
BBX 12 14 2 -1
BITMAP
80C0
4040
4040
4040
4FF0
4040
8040
8040
A040
A040
C080
4080
4100
0200
ENDCHAR
STARTCHAR 3052
ENCODING 12370
SWIDTH 1000 0
DWIDTH 16 0
BBX 14 15 2 -1
BITMAP
0010
80CC
4074
4050
4040
4FF0
4040
8040
8040
A040
A040
C080
4080
4100
0200
ENDCHAR
STARTCHAR 3053
ENCODING 12371
SWIDTH 1000 0
DWIDTH 16 0
BBX 10 11 3 1
BITMAP
4000
3F00
0400
1800
0000
0000
0000
0000
8000
C000
3FC0
ENDCHAR
STARTCHAR 3054
ENCODING 12372
SWIDTH 1000 0
DWIDTH 16 0
BBX 12 13 3 1
BITMAP
0020
0090
4060
3F20
0400
1800
0000
0000
0000
0000
8000
C000
3FC0
ENDCHAR
STARTCHAR 3055
ENCODING 12373
SWIDTH 1000 0
DWIDTH 16 0
BBX 11 13 2 0
BITMAP
0C00
0400
0460
0380
FE00
0100
0100
0080
01C0
4040
2000
1000
0F80
ENDCHAR
STARTCHAR 3056
ENCODING 12374
SWIDTH 1000 0
DWIDTH 16 0
BBX 14 14 2 0
BITMAP
0008
0C24
0410
0470
0380
FE00
0100
0100
0080
01C0
4040
2000
1000
0F80
ENDCHAR
STARTCHAR 3057
ENCODING 12375
SWIDTH 1000 0
DWIDTH 16 0
BBX 11 13 3 0
BITMAP
8000
6000
6000
4000
4000
4000
4000
4040
4060
4040
4080
2100
1E00
ENDCHAR
STARTCHAR 3058
ENCODING 12376
SWIDTH 1000 0
DWIDTH 16 0
BBX 11 13 3 0
BITMAP
8000
6000
6180
42C0
4100
4000
4000
4040
4060
4040
4080
2100
1E00
ENDCHAR
STARTCHAR 3059
ENCODING 12377
SWIDTH 1000 0
DWIDTH 16 0
BBX 14 14 1 -1
BITMAP
0300
0100
0100
8FFC
7100
0700
0880
0880
0980
0780
0080
0100
0100
0200
ENDCHAR
STARTCHAR 305A
ENCODING 12378
SWIDTH 1000 0
DWIDTH 16 0
BBX 15 15 1 -1
BITMAP
000C
0316
0108
0100
8FFC
7100
0700
0880
0880
0980
0780
0080
0100
0100
0200
ENDCHAR
STARTCHAR 305B
ENCODING 12379
SWIDTH 1000 0
DWIDTH 16 0
BBX 15 13 0 0
BITMAP
0020
0810
1810
0820
087E
FFA0
0820
08A0
0860
0820
0400
0418
03F8
ENDCHAR
STARTCHAR 305C
ENCODING 12380
SWIDTH 1000 0
DWIDTH 16 0
BBX 16 14 0 0
BITMAP
0002
0029
0814
1814
0820
087E
FFA0
0820
08A0
0860
0820
0400
0418
03F8
ENDCHAR
STARTCHAR 305D
ENCODING 12381
SWIDTH 1000 0
DWIDTH 16 0
BBX 12 12 2 0
BITMAP
3F80
01C0
0200
0C00
13F0
EE00
0400
0800
0800
0800
0400
03C0
ENDCHAR
STARTCHAR 305E
ENCODING 12382
SWIDTH 1000 0
DWIDTH 16 0
BBX 14 14 2 0
BITMAP
0018
002C
3F90
01C0
0200
0C00
13F0
EE00
0400
0800
0800
0800
0400
03C0
ENDCHAR
STARTCHAR 305F
ENCODING 12383
SWIDTH 1000 0
DWIDTH 16 0
BBX 12 13 2 0
BITMAP
0800
0C00
0800
8F00
7000
11E0
2680
2000
2000
4000
4400
8200
81F0
ENDCHAR
STARTCHAR 3060
ENCODING 12384
SWIDTH 1000 0
DWIDTH 16 0
BBX 12 13 2 0
BITMAP
0830
0C50
0820
8F00
7000
11E0
2680
2000
2000
4000
4400
8200
81F0
ENDCHAR
STARTCHAR 3061
ENCODING 12385
SWIDTH 1000 0
DWIDTH 16 0
BBX 11 13 2 0
BITMAP
1000
0800
1300
FE00
1000
2000
2000
27C0
3820
2020
0020
0040
0F80
ENDCHAR
STARTCHAR 3062
ENCODING 12386
SWIDTH 1000 0
DWIDTH 16 0
BBX 12 13 2 0
BITMAP
1020
08D0
1340
FE00
1000
2000
2000
27C0
3820
2020
0020
0040
0F80
ENDCHAR
STARTCHAR 3063
ENCODING 12387
SWIDTH 1000 0
DWIDTH 16 0
BBX 11 7 2 1
BITMAP
0FC0
F060
0020
0020
0020
0040
0F80
ENDCHAR
STARTCHAR 3064
ENCODING 12388
SWIDTH 1000 0
DWIDTH 16 0
BBX 13 9 1 1
BITMAP
03E0
9C18
6008
0008
0008
0008
0010
0060
0780
ENDCHAR
STARTCHAR 3065
ENCODING 12389
SWIDTH 1000 0
DWIDTH 16 0
BBX 15 13 1 1
BITMAP
000C
0016
0008
0000
03E0
9C18
6008
0008
0008
0008
0010
0060
0780
ENDCHAR
STARTCHAR 3066
ENCODING 12390
SWIDTH 1000 0
DWIDTH 16 0
BBX 13 12 1 0
BITMAP
0078
8F80
7200
0200
0400
0400
0400
0400
0400
0400
0220
01F0
ENDCHAR
STARTCHAR 3067
ENCODING 12391
SWIDTH 1000 0
DWIDTH 16 0
BBX 14 12 1 0
BITMAP
0078
8F80
7200
0208
0434
0410
0400
0400
0400
0400
0220
01F0
ENDCHAR
STARTCHAR 3068
ENCODING 12392
SWIDTH 1000 0
DWIDTH 16 0
BBX 10 13 3 0
BITMAP
6000
3000
3000
1080
1180
1600
1800
2000
4000
8000
8000
40C0
3FC0
ENDCHAR
STARTCHAR 3069
ENCODING 12393
SWIDTH 1000 0
DWIDTH 16 0
BBX 12 13 3 0
BITMAP
6030
30D0
3060
1080
1180
1600
1800
2000
4000
8000
8000
40C0
3FC0
ENDCHAR
STARTCHAR 306A
ENCODING 12394
SWIDTH 1000 0
DWIDTH 16 0
BBX 12 13 2 0
BITMAP
1800
0800
8EC0
7020
10D0
2100
2100
4100
C100
8F00
10E0
1190
0F00
ENDCHAR
STARTCHAR 306B
ENCODING 12395
SWIDTH 1000 0
DWIDTH 16 0
BBX 12 12 2 0
BITMAP
4000
67E0
4080
4300
4000
8000
8000
A000
A800
4400
43F0
4000
ENDCHAR
STARTCHAR 306C
ENCODING 12396
SWIDTH 1000 0
DWIDTH 16 0
BBX 13 13 2 0
BITMAP
0400
4200
4200
2F80
3460
6430
6410
A810
9810
91F0
9A30
A9C8
C000
ENDCHAR
STARTCHAR 306D
ENCODING 12397
SWIDTH 1000 0
DWIDTH 16 0
BBX 14 13 1 0
BITMAP
1800
0800
0800
0CE0
7D10
0A08
0C08
1808
2808
68E8
6918
9914
08E4
ENDCHAR
STARTCHAR 306E
ENCODING 12398
SWIDTH 1000 0
DWIDTH 16 0
BBX 13 11 1 0
BITMAP
0FC0
1230
2218
4208
4208
4408
8408
4808
5010
2020
01C0
ENDCHAR
STARTCHAR 306F
ENCODING 12399
SWIDTH 1000 0
DWIDTH 16 0
BBX 13 13 2 0
BITMAP
8100
4080
4080
4090
4FE0
8080
8080
8080
A080
C780
C870
C898
8780
ENDCHAR
STARTCHAR 3070
ENCODING 12400
SWIDTH 1000 0
DWIDTH 16 0
BBX 13 14 2 0
BITMAP
0010
8148
40B0
4090
4090
4FE0
8080
8080
8080
A080
C780
C870
C898
8780
ENDCHAR
STARTCHAR 3071
ENCODING 12401
SWIDTH 1000 0
DWIDTH 16 0
BBX 13 14 2 0
BITMAP
0010
8128
40A8
4098
4090
4FE0
8080
8080
8080
A080
C780
C870
C898
8780
ENDCHAR
STARTCHAR 3072
ENCODING 12402
SWIDTH 1000 0
DWIDTH 16 0
BBX 13 13 2 0
BITMAP
0080
0880
BCC0
D0A0
20A0
2058
4048
4040
8040
8080
4080
6100
1E00
ENDCHAR
STARTCHAR 3073
ENCODING 12403
SWIDTH 1000 0
DWIDTH 16 0
BBX 14 13 2 0
BITMAP
0088
08B4
BCD0
D0A0
20A0
2058
4048
4040
8040
8080
4080
6100
1E00
ENDCHAR
STARTCHAR 3074
ENCODING 12404
SWIDTH 1000 0
DWIDTH 16 0
BBX 14 13 2 0
BITMAP
0098
08AC
BCD8
D0A0
20A0
2058
4048
4040
8040
8080
4080
6100
1E00
ENDCHAR
STARTCHAR 3075
ENCODING 12405
SWIDTH 1000 0
DWIDTH 16 0
BBX 14 13 1 0
BITMAP
0800
0700
01C0
0600
0000
0200
0220
0110
1908
A084
C084
0880
0700
ENDCHAR
STARTCHAR 3076
ENCODING 12406
SWIDTH 1000 0
DWIDTH 16 0
BBX 14 13 1 0
BITMAP
0800
0708
01F4
0618
0000
0200
0220
0110
1908
A084
C084
0880
0700
ENDCHAR
STARTCHAR 3077
ENCODING 12407
SWIDTH 1000 0
DWIDTH 16 0
BBX 14 13 1 0
BITMAP
0800
071C
01E4
0618
0000
0200
0220
0110
1908
A084
C084
0880
0700
ENDCHAR
STARTCHAR 3078
ENCODING 12408
SWIDTH 1000 0
DWIDTH 16 0
BBX 14 8 1 2
BITMAP
0600
0A00
1100
30C0
A060
4030
0018
000C
ENDCHAR
STARTCHAR 3079
ENCODING 12409
SWIDTH 1000 0
DWIDTH 16 0
BBX 14 10 1 2
BITMAP
0030
0050
0620
0A00
1100
30C0
A060
4030
0018
000C
ENDCHAR
STARTCHAR 307A
ENCODING 12410
SWIDTH 1000 0
DWIDTH 16 0
BBX 14 10 1 2
BITMAP
0030
0050
0630
0A00
1100
30C0
A060
4030
0018
000C
ENDCHAR
STARTCHAR 307B
ENCODING 12411
SWIDTH 1000 0
DWIDTH 16 0
BBX 13 12 2 0
BITMAP
4FE0
4080
4080
4080
8FF8
8080
8080
A080
C780
C8F0
C888
4780
ENDCHAR
STARTCHAR 307C
ENCODING 12412
SWIDTH 1000 0
DWIDTH 16 0
BBX 14 14 2 0
BITMAP
0008
0024
4FD0
40A0
4080
4080
8FF8
8080
8080
A080
C780
C8F0
C888
4780
ENDCHAR
STARTCHAR 307D
ENCODING 12413
SWIDTH 1000 0
DWIDTH 16 0
BBX 14 14 2 0
BITMAP
0018
0024
4FEC
4090
4080
4080
8FF8
8080
8080
A080
C780
C8F0
C888
4780
ENDCHAR
STARTCHAR 307E
ENCODING 12414
SWIDTH 1000 0
DWIDTH 16 0
BBX 10 13 3 0
BITMAP
0C00
0400
0400
FFC0
0400
0400
7FC0
0400
0400
7C00
8780
8440
7C00
ENDCHAR
STARTCHAR 307F
ENCODING 12415
SWIDTH 1000 0
DWIDTH 16 0
BBX 14 13 1 -1
BITMAP
1300
1D80
0100
0200
0230
0C10
37D0
4830
8818
9024
6040
0080
0300
ENDCHAR
STARTCHAR 3080
ENCODING 12416
SWIDTH 1000 0
DWIDTH 16 0
BBX 14 13 1 0
BITMAP
1800
0800
8F20
7818
0808
3828
481C
8800
9040
7020
1020
1030
0FE0
ENDCHAR
STARTCHAR 3081
ENCODING 12417
SWIDTH 1000 0
DWIDTH 16 0
BBX 14 13 1 0
BITMAP
0300
2100
1100
17E0
1910
3208
5208
540C
4C08
8808
4C08
7410
03E0
ENDCHAR
STARTCHAR 3082
ENCODING 12418
SWIDTH 1000 0
DWIDTH 16 0
BBX 11 14 2 -1
BITMAP
1800
0800
0800
8B00
7C00
1000
1000
D740
3820
1020
1020
1020
1840
0F80
ENDCHAR
STARTCHAR 3083
ENCODING 12419
SWIDTH 1000 0
DWIDTH 16 0
BBX 12 12 2 -1
BITMAP
0800
0600
6000
13E0
1C30
B810
4830
09E0
0400
0400
0200
0200
ENDCHAR
STARTCHAR 3084
ENCODING 12420
SWIDTH 1000 0
DWIDTH 16 0
BBX 14 14 1 -1
BITMAP
0600
3100
1100
10F0
0F08
1804
E804
0508
04F0
0200
0200
0300
0100
0100
ENDCHAR
STARTCHAR 3085
ENCODING 12421
SWIDTH 1000 0
DWIDTH 16 0
BBX 10 12 3 -1
BITMAP
0400
8200
8380
8EC0
9240
A240
C240
C240
CCC0
8700
0400
1800
ENDCHAR
STARTCHAR 3086
ENCODING 12422
SWIDTH 1000 0
DWIDTH 16 0
BBX 12 14 2 -1
BITMAP
0300
8100
C100
87E0
8910
9110
A110
A110
C110
C920
47C0
4200
0400
0800
ENDCHAR
STARTCHAR 3087
ENCODING 12423
SWIDTH 1000 0
DWIDTH 16 0
BBX 9 12 3 -1
BITMAP
0800
0800
0800
0980
0780
0800
0800
0400
7C00
8700
8480
7800
ENDCHAR
STARTCHAR 3088
ENCODING 12424
SWIDTH 1000 0
DWIDTH 16 0
BBX 10 13 3 0
BITMAP
0C00
0C00
0400
0800
07C0
0400
0400
0400
0400
7C00
8780
84C0
F800
ENDCHAR
STARTCHAR 3089
ENCODING 12425
SWIDTH 1000 0
DWIDTH 16 0
BBX 9 13 4 0
BITMAP
C000
3800
4000
8000
8000
8000
8F00
B180
C080
8080
0080
0100
3E00
ENDCHAR
STARTCHAR 308A
ENCODING 12426
SWIDTH 1000 0
DWIDTH 16 0
BBX 8 14 4 -1
BITMAP
06
C2
43
81
81
C1
C1
81
82
82
02
04
08
30
ENDCHAR
STARTCHAR 308B
ENCODING 12427
SWIDTH 1000 0
DWIDTH 16 0
BBX 11 13 2 0
BITMAP
0100
2680
3B00
0400
0800
1000
2F80
3060
4020
9C20
2620
1240
0F80
ENDCHAR
STARTCHAR 308C
ENCODING 12428
SWIDTH 1000 0
DWIDTH 16 0
BBX 15 13 1 0
BITMAP
1800
0800
0800
08E0
7D10
0A10
1C10
1810
2822
4824
E824
9818
0800
ENDCHAR
STARTCHAR 308D
ENCODING 12429
SWIDTH 1000 0
DWIDTH 16 0
BBX 11 12 2 0
BITMAP
2300
3D80
0200
0400
0800
17C0
3820
4020
8020
0020
0040
0F80
ENDCHAR
STARTCHAR 308E
ENCODING 12430
SWIDTH 1000 0
DWIDTH 16 0
BBX 12 12 2 -1
BITMAP
2000
1800
1000
99C0
6E20
1810
3010
3010
5020
B060
1180
1000
ENDCHAR
STARTCHAR 308F
ENCODING 12431
SWIDTH 1000 0
DWIDTH 16 0
BBX 14 13 1 0
BITMAP
1800
0800
0800
0CF0
7D18
0E08
0804
1804
2804
4808
E818
1860
0880
ENDCHAR
STARTCHAR 3090
ENCODING 12432
SWIDTH 1000 0
DWIDTH 16 0
BBX 12 13 2 0
BITMAP
0600
3A00
0200
0200
0400
1FC0
2420
4810
8810
9710
A490
E460
03C0
ENDCHAR
STARTCHAR 3091
ENCODING 12433
SWIDTH 1000 0
DWIDTH 16 0
BBX 14 13 1 0
BITMAP
0180
1EC0
0300
0400
0FE0
1830
2F30
0960
07C0
0C00
3C70
6688
C30C
ENDCHAR
STARTCHAR 3092
ENCODING 12434
SWIDTH 1000 0
DWIDTH 16 0
BBX 10 13 3 0
BITMAP
1800
0800
9300
FC00
2000
40C0
79C0
C600
9C00
2400
4400
2000
1FC0
ENDCHAR
STARTCHAR 3093
ENCODING 12435
SWIDTH 1000 0
DWIDTH 16 0
BBX 13 12 2 0
BITMAP
0400
0400
0800
0800
1000
1C00
3208
2210
4210
C210
8220
81C0
ENDCHAR
STARTCHAR 3094
ENCODING 12436
SWIDTH 1000 0
DWIDTH 16 0
BBX 12 15 3 -1
BITMAP
0020
2090
1E40
1000
0000
0F00
B180
C080
0080
0080
0080
0100
0200
0C00
7000
ENDCHAR
STARTCHAR 3095
ENCODING 12437
SWIDTH 1000 0
DWIDTH 16 0
BBX 11 10 3 0
BITMAP
3000
1200
1D80
E440
2220
2260
44A0
4400
BC00
8800
ENDCHAR
STARTCHAR 3096
ENCODING 12438
SWIDTH 1000 0
DWIDTH 16 0
BBX 11 12 3 -1
BITMAP
0100
4080
4080
50E0
4F80
8080
8080
A080
C100
4100
4100
4600
ENDCHAR
STARTCHAR 3099
ENCODING 12441
SWIDTH 1000 0
DWIDTH 16 0
BBX 4 3 11 10
BITMAP
20
D0
60
ENDCHAR
STARTCHAR 309A
ENCODING 12442
SWIDTH 1000 0
DWIDTH 16 0
BBX 3 3 12 10
BITMAP
E0
A0
C0
ENDCHAR
STARTCHAR 309B
ENCODING 12443
SWIDTH 1000 0
DWIDTH 16 0
BBX 3 3 1 10
BITMAP
60
A0
40
ENDCHAR
STARTCHAR 309C
ENCODING 12444
SWIDTH 1000 0
DWIDTH 16 0
BBX 3 3 1 10
BITMAP
E0
A0
C0
ENDCHAR
STARTCHAR 309D
ENCODING 12445
SWIDTH 1000 0
DWIDTH 16 0
BBX 5 9 5 2
BITMAP
80
80
40
40
30
18
08
18
20
ENDCHAR
STARTCHAR 309E
ENCODING 12446
SWIDTH 1000 0
DWIDTH 16 0
BBX 8 9 5 2
BITMAP
82
8D
44
40
30
18
08
18
20
ENDCHAR
STARTCHAR 309F
ENCODING 12447
SWIDTH 1000 0
DWIDTH 16 0
BBX 10 14 3 -1
BITMAP
0C00
0400
0FC0
0800
1000
2000
2E00
7100
C100
8100
0100
4200
2400
3800
ENDCHAR
STARTCHAR 30A0
ENCODING 12448
SWIDTH 1000 0
DWIDTH 16 0
BBX 8 4 4 4
BITMAP
FF
00
00
FF
ENDCHAR
STARTCHAR 30A1
ENCODING 12449
SWIDTH 1000 0
DWIDTH 16 0
BBX 10 11 3 -1
BITMAP
80C0
FF80
0100
0A00
0C00
0800
0800
0800
0800
1000
6000
ENDCHAR
STARTCHAR 30A2
ENCODING 12450
SWIDTH 1000 0
DWIDTH 16 0
BBX 12 13 2 -1
BITMAP
8070
7FA0
0040
0080
0700
0600
0600
0400
0400
0400
0800
1000
6000
ENDCHAR
STARTCHAR 30A3
ENCODING 12451
SWIDTH 1000 0
DWIDTH 16 0
BBX 10 11 2 -1
BITMAP
00C0
0080
0100
0600
0A00
7200
8200
0200
0200
0200
0200
ENDCHAR
STARTCHAR 30A4
ENCODING 12452
SWIDTH 1000 0
DWIDTH 16 0
BBX 11 14 1 -1
BITMAP
0040
0020
0060
0080
0100
0700
1900
6100
8100
0100
0100
0100
0100
0100
ENDCHAR
STARTCHAR 30A5
ENCODING 12453
SWIDTH 1000 0
DWIDTH 16 0
BBX 10 12 3 -1
BITMAP
0800
0400
0880
F7C0
4080
4080
4080
0100
0200
0200
0C00
1000
ENDCHAR
STARTCHAR 30A6
ENCODING 12454
SWIDTH 1000 0
DWIDTH 16 0
BBX 10 14 3 -1
BITMAP
0800
0C00
0840
FFC0
8040
4040
4080
4080
C180
0100
0200
0400
0800
3000
ENDCHAR
STARTCHAR 30A7
ENCODING 12455
SWIDTH 1000 0
DWIDTH 16 0
BBX 12 8 2 1
BITMAP
00C0
3F40
0400
0400
0400
0400
8420
7BD0
ENDCHAR
STARTCHAR 30A8
ENCODING 12456
SWIDTH 1000 0
DWIDTH 16 0
BBX 14 8 1 2
BITMAP
3FF0
0200
0200
0200
0200
0200
0200
FFFC
ENDCHAR
STARTCHAR 30A9
ENCODING 12457
SWIDTH 1000 0
DWIDTH 16 0
BBX 12 12 2 -1
BITMAP
0200
0100
0100
8170
7F80
0500
0500
0900
1100
2500
C300
0100
ENDCHAR
STARTCHAR 30AA
ENCODING 12458
SWIDTH 1000 0
DWIDTH 16 0
BBX 14 13 1 0
BITMAP
0180
00C0
0080
0098
7FE4
0180
0280
0640
0440
0840
1040
63C0
8040
ENDCHAR
STARTCHAR 30AB
ENCODING 12459
SWIDTH 1000 0
DWIDTH 16 0
BBX 12 14 2 -1
BITMAP
0400
0200
0200
0230
7FD0
0420
0420
0820
0820
1060
1340
21C0
4080
8000
ENDCHAR
STARTCHAR 30AC
ENCODING 12460
SWIDTH 1000 0
DWIDTH 16 0
BBX 13 15 2 -1
BITMAP
0020
0458
0228
0210
0230
7FD0
0420
0420
0820
0820
1060
1340
21C0
4080
8000
ENDCHAR
STARTCHAR 30AD
ENCODING 12461
SWIDTH 1000 0
DWIDTH 16 0
BBX 12 14 2 -1
BITMAP
1C00
0400
0400
04E0
8F00
7400
0230
03C0
9E00
6200
0100
0100
0100
0100
ENDCHAR
STARTCHAR 30AE
ENCODING 12462
SWIDTH 1000 0
DWIDTH 16 0
BBX 13 14 2 -1
BITMAP
1C18
0468
0410
04E0
8F00
7400
0230
03C0
9E00
6200
0100
0100
0100
0100
ENDCHAR
STARTCHAR 30AF
ENCODING 12463
SWIDTH 1000 0
DWIDTH 16 0
BBX 11 12 2 0
BITMAP
0C00
0460
0BA0
0840
1040
2080
C080
0100
0200
0400
0800
7000
ENDCHAR
STARTCHAR 30B0
ENCODING 12464
SWIDTH 1000 0
DWIDTH 16 0
BBX 14 14 2 0
BITMAP
0008
0024
0C10
0460
0BA0
0840
1040
2080
C080
0100
0200
0400
0800
7000
ENDCHAR
STARTCHAR 30B1
ENCODING 12465
SWIDTH 1000 0
DWIDTH 16 0
BBX 12 13 2 0
BITMAP
2000
1800
1000
1070
3F80
2100
4100
8100
0200
0200
0400
0800
3000
ENDCHAR
STARTCHAR 30B2
ENCODING 12466
SWIDTH 1000 0
DWIDTH 16 0
BBX 14 14 2 0
BITMAP
0008
2024
1810
1000
1070
3F80
2100
4100
8100
0200
0200
0400
0800
3000
ENDCHAR
STARTCHAR 30B3
ENCODING 12467
SWIDTH 1000 0
DWIDTH 16 0
BBX 10 9 3 2
BITMAP
81C0
7EC0
0080
0080
0080
0080
0080
0080
FFC0
ENDCHAR
STARTCHAR 30B4
ENCODING 12468
SWIDTH 1000 0
DWIDTH 16 0
BBX 12 12 3 2
BITMAP
0030
0050
0020
81C0
7EC0
0080
0080
0080
0080
0080
0080
FFC0
ENDCHAR
STARTCHAR 30B5
ENCODING 12469
SWIDTH 1000 0
DWIDTH 16 0
BBX 14 14 1 -1
BITMAP
00C0
1840
0840
0840
88FC
7F40
0840
0840
0840
0080
0080
0100
0600
0800
ENDCHAR
STARTCHAR 30B6
ENCODING 12470
SWIDTH 1000 0
DWIDTH 16 0
BBX 14 15 1 -1
BITMAP
0008
00E4
1858
0848
0840
88FC
7F40
0840
0840
0840
0080
0080
0100
0600
0800
ENDCHAR
STARTCHAR 30B7
ENCODING 12471
SWIDTH 1000 0
DWIDTH 16 0
BBX 13 12 2 0
BITMAP
3000
0C00
0418
C010
3020
1020
0040
0080
0100
0200
4C00
3000
ENDCHAR
STARTCHAR 30B8
ENCODING 12472
SWIDTH 1000 0
DWIDTH 16 0
BBX 13 14 2 0
BITMAP
0010
0048
3020
0C00
0418
C010
3020
1020
0040
0080
0100
0200
4C00
3000
ENDCHAR
STARTCHAR 30B9
ENCODING 12473
SWIDTH 1000 0
DWIDTH 16 0
BBX 13 11 1 0
BITMAP
1FC0
0060
00C0
0080
0100
0100
02C0
0430
0818
3008
C000
ENDCHAR
STARTCHAR 30BA
ENCODING 12474
SWIDTH 1000 0
DWIDTH 16 0
BBX 14 14 1 0
BITMAP
0008
0024
0018
1FC0
0060
00C0
0080
0100
0100
02C0
0430
0818
3008
C000
ENDCHAR
STARTCHAR 30BB
ENCODING 12475
SWIDTH 1000 0
DWIDTH 16 0
BBX 13 12 1 0
BITMAP
1800
0800
0810
09F8
9E30
6840
0880
0800
0800
0800
0430
03F0
ENDCHAR
STARTCHAR 30BC
ENCODING 12476
SWIDTH 1000 0
DWIDTH 16 0
BBX 15 13 1 0
BITMAP
002C
181A
0808
0810
09F8
9E30
6840
0880
0800
0800
0800
0430
03F0
ENDCHAR
STARTCHAR 30BD
ENCODING 12477
SWIDTH 1000 0
DWIDTH 16 0
BBX 11 12 2 0
BITMAP
0060
C020
6020
3060
3040
0040
0080
0180
0300
0600
0800
3000
ENDCHAR
STARTCHAR 30BE
ENCODING 12478
SWIDTH 1000 0
DWIDTH 16 0
BBX 14 14 2 0
BITMAP
0008
0034
0050
C020
6020
3060
3040
0040
0080
0100
0300
0600
0800
3000
ENDCHAR
STARTCHAR 30BF
ENCODING 12479
SWIDTH 1000 0
DWIDTH 16 0
BBX 11 13 2 0
BITMAP
0800
0400
0460
0BA0
0840
1040
2C80
4280
8180
0280
0440
0800
7000
ENDCHAR
STARTCHAR 30C0
ENCODING 12480
SWIDTH 1000 0
DWIDTH 16 0
BBX 14 14 2 0
BITMAP
0008
0824
0410
0460
0BA0
0840
1040
2C80
4280
8180
0280
0440
0800
7000
ENDCHAR
STARTCHAR 30C1
ENCODING 12481
SWIDTH 1000 0
DWIDTH 16 0
BBX 13 14 2 -1
BITMAP
0080
00C0
0700
7A00
0200
0230
FFC8
0200
0200
0400
0400
0800
1000
6000
ENDCHAR
STARTCHAR 30C2
ENCODING 12482
SWIDTH 1000 0
DWIDTH 16 0
BBX 14 15 2 -1
BITMAP
0018
00A4
00D0
0700
7A00
0200
0230
FFC8
0200
0200
0400
0400
0800
1000
6000
ENDCHAR
STARTCHAR 30C3
ENCODING 12483
SWIDTH 1000 0
DWIDTH 16 0
BBX 10 11 3 -1
BITMAP
2080
9040
8880
4880
4080
0100
0200
0600
0800
1000
6000
ENDCHAR
STARTCHAR 30C4
ENCODING 12484
SWIDTH 1000 0
DWIDTH 16 0
BBX 12 12 2 0
BITMAP
1020
8830
8420
4420
4460
4040
00C0
0080
0100
0200
0C00
3000
ENDCHAR
STARTCHAR 30C5
ENCODING 12485
SWIDTH 1000 0
DWIDTH 16 0
BBX 14 14 2 0
BITMAP
0008
0034
1048
8820
8430
4420
4460
4040
00C0
0080
0100
0200
0C00
3000
ENDCHAR
STARTCHAR 30C6
ENCODING 12486
SWIDTH 1000 0
DWIDTH 16 0
BBX 13 13 2 -1
BITMAP
3FC0
0000
0000
0000
8070
FF88
0200
0200
0600
0400
0400
0800
3000
ENDCHAR
STARTCHAR 30C7
ENCODING 12487
SWIDTH 1000 0
DWIDTH 16 0
BBX 14 15 2 -1
BITMAP
0008
0034
3FD0
0000
0000
0000
8070
FF88
0200
0200
0600
0400
0400
0800
3000
ENDCHAR
STARTCHAR 30C8
ENCODING 12488
SWIDTH 1000 0
DWIDTH 16 0
BBX 8 14 5 -1
BITMAP
80
40
40
40
40
70
4C
46
43
40
40
40
40
40
ENDCHAR
STARTCHAR 30C9
ENCODING 12489
SWIDTH 1000 0
DWIDTH 16 0
BBX 8 14 5 -1
BITMAP
80
42
49
46
42
70
4C
46
43
40
40
40
40
40
ENDCHAR
STARTCHAR 30CA
ENCODING 12490
SWIDTH 1000 0
DWIDTH 16 0
BBX 14 13 1 0
BITMAP
0300
0100
0100
0100
81F8
7F04
0100
0100
0200
0200
0400
0400
1800
ENDCHAR
STARTCHAR 30CB
ENCODING 12491
SWIDTH 1000 0
DWIDTH 16 0
BBX 14 8 1 2
BITMAP
2070
1F80
0000
0000
0000
0000
801C
7FE0
ENDCHAR
STARTCHAR 30CC
ENCODING 12492
SWIDTH 1000 0
DWIDTH 16 0
BBX 11 12 2 0
BITMAP
0040
7FC0
0060
0080
3080
0D00
0300
0280
0440
1820
2000
C000
ENDCHAR
STARTCHAR 30CD
ENCODING 12493
SWIDTH 1000 0
DWIDTH 16 0
BBX 13 14 1 -1
BITMAP
0F00
0100
0000
21C0
1EE0
0080
0100
03E0
0D10
1108
6100
8100
0100
0100
ENDCHAR
STARTCHAR 30CE
ENCODING 12494
SWIDTH 1000 0
DWIDTH 16 0
BBX 9 12 3 0
BITMAP
0100
0080
0180
0100
0100
0200
0600
0400
0800
1000
6000
8000
ENDCHAR
STARTCHAR 30CF
ENCODING 12495
SWIDTH 1000 0
DWIDTH 16 0
BBX 14 10 1 1
BITMAP
0800
04C0
0C20
0810
0818
1008
100C
2004
4000
8000
ENDCHAR
STARTCHAR 30D0
ENCODING 12496
SWIDTH 1000 0
DWIDTH 16 0
BBX 14 13 1 1
BITMAP
0010
0048
0034
0810
04C0
0C20
0810
0818
1008
100C
2004
4000
8000
ENDCHAR
STARTCHAR 30D1
ENCODING 12497
SWIDTH 1000 0
DWIDTH 16 0
BBX 14 12 1 1
BITMAP
0018
0024
0818
04C0
0C20
0810
0818
1008
100C
2004
4000
8000
ENDCHAR
STARTCHAR 30D2
ENCODING 12498
SWIDTH 1000 0
DWIDTH 16 0
BBX 10 12 3 0
BITMAP
C000
4000
4080
4180
4600
5800
6000
4000
4000
4000
40C0
3FC0
ENDCHAR
STARTCHAR 30D3
ENCODING 12499
SWIDTH 1000 0
DWIDTH 16 0
BBX 12 13 3 0
BITMAP
0030
C0D0
4020
4080
4180
4600
5800
6000
4000
4000
4000
40C0
3FC0
ENDCHAR
STARTCHAR 30D4
ENCODING 12500
SWIDTH 1000 0
DWIDTH 16 0
BBX 12 13 3 0
BITMAP
0070
C090
4060
4080
4180
4600
5800
6000
4000
4000
4000
40C0
3FC0
ENDCHAR
STARTCHAR 30D5
ENCODING 12501
SWIDTH 1000 0
DWIDTH 16 0
BBX 11 11 3 0
BITMAP
80C0
FF60
00C0
0080
0080
0100
0300
0600
0C00
1000
6000
ENDCHAR
STARTCHAR 30D6
ENCODING 12502
SWIDTH 1000 0
DWIDTH 16 0
BBX 13 14 3 0
BITMAP
0010
0068
0030
80C0
FF60
00C0
0080
0080
0100
0300
0600
0C00
1000
6000
ENDCHAR
STARTCHAR 30D7
ENCODING 12503
SWIDTH 1000 0
DWIDTH 16 0
BBX 14 14 2 0
BITMAP
0018
0024
001C
8060
7FA0
0060
0040
0040
0080
0100
0300
0600
0800
3000
ENDCHAR
STARTCHAR 30D8
ENCODING 12504
SWIDTH 1000 0
DWIDTH 16 0
BBX 14 7 1 3
BITMAP
0600
0B00
1180
1040
A020
4018
000C
ENDCHAR
STARTCHAR 30D9
ENCODING 12505
SWIDTH 1000 0
DWIDTH 16 0
BBX 14 9 1 3
BITMAP
0010
0048
0620
0B00
1180
1040
A020
4018
000C
ENDCHAR
STARTCHAR 30DA
ENCODING 12506
SWIDTH 1000 0
DWIDTH 16 0
BBX 14 9 1 3
BITMAP
0030
0048
0630
0B00
1180
1040
A020
4018
000C
ENDCHAR
STARTCHAR 30DB
ENCODING 12507
SWIDTH 1000 0
DWIDTH 16 0
BBX 12 14 2 -1
BITMAP
0C00
0200
0200
0200
FFF0
0200
0280
2260
4230
4210
C210
9E00
0600
0400
ENDCHAR
STARTCHAR 30DC
ENCODING 12508
SWIDTH 1000 0
DWIDTH 16 0
BBX 13 14 2 -1
BITMAP
0C18
0228
0210
0200
FFF0
0200
0280
2260
4230
4210
C210
9E00
0600
0400
ENDCHAR
STARTCHAR 30DD
ENCODING 12509
SWIDTH 1000 0
DWIDTH 16 0
BBX 13 14 2 -1
BITMAP
0C38
0248
0238
0200
FFF0
0200
0280
2260
4230
4210
C210
9E00
0600
0400
ENDCHAR
STARTCHAR 30DE
ENCODING 12510
SWIDTH 1000 0
DWIDTH 16 0
BBX 12 10 2 1
BITMAP
0020
FFF0
0020
0040
0080
3100
0E00
0200
0300
0100
ENDCHAR
STARTCHAR 30DF
ENCODING 12511
SWIDTH 1000 0
DWIDTH 16 0
BBX 9 12 3 0
BITMAP
3C00
4700
0100
0000
7C00
0300
0000
0000
F800
0600
0300
0080
ENDCHAR
STARTCHAR 30E0
ENCODING 12512
SWIDTH 1000 0
DWIDTH 16 0
BBX 12 12 2 0
BITMAP
0400
0600
0400
0C00
0800
0900
1080
2040
2020
43E0
FC10
0010
ENDCHAR
STARTCHAR 30E1
ENCODING 12513
SWIDTH 1000 0
DWIDTH 16 0
BBX 10 12 2 0
BITMAP
00C0
00C0
0080
2080
1D00
0300
0380
04C0
0840
1000
2000
C000
ENDCHAR
STARTCHAR 30E2
ENCODING 12514
SWIDTH 1000 0
DWIDTH 16 0
BBX 13 11 1 0
BITMAP
7FE0
0400
0400
0430
FFF8
0400
0400
0400
0400
0430
03F0
ENDCHAR
STARTCHAR 30E3
ENCODING 12515
SWIDTH 1000 0
DWIDTH 16 0
BBX 10 11 3 -1
BITMAP
3000
1000
10C0
9F80
F100
0A00
0800
0800
0800
0400
0400
ENDCHAR
STARTCHAR 30E4
ENCODING 12516
SWIDTH 1000 0
DWIDTH 16 0
BBX 12 14 2 -1
BITMAP
3000
1800
0800
0830
0FF0
F860
0840
0580
0400
0400
0400
0200
0200
0200
ENDCHAR
STARTCHAR 30E5
ENCODING 12517
SWIDTH 1000 0
DWIDTH 16 0
BBX 12 8 2 1
BITMAP
4080
3F80
0080
0080
0080
0080
8170
7E80
ENDCHAR
STARTCHAR 30E6
ENCODING 12518
SWIDTH 1000 0
DWIDTH 16 0
BBX 14 8 1 2
BITMAP
3FE0
0060
0040
0040
0040
0040
0040
FFFC
ENDCHAR
STARTCHAR 30E7
ENCODING 12519
SWIDTH 1000 0
DWIDTH 16 0
BBX 8 8 4 1
BITMAP
FF
01
01
7F
02
02
02
FF
ENDCHAR
STARTCHAR 30E8
ENCODING 12520
SWIDTH 1000 0
DWIDTH 16 0
BBX 10 10 3 1
BITMAP
8080
7FC0
0080
0080
7F80
0080
0080
0080
8080
7F40
ENDCHAR
STARTCHAR 30E9
ENCODING 12521
SWIDTH 1000 0
DWIDTH 16 0
BBX 10 12 3 0
BITMAP
7F00
0080
0000
00C0
FFC0
0080
0080
0100
0200
0600
0800
7000
ENDCHAR
STARTCHAR 30EA
ENCODING 12522
SWIDTH 1000 0
DWIDTH 16 0
BBX 7 14 4 -1
BITMAP
06
82
42
42
42
42
42
42
C2
02
04
08
10
60
ENDCHAR
STARTCHAR 30EB
ENCODING 12523
SWIDTH 1000 0
DWIDTH 16 0
BBX 14 12 1 0
BITMAP
0300
1980
0980
0900
0904
0904
0908
1110
1130
2160
41C0
8180
ENDCHAR
STARTCHAR 30EC
ENCODING 12524
SWIDTH 1000 0
DWIDTH 16 0
BBX 11 12 3 0
BITMAP
C000
6000
4000
4020
4040
4040
4080
4300
4400
5800
7000
4000
ENDCHAR
STARTCHAR 30ED
ENCODING 12525
SWIDTH 1000 0
DWIDTH 16 0
BBX 11 10 2 1
BITMAP
C060
7FA0
4020
4020
4020
4040
4040
4040
7FE0
6000
ENDCHAR
STARTCHAR 30EE
ENCODING 12526
SWIDTH 1000 0
DWIDTH 16 0
BBX 10 11 3 -1
BITMAP
0080
FFC0
4080
4080
4080
4100
0100
0200
0400
0800
3000
ENDCHAR
STARTCHAR 30EF
ENCODING 12527
SWIDTH 1000 0
DWIDTH 16 0
BBX 11 12 2 0
BITMAP
0020
FFE0
4020
4020
6040
6040
6080
0080
0100
0200
0400
1800
ENDCHAR
STARTCHAR 30F0
ENCODING 12528
SWIDTH 1000 0
DWIDTH 16 0
BBX 12 14 2 -1
BITMAP
0200
0100
0100
81E0
7F00
1100
1100
1100
91F0
EF00
0100
0100
0100
0100
ENDCHAR
STARTCHAR 30F1
ENCODING 12529
SWIDTH 1000 0
DWIDTH 16 0
BBX 14 10 1 1
BITMAP
4030
3FE0
0040
0380
0300
0100
0200
0200
8238
7DC4
ENDCHAR
STARTCHAR 30F2
ENCODING 12530
SWIDTH 1000 0
DWIDTH 16 0
BBX 10 12 3 0
BITMAP
0040
FFC0
0040
0080
8380
7C80
0100
0100
0200
0400
0800
3000
ENDCHAR
STARTCHAR 30F3
ENCODING 12531
SWIDTH 1000 0
DWIDTH 16 0
BBX 11 12 3 0
BITMAP
8000
6000
3020
3020
0040
0080
0080
0100
0200
0C00
9000
6000
ENDCHAR
STARTCHAR 30F4
ENCODING 12532
SWIDTH 1000 0
DWIDTH 16 0
BBX 13 15 3 -1
BITMAP
0020
0858
0C20
0860
FFC0
8040
4040
4080
4080
C180
0100
0200
0400
0800
3000
ENDCHAR
STARTCHAR 30F5
ENCODING 12533
SWIDTH 1000 0
DWIDTH 16 0
BBX 10 12 3 -1
BITMAP
0800
0400
0400
84C0
7B40
0840
0880
1080
1480
2300
4100
8000
ENDCHAR
STARTCHAR 30F6
ENCODING 12534
SWIDTH 1000 0
DWIDTH 16 0
BBX 11 11 3 -1
BITMAP
3000
1000
2FC0
5220
4200
8400
0400
0400
0800
1000
6000
ENDCHAR
STARTCHAR 30F7
ENCODING 12535
SWIDTH 1000 0
DWIDTH 16 0
BBX 14 14 2 0
BITMAP
0008
0034
0078
FFE0
4020
4020
6040
6040
6080
0080
0100
0200
0400
1800
ENDCHAR
STARTCHAR 30F8
ENCODING 12536
SWIDTH 1000 0
DWIDTH 16 0
BBX 14 15 2 -1
BITMAP
0010
0248
0134
0110
81E0
7F00
1100
1100
1100
91F0
EF00
0100
0100
0100
0100
ENDCHAR
STARTCHAR 30F9
ENCODING 12537
SWIDTH 1000 0
DWIDTH 16 0
BBX 15 13 1 1
BITMAP
0004
0012
0008
4070
3FA0
0040
0380
0300
0100
0200
0200
8238
7DC4
ENDCHAR
STARTCHAR 30FA
ENCODING 12538
SWIDTH 1000 0
DWIDTH 16 0
BBX 13 14 3 0
BITMAP
0010
0068
0070
FFC0
0040
0080
8380
7C80
0100
0100
0200
0400
0800
3000
ENDCHAR
STARTCHAR 30FB
ENCODING 12539
SWIDTH 1000 0
DWIDTH 16 0
BBX 2 2 7 5
BITMAP
C0
C0
ENDCHAR
STARTCHAR 30FC
ENCODING 12540
SWIDTH 1000 0
DWIDTH 16 0
BBX 14 1 1 6
BITMAP
FFFC
ENDCHAR
STARTCHAR 30FD
ENCODING 12541
SWIDTH 1000 0
DWIDTH 16 0
BBX 7 8 4 2
BITMAP
C0
20
10
08
04
06
02
02
ENDCHAR
STARTCHAR 30FE
ENCODING 12542
SWIDTH 1000 0
DWIDTH 16 0
BBX 9 10 4 2
BITMAP
0100
0280
C100
2000
1000
0800
0400
0600
0200
0200
ENDCHAR
STARTCHAR 30FF
ENCODING 12543
SWIDTH 1000 0
DWIDTH 16 0
BBX 11 13 2 -1
BITMAP
8040
7FE0
0040
0040
0040
0040
0040
0040
0040
0040
0040
0040
0040
ENDCHAR
STARTCHAR 31F0
ENCODING 12784
SWIDTH 1000 0
DWIDTH 16 0
BBX 9 10 3 0
BITMAP
0800
0880
1780
1080
2100
4200
8200
0400
0800
7000
ENDCHAR
STARTCHAR 31F1
ENCODING 12785
SWIDTH 1000 0
DWIDTH 16 0
BBX 11 10 3 0
BITMAP
2000
1800
0860
E040
3080
0080
0100
0600
0800
7000
ENDCHAR
STARTCHAR 31F2
ENCODING 12786
SWIDTH 1000 0
DWIDTH 16 0
BBX 10 9 3 0
BITMAP
4300
3E00
0200
0400
0400
0A00
1180
20C0
C040
ENDCHAR
STARTCHAR 31F3
ENCODING 12787
SWIDTH 1000 0
DWIDTH 16 0
BBX 6 12 6 -1
BITMAP
80
80
80
80
40
B0
8C
84
80
80
40
80
ENDCHAR
STARTCHAR 31F4
ENCODING 12788
SWIDTH 1000 0
DWIDTH 16 0
BBX 9 9 3 0
BITMAP
7F00
0180
0300
3200
0C00
0700
0900
3080
C000
ENDCHAR
STARTCHAR 31F5
ENCODING 12789
SWIDTH 1000 0
DWIDTH 16 0
BBX 11 8 2 0
BITMAP
1900
0880
1840
1040
2020
2020
4020
8000
ENDCHAR
STARTCHAR 31F6
ENCODING 12790
SWIDTH 1000 0
DWIDTH 16 0
BBX 8 10 4 0
BITMAP
80
80
83
86
98
60
80
80
40
3F
ENDCHAR
STARTCHAR 31F7
ENCODING 12791
SWIDTH 1000 0
DWIDTH 16 0
BBX 9 10 3 -1
BITMAP
8080
7F80
0080
0100
0100
0200
0400
0800
1000
6000
ENDCHAR
STARTCHAR 31F8
ENCODING 12792
SWIDTH 1000 0
DWIDTH 16 0
BBX 12 6 2 2
BITMAP
0C00
1200
1100
2080
C060
0030
ENDCHAR
STARTCHAR 31F9
ENCODING 12793
SWIDTH 1000 0
DWIDTH 16 0
BBX 10 11 3 -1
BITMAP
0C00
0400
08C0
FF00
0A00
4980
48C0
C440
9440
0C00
0800
ENDCHAR
STARTCHAR 31FA
ENCODING 12794
SWIDTH 1000 0
DWIDTH 16 0
BBX 10 10 3 0
BITMAP
0800
0800
0800
1000
1200
2100
2080
4180
FE40
0040
ENDCHAR
STARTCHAR 31FB
ENCODING 12795
SWIDTH 1000 0
DWIDTH 16 0
BBX 8 10 4 0
BITMAP
7E
00
00
FF
01
02
02
04
08
70
ENDCHAR
STARTCHAR 31FC
ENCODING 12796
SWIDTH 1000 0
DWIDTH 16 0
BBX 7 11 4 -1
BITMAP
06
C2
42
42
42
42
44
04
08
10
60
ENDCHAR
STARTCHAR 31FD
ENCODING 12797
SWIDTH 1000 0
DWIDTH 16 0
BBX 12 10 2 0
BITMAP
0400
2200
1A00
0A00
1210
1220
1240
2280
2300
C200
ENDCHAR
STARTCHAR 31FE
ENCODING 12798
SWIDTH 1000 0
DWIDTH 16 0
BBX 9 10 4 0
BITMAP
8000
4000
4000
4080
4100
4200
4400
4800
7000
4000
ENDCHAR
STARTCHAR 31FF
ENCODING 12799
SWIDTH 1000 0
DWIDTH 16 0
BBX 10 9 3 0
BITMAP
8000
7F80
40C0
4080
4080
4080
4080
7F80
4000
ENDCHAR
STARTCHAR 3231
ENCODING 12849
SWIDTH 1000 0
DWIDTH 16 0
BBX 14 14 1 -1
BITMAP
4008
5848
9148
9654
BFF4
9244
9FFC
94C4
F164
D164
9254
9458
5048
4008
ENDCHAR
STARTCHAR 3232
ENCODING 12850
SWIDTH 1000 0
DWIDTH 16 0
BBX 14 14 1 -1
BITMAP
4008
4208
8418
BFF4
8804
8FE4
8844
9FC4
A844
CFC4
8844
8848
49C8
4008
ENDCHAR
STARTCHAR 3239
ENCODING 12857
SWIDTH 1000 0
DWIDTH 16 0
BBX 14 14 1 -1
BITMAP
4008
4D88
8968
9124
9114
9FE4
B084
D084
9084
9094
9054
9058
5038
4008
ENDCHAR
STARTCHAR 3251
ENCODING 12881
SWIDTH 1000 0
DWIDTH 16 0
BBX 14 15 1 -2
BITMAP
0FC0
3020
5C50
A6C8
B244
8444
8444
8844
8844
9244
A244
7E68
2090
1820
0FC0
ENDCHAR
STARTCHAR 3252
ENCODING 12882
SWIDTH 1000 0
DWIDTH 16 0
BBX 14 15 1 -2
BITMAP
0FC0
3020
5CF0
A538
B394
8424
8424
8844
8844
9294
A314
7FF8
2010
1820
0FC0
ENDCHAR
STARTCHAR 3253
ENCODING 12883
SWIDTH 1000 0
DWIDTH 16 0
BBX 14 16 1 -2
BITMAP
0780
1860
2010
5CE8
B298
B214
8414
8464
8834
8814
9394
A318
7EE8
2010
1820
07C0
ENDCHAR
STARTCHAR 3254
ENCODING 12884
SWIDTH 1000 0
DWIDTH 16 0
BBX 14 16 1 -2
BITMAP
0780
1860
2010
5C28
A468
B2A4
84A4
8524
8924
91F4
9224
A224
7E68
2010
1820
07C0
ENDCHAR
STARTCHAR 3255
ENCODING 12885
SWIDTH 1000 0
DWIDTH 16 0
BBX 14 16 1 -2
BITMAP
0780
1860
2010
5CF8
A288
B304
8504
84E4
8814
8814
9394
A294
7EE8
2010
1820
07C0
ENDCHAR
STARTCHAR 3256
ENCODING 12886
SWIDTH 1000 0
DWIDTH 16 0
BBX 14 15 1 -2
BITMAP
0FC0
3020
5C70
A498
B2B4
8504
8564
8994
9114
9314
A294
7EE8
2010
1820
0FC0
ENDCHAR
STARTCHAR 3257
ENCODING 12887
SWIDTH 1000 0
DWIDTH 16 0
BBX 14 16 1 -2
BITMAP
0780
1860
2010
5DF8
A528
B324
8424
8444
8844
9044
9244
A244
7E48
2010
1820
07C0
ENDCHAR
STARTCHAR 3258
ENCODING 12888
SWIDTH 1000 0
DWIDTH 16 0
BBX 14 15 1 -2
BITMAP
0FC0
3020
5CF0
A498
B294
84A4
8464
88A4
9114
9314
A294
7EE8
2010
1820
0FC0
ENDCHAR
STARTCHAR 3259
ENCODING 12889
SWIDTH 1000 0
DWIDTH 16 0
BBX 14 15 1 -2
BITMAP
0FC0
3020
5CF0
A498
B314
8514
8494
88F4
9014
9214
A2A4
7EE8
2010
1820
0FC0
ENDCHAR
STARTCHAR 325A
ENCODING 12890
SWIDTH 1000 0
DWIDTH 16 0
BBX 14 15 1 -1
BITMAP
0780
1860
2010
5CE8
A4A4
8494
8494
9914
8514
8494
A694
A4A8
5CF0
3020
0FC0
ENDCHAR
STARTCHAR 325B
ENCODING 12891
SWIDTH 1000 0
DWIDTH 16 0
BBX 14 16 1 -2
BITMAP
0780
1860
2010
5CC8
B448
8244
8444
8844
8444
8244
A244
B648
5C68
2090
1820
07C0
ENDCHAR
STARTCHAR 325C
ENCODING 12892
SWIDTH 1000 0
DWIDTH 16 0
BBX 14 16 1 -2
BITMAP
0780
1860
2010
5CE8
B598
8594
8424
9824
8444
8244
A294
A518
5DF8
2010
1820
07C0
ENDCHAR
STARTCHAR 325D
ENCODING 12893
SWIDTH 1000 0
DWIDTH 16 0
BBX 14 15 1 -1
BITMAP
0780
1860
2010
5CE8
B494
8414
8414
9864
8434
8214
A394
A518
5CF0
3020
0FC0
ENDCHAR
STARTCHAR 325E
ENCODING 12894
SWIDTH 1000 0
DWIDTH 16 0
BBX 14 16 1 -2
BITMAP
0780
1860
2010
5C28
B468
84A4
84A4
9924
8524
83F4
A224
A424
5C68
2010
1820
07C0
ENDCHAR
STARTCHAR 325F
ENCODING 12895
SWIDTH 1000 0
DWIDTH 16 0
BBX 14 15 1 -1
BITMAP
0780
1860
2010
5CF8
A488
B504
8564
9894
8414
8214
A394
A518
5CF0
3020
0FC0
ENDCHAR
STARTCHAR 32A4
ENCODING 12964
SWIDTH 1000 0
DWIDTH 16 0
BBX 14 14 1 -1
BITMAP
0F80
1060
6310
8208
8204
8224
83E4
8204
8204
8224
7FF8
6010
1020
0FC0
ENDCHAR
STARTCHAR 32A5
ENCODING 12965
SWIDTH 1000 0
DWIDTH 16 0
BBX 14 15 1 -1
BITMAP
0780
1860
2310
4208
A224
9FF4
A224
A224
A224
9FE4
8204
4208
2210
1020
0FC0
ENDCHAR
STARTCHAR 32A6
ENCODING 12966
SWIDTH 1000 0
DWIDTH 16 0
BBX 14 15 1 -1
BITMAP
0780
1860
2010
4028
BFF4
8204
8204
83C4
8224
8204
8204
4208
2210
1020
0FC0
ENDCHAR
STARTCHAR 32A7
ENCODING 12967
SWIDTH 1000 0
DWIDTH 16 0
BBX 14 14 1 -1
BITMAP
0FC0
3030
4618
8428
BFF4
8404
8844
8FE4
9104
A124
5FF8
2010
1820
0FC0
ENDCHAR
STARTCHAR 32A8
ENCODING 12968
SWIDTH 1000 0
DWIDTH 16 0
BBX 14 14 1 -1
BITMAP
0FC0
3420
4618
8418
BFF4
8404
8804
8FE4
9824
E824
4FE8
2830
1020
0FC0
ENDCHAR
STARTCHAR 32B1
ENCODING 12977
SWIDTH 1000 0
DWIDTH 16 0
BBX 14 15 1 -1
BITMAP
0780
1860
2010
5C68
B4B4
8484
8564
9994
8514
8314
A314
A4A8
5C70
3020
0FC0
ENDCHAR
STARTCHAR 32B2
ENCODING 12978
SWIDTH 1000 0
DWIDTH 16 0
BBX 14 15 1 -1
BITMAP
0780
1860
2010
5DF8
A528
B524
8424
9844
8444
8244
A244
A448
5C50
3020
0FC0
ENDCHAR
STARTCHAR 32B3
ENCODING 12979
SWIDTH 1000 0
DWIDTH 16 0
BBX 14 15 1 -1
BITMAP
0780
1860
2010
5CE8
B494
8494
84A4
9864
84A4
8314
A314
A498
5CF0
3020
0FC0
ENDCHAR
STARTCHAR 32B4
ENCODING 12980
SWIDTH 1000 0
DWIDTH 16 0
BBX 14 15 1 -1
BITMAP
0780
1860
2010
5CE8
B514
8314
8514
8894
84F4
8214
A294
A4A8
5CF0
3020
0FC0
ENDCHAR
STARTCHAR 32B5
ENCODING 12981
SWIDTH 1000 0
DWIDTH 16 0
BBX 14 16 1 -2
BITMAP
0780
1860
2010
4868
88A8
9894
A894
A894
C894
BE94
8894
88A4
4C68
3010
1820
07C0
ENDCHAR
STARTCHAR 32B6
ENCODING 12982
SWIDTH 1000 0
DWIDTH 16 0
BBX 14 16 1 -2
BITMAP
0780
1860
2010
44C8
8C48
9444
9444
A444
A444
BE44
8444
8444
4C68
2290
1820
07C0
ENDCHAR
STARTCHAR 32B7
ENCODING 12983
SWIDTH 1000 0
DWIDTH 16 0
BBX 14 16 1 -2
BITMAP
0780
1860
2010
48E8
89B8
9994
A824
A824
C844
BC44
8894
8914
4DF8
3010
1820
07C0
ENDCHAR
STARTCHAR 32B8
ENCODING 12984
SWIDTH 1000 0
DWIDTH 16 0
BBX 14 16 1 -2
BITMAP
0780
1860
2010
48E8
8998
9814
A824
A844
C834
FC14
8994
8914
4CE8
3010
1820
07C0
ENDCHAR
STARTCHAR 32B9
ENCODING 12985
SWIDTH 1000 0
DWIDTH 16 0
BBX 14 16 1 -2
BITMAP
0780
1860
2010
4828
8868
98A4
A8A4
A924
C924
FDF4
8824
8824
4C68
3010
1820
07C0
ENDCHAR
STARTCHAR 32BA
ENCODING 12986
SWIDTH 1000 0
DWIDTH 16 0
BBX 14 16 1 -2
BITMAP
0780
1860
2010
48E8
8908
9904
A964
A9B4
C814
FC14
8994
8994
4CE8
3010
1820
07C0
ENDCHAR
STARTCHAR 32BB
ENCODING 12987
SWIDTH 1000 0
DWIDTH 16 0
BBX 14 16 1 -2
BITMAP
0780
1860
2010
4868
88B8
9884
A904
A9E4
C994
BD14
8914
8894
4C68
3010
1820
07C0
ENDCHAR
STARTCHAR 32BC
ENCODING 12988
SWIDTH 1000 0
DWIDTH 16 0
BBX 14 16 1 -2
BITMAP
0780
1860
2010
49F8
8928
9924
9824
A844
A844
BE44
8844
8844
4C48
3010
1820
07C0
ENDCHAR
STARTCHAR 32BD
ENCODING 12989
SWIDTH 1000 0
DWIDTH 16 0
BBX 14 16 1 -2
BITMAP
0780
1860
2010
48E8
8898
9894
A8A4
A864
C8A4
FD14
8914
8994
4CE8
3010
1820
07C0
ENDCHAR
STARTCHAR 32BE
ENCODING 12990
SWIDTH 1000 0
DWIDTH 16 0
BBX 14 16 1 -2
BITMAP
0780
1860
2010
48E8
8918
9914
A914
A894
C8F4
BE14
8894
88A4
4CE8
3010
1820
07C0
ENDCHAR
STARTCHAR 32BF
ENCODING 12991
SWIDTH 1000 0
DWIDTH 16 0
BBX 14 15 1 -1
BITMAP
0780
1860
2010
5CE8
A0A8
A094
BC94
A514
8314
8294
B294
A4A8
5CF0
3020
0FC0
ENDCHAR
STARTCHAR 32D0
ENCODING 13008
SWIDTH 1000 0
DWIDTH 16 0
BBX 14 14 1 -1
BITMAP
0FC0
3030
4018
9FF8
8064
8484
8304
8104
8204
8204
8208
4410
3820
0FC0
ENDCHAR
STARTCHAR 32D1
ENCODING 13009
SWIDTH 1000 0
DWIDTH 16 0
BBX 14 14 1 -1
BITMAP
0FC0
3030
4058
8068
8084
8304
8504
9904
A104
8104
8108
4110
3120
0FC0
ENDCHAR
STARTCHAR 32D2
ENCODING 13010
SWIDTH 1000 0
DWIDTH 16 0
BBX 14 14 1 -1
BITMAP
0FC0
3030
4318
8108
9FE4
9034
9024
9024
9844
8044
8088
4110
3620
0FC0
ENDCHAR
STARTCHAR 32D3
ENCODING 13011
SWIDTH 1000 0
DWIDTH 16 0
BBX 14 14 1 -1
BITMAP
0FC0
3030
4018
8008
9FE4
8204
8204
8204
8204
C234
BDC8
4010
3020
0FC0
ENDCHAR
STARTCHAR 32D4
ENCODING 13012
SWIDTH 1000 0
DWIDTH 16 0
BBX 14 14 1 -1
BITMAP
0FC0
31B0
4098
8088
BFF4
8184
8284
8484
8484
8884
B388
4090
3020
0FC0
ENDCHAR
STARTCHAR 32D5
ENCODING 13013
SWIDTH 1000 0
DWIDTH 16 0
BBX 14 14 1 -1
BITMAP
0FC0
3330
4118
8108
9FF4
8214
8224
8224
8424
8524
88C8
50D0
3020
0FC0
ENDCHAR
STARTCHAR 32D6
ENCODING 13014
SWIDTH 1000 0
DWIDTH 16 0
BBX 14 14 1 -1
BITMAP
0FC0
3030
4618
8208
82E4
9F04
8104
81F4
BF04
8104
8088
4090
3020
0FC0
ENDCHAR
STARTCHAR 32D7
ENCODING 13015
SWIDTH 1000 0
DWIDTH 16 0
BBX 14 14 1 -1
BITMAP
0FC0
3030
4318
82E8
8334
8424
8844
9044
8084
8104
8208
4C10
3020
0FC0
ENDCHAR
STARTCHAR 32D8
ENCODING 13016
SWIDTH 1000 0
DWIDTH 16 0
BBX 14 14 1 -1
BITMAP
0FC0
3030
4418
8408
8BF4
8C84
9084
A084
8104
8104
8208
4410
3820
0FC0
ENDCHAR
STARTCHAR 32D9
ENCODING 13017
SWIDTH 1000 0
DWIDTH 16 0
BBX 14 14 1 -1
BITMAP
0FC0
3030
4018
9028
8FE4
8024
8024
8044
8044
8044
9FE8
4010
3020
0FC0
ENDCHAR
STARTCHAR 32DA
ENCODING 13018
SWIDTH 1000 0
DWIDTH 16 0
BBX 14 14 1 -1
BITMAP
0FC0
3030
48D8
8448
8444
BFFC
8444
8444
8484
8084
8088
4310
3420
0FC0
ENDCHAR
STARTCHAR 32DB
ENCODING 13019
SWIDTH 1000 0
DWIDTH 16 0
BBX 14 14 1 -1
BITMAP
0FC0
3030
4818
8608
8314
B814
8424
8024
8044
8184
9208
4C10
3020
0FC0
ENDCHAR
STARTCHAR 32DC
ENCODING 13020
SWIDTH 1000 0
DWIDTH 16 0
BBX 14 14 1 -1
BITMAP
0FC0
3030
4058
8FC8
8084
8084
8104
8184
8264
8434
9818
6010
3020
0FC0
ENDCHAR
STARTCHAR 32DD
ENCODING 13021
SWIDTH 1000 0
DWIDTH 16 0
BBX 14 14 1 -1
BITMAP
0FC0
3030
4818
8408
8824
C7F4
B844
8884
8804
8804
8408
43F0
3020
0FC0
ENDCHAR
STARTCHAR 32DE
ENCODING 13022
SWIDTH 1000 0
DWIDTH 16 0
BBX 14 14 1 -1
BITMAP
0FC0
3030
4058
9038
8824
8C24
8444
8044
8084
8104
8208
4410
3820
0FC0
ENDCHAR
STARTCHAR 32DF
ENCODING 13023
SWIDTH 1000 0
DWIDTH 16 0
BBX 14 14 1 -1
BITMAP
0FC0
3030
4318
82E8
8324
8424
8A44
9184
80C4
8144
8208
4C10
3020
0FC0
ENDCHAR
STARTCHAR 32E0
ENCODING 13024
SWIDTH 1000 0
DWIDTH 16 0
BBX 14 14 1 -1
BITMAP
0FC0
3030
4058
8388
BD04
8104
BFF4
8104
8104
8204
8208
4C10
3020
0FC0
ENDCHAR
STARTCHAR 32E1
ENCODING 13025
SWIDTH 1000 0
DWIDTH 16 0
BBX 14 14 1 -1
BITMAP
0FC0
3030
4018
8238
9214
8B24
8824
8044
8044
8084
8108
4210
3C20
0FC0
ENDCHAR
STARTCHAR 32E2
ENCODING 13026
SWIDTH 1000 0
DWIDTH 16 0
BBX 14 14 1 -1
BITMAP
0FC0
3030
5058
8FA8
8004
8034
BFC4
8104
8104
8104
8208
4410
3820
0FC0
ENDCHAR
STARTCHAR 32E3
ENCODING 13027
SWIDTH 1000 0
DWIDTH 16 0
BBX 14 14 1 -1
BITMAP
0FC0
3030
4618
8408
8404
8204
8584
8464
8424
8404
8208
4410
3020
0FC0
ENDCHAR
STARTCHAR 32E5
ENCODING 13029
SWIDTH 1000 0
DWIDTH 16 0
BBX 14 14 1 -1
BITMAP
0FC0
3030
4018
8008
9FE4
8004
8004
8004
BFF4
8004
8008
4010
3020
0FC0
ENDCHAR
STARTCHAR 32E9
ENCODING 13033
SWIDTH 1000 0
DWIDTH 16 0
BBX 14 14 1 -1
BITMAP
0FC0
3030
4018
8C88
8444
8424
8814
8814
9014
A004
8008
4010
3020
0FC0
ENDCHAR
STARTCHAR 32EC
ENCODING 13036
SWIDTH 1000 0
DWIDTH 16 0
BBX 14 14 1 -1
BITMAP
0FC0
3030
4018
8608
8B04
8904
90C4
D064
A034
8014
8008
4010
3020
0FC0
ENDCHAR
STARTCHAR 32ED
ENCODING 13037
SWIDTH 1000 0
DWIDTH 16 0
BBX 14 14 1 -1
BITMAP
0FC0
3230
4118
8108
A174
9F84
8944
8924
9114
B114
A708
4210
3020
0FC0
ENDCHAR
STARTCHAR 32FA
ENCODING 13050
SWIDTH 1000 0
DWIDTH 16 0
BBX 14 14 1 -1
BITMAP
0FC0
3030
4018
9028
9FE4
9024
9024
9024
9044
9024
9FC8
4010
3020
0FC0
ENDCHAR
STARTCHAR 3303
ENCODING 13059
SWIDTH 1000 0
DWIDTH 16 0
BBX 14 14 1 -1
BITMAP
FE00
0400
1800
11FC
1000
1000
2000
5800
2800
2900
2A00
4A00
4C00
8800
ENDCHAR
STARTCHAR 330D
ENCODING 13069
SWIDTH 1000 0
DWIDTH 16 0
BBX 14 15 1 -1
BITMAP
2000
1000
FCFC
2688
2488
2488
5CF8
8880
0800
4C00
4800
49FC
4800
0800
3000
ENDCHAR
STARTCHAR 3314
ENCODING 13076
SWIDTH 1000 0
DWIDTH 16 0
BBX 14 14 1 -1
BITMAP
3000
1000
FE00
1000
0F00
F800
0800
0800
01FC
0104
0088
0088
0088
00F4
ENDCHAR
STARTCHAR 3318
ENCODING 13080
SWIDTH 1000 0
DWIDTH 16 0
BBX 14 15 1 -1
BITMAP
0200
2378
3C00
24FC
4808
8808
1010
2020
C040
1000
1000
2800
4400
CE00
F200
ENDCHAR
STARTCHAR 3322
ENCODING 13090
SWIDTH 1000 0
DWIDTH 16 0
BBX 14 14 1 -1
BITMAP
6080
2644
FC04
2808
2030
38C0
0400
0400
3800
5000
FE00
1000
1000
6000
ENDCHAR
STARTCHAR 3323
ENCODING 13091
SWIDTH 1000 0
DWIDTH 16 0
BBX 14 14 1 -1
BITMAP
6080
2644
FC04
2808
2010
3920
04C0
2000
2000
3000
2800
2400
2000
2000
ENDCHAR
STARTCHAR 3326
ENCODING 13094
SWIDTH 1000 0
DWIDTH 16 0
BBX 13 14 2 -1
BITMAP
D000
5800
5000
6000
5800
4800
4080
4340
0140
0148
0250
0250
0460
0840
ENDCHAR
STARTCHAR 3327
ENCODING 13095
SWIDTH 1000 0
DWIDTH 16 0
BBX 13 14 2 -1
BITMAP
8000
8000
8000
E000
9800
8800
8000
8300
0088
0010
0010
0020
02C0
0100
ENDCHAR
STARTCHAR 332B
ENCODING 13099
SWIDTH 1000 0
DWIDTH 16 0
BBX 14 15 1 -1
BITMAP
0600
0600
2800
2604
45F8
4200
8200
0000
4430
4250
7A50
D09C
6094
4110
3A10
ENDCHAR
STARTCHAR 3336
ENCODING 13110
SWIDTH 1000 0
DWIDTH 16 0
BBX 15 14 1 -1
BITMAP
0024
3058
5848
8590
0210
0020
00C0
2010
5870
5030
B7B6
1054
3058
C090
ENDCHAR
STARTCHAR 333B
ENCODING 13115
SWIDTH 1000 0
DWIDTH 16 0
BBX 14 14 1 -1
BITMAP
0C00
3600
5800
4DFC
8600
0200
0200
6600
1000
C200
2400
0800
1000
6000
ENDCHAR
STARTCHAR 3349
ENCODING 13129
SWIDTH 1000 0
DWIDTH 16 0
BBX 12 14 2 -1
BITMAP
E000
1000
C000
3000
0000
E020
1910
0110
0110
0110
0110
0020
0020
00C0
ENDCHAR
STARTCHAR 334A
ENCODING 13130
SWIDTH 1000 0
DWIDTH 16 0
BBX 16 14 0 -1
BITMAP
3C64
0024
3C24
0024
3804
0408
0010
0428
0638
2818
27DB
242A
442C
8048
ENDCHAR
STARTCHAR 334D
ENCODING 13133
SWIDTH 1000 0
DWIDTH 16 0
BBX 14 14 1 -1
BITMAP
0C00
4800
3800
19FC
2400
4000
8000
6020
20A0
20A4
38A4
24A8
2130
2220
ENDCHAR
STARTCHAR 3351
ENCODING 13137
SWIDTH 1000 0
DWIDTH 16 0
BBX 13 14 2 -1
BITMAP
9800
8A90
8950
9120
1020
1040
6180
C040
4140
4148
7148
4950
4260
4440
ENDCHAR
STARTCHAR 3357
ENCODING 13143
SWIDTH 1000 0
DWIDTH 16 0
BBX 13 14 1 -1
BITMAP
8C00
F748
44A8
4888
0810
1020
20C0
2000
2000
2000
3800
2400
2000
2000
ENDCHAR
STARTCHAR 337B
ENCODING 13179
SWIDTH 1000 0
DWIDTH 16 0
BBX 15 14 0 -1
BITMAP
0218
7F14
1016
52FE
5290
3492
34F4
1AAC
FFAC
10AC
10AA
116E
1116
1122
ENDCHAR
STARTCHAR 337C
ENCODING 13180
SWIDTH 1000 0
DWIDTH 16 0
BBX 14 14 1 -1
BITMAP
0200
DE64
EBDC
CA54
CBF4
D254
DCD4
E0D4
DF74
D354
D254
D25C
1E54
1240
ENDCHAR
STARTCHAR 337D
ENCODING 13181
SWIDTH 1000 0
DWIDTH 16 0
BBX 15 14 0 -1
BITMAP
0804
08FE
0810
0A10
7F10
0850
085E
1850
1850
1450
2250
2252
41FE
8000
ENDCHAR
STARTCHAR 337E
ENCODING 13182
SWIDTH 1000 0
DWIDTH 16 0
BBX 14 14 1 -1
BITMAP
0420
FE98
B4D0
B658
BD64
F4AC
B474
B480
BCBC
F524
B524
14A4
24BC
4CA4
ENDCHAR
STARTCHAR 338E
ENCODING 13198
SWIDTH 1000 0
DWIDTH 16 0
BBX 14 10 1 -1
BITMAP
F47C
5A8C
5288
5288
5270
5280
5270
D28C
0C84
00F8
ENDCHAR
STARTCHAR 338F
ENCODING 13199
SWIDTH 1000 0
DWIDTH 16 0
BBX 14 13 1 -1
BITMAP
C000
4000
4000
4000
4EFC
4888
5088
70F0
4880
48F0
450C
AB04
00F8
ENDCHAR
STARTCHAR 339C
ENCODING 13212
SWIDTH 1000 0
DWIDTH 16 0
BBX 14 8 1 1
BITMAP
ACF8
D5A4
94A4
94A4
94A4
94A4
94A4
F7BC
ENDCHAR
STARTCHAR 339D
ENCODING 13213
SWIDTH 1000 0
DWIDTH 16 0
BBX 14 8 1 1
BITMAP
39D8
4B28
8928
8128
8128
8128
4D28
3BEC
ENDCHAR
STARTCHAR 339E
ENCODING 13214
SWIDTH 1000 0
DWIDTH 16 0
BBX 15 11 1 1
BITMAP
C000
4000
4000
4000
5FF8
5124
6124
5124
5124
4924
DFFE
ENDCHAR
STARTCHAR 33A1
ENCODING 13217
SWIDTH 1000 0
DWIDTH 16 0
BBX 13 13 2 1
BITMAP
0030
0028
0010
0028
0038
4000
DDC0
6620
4220
4220
4220
4220
EF70
ENDCHAR
STARTCHAR 33C4
ENCODING 13252
SWIDTH 1000 0
DWIDTH 16 0
BBX 12 8 2 1
BITMAP
70E0
C910
8930
8200
8200
8300
C910
70E0
ENDCHAR
STARTCHAR 33CB
ENCODING 13259
SWIDTH 1000 0
DWIDTH 16 0
BBX 14 11 1 1
BITMAP
F3F8
208C
2084
2084
208C
3FF8
2080
2080
2080
2080
F3C0
ENDCHAR
STARTCHAR 33CD
ENCODING 13261
SWIDTH 1000 0
DWIDTH 16 0
BBX 14 11 1 1
BITMAP
D9F8
90A0
A0A0
A0A0
A0C0
60E0
50A0
90A0
9090
8A94
DFDC
ENDCHAR
STARTCHAR 3402
ENCODING 13314
SWIDTH 1000 0
DWIDTH 16 0
BBX 14 14 1 -1
BITMAP
0800
0810
09E8
FE00
0820
0820
0FE0
3040
2244
3C78
E1C0
2448
2248
3E7C
ENDCHAR
STARTCHAR 3406
ENCODING 13318
SWIDTH 1000 0
DWIDTH 16 0
BBX 9 14 3 -1
BITMAP
0180
3E00
2100
3F80
2080
3F80
2080
3F80
2100
7F80
4080
4080
4080
8F00
ENDCHAR
STARTCHAR 342C
ENCODING 13356
SWIDTH 1000 0
DWIDTH 16 0
BBX 14 14 1 -1
BITMAP
0300
0208
FFFC
0200
0460
0810
7FE8
0000
1320
1220
1224
2224
223C
C000
ENDCHAR
STARTCHAR 342E
ENCODING 13358
SWIDTH 1000 0
DWIDTH 16 0
BBX 14 16 1 -2
BITMAP
0100
0208
FFFC
0480
1870
EC48
7FF8
0850
7FF8
0848
FFFC
0510
1898
E860
0FB8
700C
ENDCHAR
STARTCHAR 3468
ENCODING 13416
SWIDTH 1000 0
DWIDTH 16 0
BBX 14 14 1 -1
BITMAP
1810
27F8
2408
2408
27F8
6200
A308
A7F8
A480
2FFC
20C0
21A0
2318
3C04
ENDCHAR
STARTCHAR 346A
ENCODING 13418
SWIDTH 1000 0
DWIDTH 16 0
BBX 15 14 1 -1
BITMAP
10C0
1888
1FFC
2220
2160
60C0
633C
BE12
A3F0
2210
23F0
2210
2410
3810
ENDCHAR
STARTCHAR 3492
ENCODING 13458
SWIDTH 1000 0
DWIDTH 16 0
BBX 14 15 1 -1
BITMAP
11E0
1D48
1550
2354
2FFC
2230
6128
6FFC
A088
A7F8
2FFC
20C0
23B0
248C
3880
ENDCHAR
STARTCHAR 34B5
ENCODING 13493
SWIDTH 1000 0
DWIDTH 16 0
BBX 14 14 1 -1
BITMAP
0200
0300
4410
3FF8
2010
3FF0
2010
2010
3FF0
2010
0CC0
1830
3018
C00C
ENDCHAR
STARTCHAR 34BC
ENCODING 13500
SWIDTH 1000 0
DWIDTH 16 0
BBX 14 15 1 -1
BITMAP
0840
0C48
FFFC
0840
0FC0
0A00
7FF8
4208
5AC8
4A48
4A48
56A8
6728
4208
4270
ENDCHAR
STARTCHAR 34C1
ENCODING 13505
SWIDTH 1000 0
DWIDTH 16 0
BBX 14 8 1 2
BITMAP
4008
7FFC
4888
4C90
8888
1088
20FC
C000
ENDCHAR
STARTCHAR 34C7
ENCODING 13511
SWIDTH 1000 0
DWIDTH 16 0
BBX 14 15 1 -2
BITMAP
0010
80E0
5780
3080
1080
208C
2FFC
20C0
40C0
C0C0
4120
4110
4218
440C
1800
ENDCHAR
STARTCHAR 34DB
ENCODING 13531
SWIDTH 1000 0
DWIDTH 16 0
BBX 14 14 1 -1
BITMAP
0008
0BFC
FC88
2088
2088
2088
2088
2088
2088
2D08
F108
8208
0408
08F0
ENDCHAR
STARTCHAR 351F
ENCODING 13599
SWIDTH 1000 0
DWIDTH 16 0
BBX 14 14 1 -1
BITMAP
1860
7050
7DF8
9250
95D0
7C4C
10AC
1F0C
E200
7FF8
0210
0410
0A10
F1E0
ENDCHAR
STARTCHAR 355D
ENCODING 13661
SWIDTH 1000 0
DWIDTH 16 0
BBX 14 15 1 -2
BITMAP
0100
0208
FFFC
0200
3FF0
2010
2010
3FF0
0020
7FF0
0820
04C0
0300
04E0
F81C
ENDCHAR
STARTCHAR 355E
ENCODING 13662
SWIDTH 1000 0
DWIDTH 16 0
BBX 15 14 1 -1
BITMAP
8200
7FFC
4288
4248
7E48
4848
4A48
7F50
6930
A930
A930
A938
AECC
8906
ENDCHAR
STARTCHAR 3563
ENCODING 13667
SWIDTH 1000 0
DWIDTH 16 0
BBX 14 14 1 -1
BITMAP
0040
07C0
0840
0C40
1020
3010
200C
E020
9FF0
1020
1020
1020
1FE0
1020
ENDCHAR
STARTCHAR 356E
ENCODING 13678
SWIDTH 1000 0
DWIDTH 16 0
BBX 13 13 2 -1
BITMAP
A340
F220
A410
A408
AC28
B240
A240
A1C0
E080
A180
0260
0418
1800
ENDCHAR
STARTCHAR 35A6
ENCODING 13734
SWIDTH 1000 0
DWIDTH 16 0
BBX 14 14 2 -1
BITMAP
0080
A088
FFF8
A080
A7F0
A490
A7F0
A490
A7F0
E180
A2C0
04B0
088C
3080
ENDCHAR
STARTCHAR 35A8
ENCODING 13736
SWIDTH 1000 0
DWIDTH 16 0
BBX 13 14 2 -1
BITMAP
0320
23E0
F220
97E0
9448
9FF8
9080
9C98
92E0
F1A0
96B0
0898
0088
0380
ENDCHAR
STARTCHAR 35C5
ENCODING 13765
SWIDTH 1000 0
DWIDTH 16 0
BBX 13 14 2 -1
BITMAP
0610
0478
F448
BFC8
A478
A448
A648
AF48
A978
E948
8F88
0988
0908
0170
ENDCHAR
STARTCHAR 35DA
ENCODING 13786
SWIDTH 1000 0
DWIDTH 16 0
BBX 14 14 2 -1
BITMAP
0008
1FF8
F240
AFF0
AA58
AA50
AFF0
A080
A088
FFF8
8280
04E0
089C
3080
ENDCHAR
STARTCHAR 35F4
ENCODING 13812
SWIDTH 1000 0
DWIDTH 16 0
BBX 14 14 1 -1
BITMAP
0148
07BC
F4A4
97BC
94A4
97BC
9424
95F4
9524
F5E4
85E4
0524
0404
0418
ENDCHAR
STARTCHAR 3605
ENCODING 13829
SWIDTH 1000 0
DWIDTH 16 0
BBX 14 15 1 -1
BITMAP
0500
0684
A4DC
F920
B320
A5C4
A6BC
A8C8
ADE8
BAA8
EAC8
A9C8
08E8
0B88
0A38
ENDCHAR
STARTCHAR 364A
ENCODING 13898
SWIDTH 1000 0
DWIDTH 16 0
BBX 14 15 1 -2
BITMAP
2408
33F8
2210
23F8
FA10
23F8
2208
2FFC
2248
2248
3E34
C220
8258
0F8C
0800
ENDCHAR
STARTCHAR 3691
ENCODING 13969
SWIDTH 1000 0
DWIDTH 16 0
BBX 14 15 1 -2
BITMAP
0020
3FF0
0028
FFFC
0020
0020
3FE0
0200
020C
FFFC
0300
0280
0440
1838
E00C
ENDCHAR
STARTCHAR 3696
ENCODING 13974
SWIDTH 1000 0
DWIDTH 16 0
BBX 14 14 1 -1
BITMAP
0300
4220
3FF0
2010
3FF0
2010
2010
3FF0
0208
FFFC
0300
0280
0C60
F01C
ENDCHAR
STARTCHAR 3699
ENCODING 13977
SWIDTH 1000 0
DWIDTH 16 0
BBX 14 16 1 -2
BITMAP
2000
1008
12FC
FE88
1288
2288
22F8
5C88
8300
0208
FFFC
0300
0280
0440
1838
E00C
ENDCHAR
STARTCHAR 36CF
ENCODING 14031
SWIDTH 1000 0
DWIDTH 16 0
BBX 14 14 1 -1
BITMAP
2050
4048
4044
FFFC
4840
5244
5148
9170
9050
F1D0
3648
2C44
4040
83C0
ENDCHAR
STARTCHAR 3761
ENCODING 14177
SWIDTH 1000 0
DWIDTH 16 0
BBX 14 14 1 -1
BITMAP
0300
4208
7FFC
C008
7F08
25F8
2488
3C88
2490
3C50
2420
2420
DCD8
0504
ENDCHAR
STARTCHAR 3762
ENCODING 14178
SWIDTH 1000 0
DWIDTH 16 0
BBX 14 15 1 -1
BITMAP
0300
4208
7FFC
4028
8FD0
3220
3FF0
2210
3FF0
8208
7FF8
4248
43E8
5C08
4078
ENDCHAR
STARTCHAR 376B
ENCODING 14187
SWIDTH 1000 0
DWIDTH 16 0
BBX 14 14 1 -1
BITMAP
0300
4208
7FFC
C108
F9F0
5320
6CC0
533C
5DF0
4BF8
7C50
57F8
4048
4FFC
ENDCHAR
STARTCHAR 376C
ENCODING 14188
SWIDTH 1000 0
DWIDTH 16 0
BBX 14 14 1 -1
BITMAP
1820
9220
FF20
95FC
1E20
F420
7C24
13FC
FE20
7C50
4650
444C
7C84
4704
ENDCHAR
STARTCHAR 3775
ENCODING 14197
SWIDTH 1000 0
DWIDTH 16 0
BBX 14 14 1 -1
BITMAP
0020
3FF0
2010
3FF0
2010
3FF0
0008
7FF8
0048
FFFC
1040
0C40
0040
03C0
ENDCHAR
STARTCHAR 378D
ENCODING 14221
SWIDTH 1000 0
DWIDTH 16 0
BBX 14 14 1 -1
BITMAP
0010
3FF8
2010
2010
3FF0
2200
2240
5FE0
4220
5220
4E20
4728
85A4
B83C
ENDCHAR
STARTCHAR 37C1
ENCODING 14273
SWIDTH 1000 0
DWIDTH 16 0
BBX 14 14 1 -1
BITMAP
3404
23FC
2200
EA08
AAFC
AA20
AA20
AA24
ABFC
AA20
FC20
8C20
8420
0820
ENDCHAR
STARTCHAR 37E2
ENCODING 14306
SWIDTH 1000 0
DWIDTH 16 0
BBX 14 15 1 -1
BITMAP
0200
2318
2210
3FF0
0210
7FF8
0200
0DE0
7034
FFFC
3F20
2220
3E20
2220
00E0
ENDCHAR
STARTCHAR 37E8
ENCODING 14312
SWIDTH 1000 0
DWIDTH 16 0
BBX 14 14 1 -1
BITMAP
0060
334C
2248
EA48
ABF8
A804
AFFC
A880
ABFC
AAA8
FAA8
8AA8
82A8
02B8
ENDCHAR
STARTCHAR 37F4
ENCODING 14324
SWIDTH 1000 0
DWIDTH 16 0
BBX 15 14 1 -1
BITMAP
3040
2488
23FC
EA48
AA48
ABF8
AA48
ABF8
A8D8
A8D0
F95C
895C
8244
043E
ENDCHAR
STARTCHAR 37FD
ENCODING 14333
SWIDTH 1000 0
DWIDTH 16 0
BBX 14 14 1 -1
BITMAP
2004
37FC
20A0
EBFC
AAA8
AAA8
ABF8
ABF8
A808
AFFC
F950
8A48
8244
0DC0
ENDCHAR
STARTCHAR 3800
ENCODING 14336
SWIDTH 1000 0
DWIDTH 16 0
BBX 14 15 1 -1
BITMAP
0400
0620
1FF0
1FE0
1FE0
2004
1FFC
1FF8
4928
8018
2318
2210
2210
3FF0
2010
ENDCHAR
STARTCHAR 382F
ENCODING 14383
SWIDTH 1000 0
DWIDTH 16 0
BBX 10 14 3 -1
BITMAP
8080
FFC0
8080
8080
8080
FF80
8000
8040
FFC0
8040
8040
8040
FFC0
8040
ENDCHAR
STARTCHAR 3836
ENCODING 14390
SWIDTH 1000 0
DWIDTH 16 0
BBX 14 15 1 -1
BITMAP
2080
3040
22A0
A9F0
FD20
A920
A920
A920
A920
AA20
AA28
BA24
2224
2424
281C
ENDCHAR
STARTCHAR 3840
ENCODING 14400
SWIDTH 1000 0
DWIDTH 16 0
BBX 14 14 1 -1
BITMAP
0100
1180
1960
1110
2108
7FFC
A114
2990
2D50
2950
3130
3110
2110
2170
ENDCHAR
STARTCHAR 385C
ENCODING 14428
SWIDTH 1000 0
DWIDTH 16 0
BBX 15 15 1 -1
BITMAP
0200
21A8
23FC
32A4
FDA8
AC90
AB28
ABFC
AC06
A808
ABFC
BA60
2358
2444
29C0
ENDCHAR
STARTCHAR 3861
ENCODING 14433
SWIDTH 1000 0
DWIDTH 16 0
BBX 15 14 1 -1
BITMAP
2808
27FC
2448
FFEC
B408
B5CC
B67E
B648
B5E8
B658
B588
29E8
2B08
3218
ENDCHAR
STARTCHAR 38FA
ENCODING 14586
SWIDTH 1000 0
DWIDTH 16 0
BBX 14 14 1 -1
BITMAP
0800
0400
0400
0400
4620
4510
4488
4448
4444
C444
8400
0400
3C00
0800
ENDCHAR
STARTCHAR 3917
ENCODING 14615
SWIDTH 1000 0
DWIDTH 16 0
BBX 14 14 1 -1
BITMAP
0300
0208
7FF8
0410
7FF8
0488
FFFC
1040
3230
424C
92B0
1258
6248
0E00
ENDCHAR
STARTCHAR 391A
ENCODING 14618
SWIDTH 1000 0
DWIDTH 16 0
BBX 14 14 1 -1
BITMAP
3200
2108
22FC
3400
B900
A984
AAFC
A210
2610
2A10
2210
2210
2210
2270
ENDCHAR
STARTCHAR 396F
ENCODING 14703
SWIDTH 1000 0
DWIDTH 16 0
BBX 14 14 1 -1
BITMAP
23F0
3E10
2148
5FE8
8210
7FF8
3FF0
0024
FFFC
3FE0
4910
48A8
4824
8FE0
ENDCHAR
STARTCHAR 3A6E
ENCODING 14958
SWIDTH 1000 0
DWIDTH 16 0
BBX 15 14 1 -1
BITMAP
2288
25D8
36E8
FE78
26D8
24CC
3FFE
6250
A5AC
2FF6
3FFC
2080
2080
C380
ENDCHAR
STARTCHAR 3A73
ENCODING 14963
SWIDTH 1000 0
DWIDTH 16 0
BBX 14 14 1 -1
BITMAP
2738
46B4
47BC
FF58
57BC
4758
47BC
77BC
C010
47F8
4110
40A0
40E0
CF1C
ENDCHAR
STARTCHAR 3AD6
ENCODING 15062
SWIDTH 1000 0
DWIDTH 16 0
BBX 14 14 1 -1
BITMAP
0300
0200
0210
03F8
0200
0208
FFFC
0000
3FF0
2010
3FF0
2010
3FF0
2010
ENDCHAR
STARTCHAR 3AD7
ENCODING 15063
SWIDTH 1000 0
DWIDTH 16 0
BBX 14 14 1 -1
BITMAP
0010
3FF0
2010
3FF0
2010
3FF0
0020
3FF0
0300
FFFC
0100
0100
0100
0E00
ENDCHAR
STARTCHAR 3AEA
ENCODING 15082
SWIDTH 1000 0
DWIDTH 16 0
BBX 14 15 1 -1
BITMAP
0300
0208
7FF8
0410
7FF8
0488
FFFC
1040
2020
53F8
9224
13E0
1220
13E0
1220
ENDCHAR
STARTCHAR 3B0E
ENCODING 15118
SWIDTH 1000 0
DWIDTH 16 0
BBX 14 15 1 -1
BITMAP
0010
3FF0
2018
3FF0
2010
3FF0
1020
A950
6C98
3870
FDF8
8304
2910
2488
C444
ENDCHAR
STARTCHAR 3B1A
ENCODING 15130
SWIDTH 1000 0
DWIDTH 16 0
BBX 15 15 1 -1
BITMAP
0220
9330
F2A0
9FE4
933E
94A8
9FA8
F868
97E8
97A8
9490
F790
94A8
04A4
0744
ENDCHAR
STARTCHAR 3B1C
ENCODING 15132
SWIDTH 1000 0
DWIDTH 16 0
BBX 14 14 1 -1
BITMAP
0408
FFFC
2850
F7EC
1428
FDFC
1028
FFFC
8020
3FF0
3FF0
2010
3FF0
2010
ENDCHAR
STARTCHAR 3B22
ENCODING 15138
SWIDTH 1000 0
DWIDTH 16 0
BBX 14 15 1 -1
BITMAP
0220
9130
F8A8
97FC
9050
93F8
97FC
F000
90B0
976C
9FFC
F1E8
9714
013C
07CC
ENDCHAR
STARTCHAR 3B6D
ENCODING 15213
SWIDTH 1000 0
DWIDTH 16 0
BBX 15 14 0 -1
BITMAP
1442
13C2
1A5A
7A52
1252
33D2
3112
3952
55D2
5152
9252
1242
1442
199C
ENDCHAR
STARTCHAR 3B77
ENCODING 15223
SWIDTH 1000 0
DWIDTH 16 0
BBX 14 14 1 -1
BITMAP
3008
23FC
2A48
FFF8
2248
2248
33F8
6840
A844
A7FC
A044
A084
2108
2638
ENDCHAR
STARTCHAR 3B87
ENCODING 15239
SWIDTH 1000 0
DWIDTH 16 0
BBX 15 15 0 -1
BITMAP
2000
181C
11E0
1640
7C42
17FE
1090
3888
3564
5242
5D6C
9152
114A
1248
11C0
ENDCHAR
STARTCHAR 3B88
ENCODING 15240
SWIDTH 1000 0
DWIDTH 16 0
BBX 16 15 0 -1
BITMAP
1040
1060
1042
17FE
7C90
1090
1918
36F4
3403
53FC
5020
91A8
1224
1422
11E0
ENDCHAR
STARTCHAR 3B8D
ENCODING 15245
SWIDTH 1000 0
DWIDTH 16 0
BBX 14 14 1 -1
BITMAP
1840
0488
FFFC
3ED0
5290
4A90
5A90
4210
4E30
FFFC
0680
0A60
321C
C200
ENDCHAR
STARTCHAR 3BA4
ENCODING 15268
SWIDTH 1000 0
DWIDTH 16 0
BBX 14 15 1 -1
BITMAP
0300
4208
7FFC
4488
9AFC
6700
08C0
3FF0
D02C
1FE0
FFFC
0680
0A60
321C
C200
ENDCHAR
STARTCHAR 3BB6
ENCODING 15286
SWIDTH 1000 0
DWIDTH 16 0
BBX 15 14 0 -1
BITMAP
1444
225E
22D2
7FF2
211E
2772
3552
6D52
6D5E
A7D2
A112
2122
2222
244C
ENDCHAR
STARTCHAR 3BC3
ENCODING 15299
SWIDTH 1000 0
DWIDTH 16 0
BBX 16 14 0 -1
BITMAP
1820
1044
13FE
7CD0
114C
1262
3C60
3498
5527
5728
90F0
11AC
1222
10C0
ENDCHAR
STARTCHAR 3BCD
ENCODING 15309
SWIDTH 1000 0
DWIDTH 16 0
BBX 15 15 0 -1
BITMAP
1110
12DC
129E
1A94
7AAC
32D4
33D8
3094
58A6
57FE
52C4
92B4
1294
1484
1898
ENDCHAR
STARTCHAR 3BF0
ENCODING 15344
SWIDTH 1000 0
DWIDTH 16 0
BBX 15 15 0 -1
BITMAP
1004
13FE
1254
1A54
7FFC
1022
33FE
38FC
5784
56FC
92FC
12FC
1284
13FE
1200
ENDCHAR
STARTCHAR 3C0F
ENCODING 15375
SWIDTH 1000 0
DWIDTH 16 0
BBX 15 15 0 -1
BITMAP
1210
135A
13DE
1CA8
7C2A
17FE
31F8
3908
55F8
53FE
92F4
9294
12F4
1284
121C
ENDCHAR
STARTCHAR 3C26
ENCODING 15398
SWIDTH 1000 0
DWIDTH 16 0
BBX 14 14 1 -1
BITMAP
18C0
1080
1488
FEFC
1148
1148
1270
FE60
1060
2860
2690
3A88
C10C
0204
ENDCHAR
STARTCHAR 3CC3
ENCODING 15555
SWIDTH 1000 0
DWIDTH 16 0
BBX 14 15 1 -1
BITMAP
0100
6180
1120
07F0
0920
C928
5124
12BC
2CC0
2084
EFFC
4080
4080
6080
6080
ENDCHAR
STARTCHAR 3CD2
ENCODING 15570
SWIDTH 1000 0
DWIDTH 16 0
BBX 15 15 1 -2
BITMAP
80C0
6080
2084
0FFC
8920
5120
5210
14CC
2886
2120
2120
C210
4278
4F88
4004
ENDCHAR
STARTCHAR 3D11
ENCODING 15633
SWIDTH 1000 0
DWIDTH 16 0
BBX 14 14 1 -1
BITMAP
4060
2844
27FC
1510
9498
57FC
2440
254C
6548
C9F8
4948
4840
5080
5100
ENDCHAR
STARTCHAR 3D1E
ENCODING 15646
SWIDTH 1000 0
DWIDTH 16 0
BBX 14 14 1 -1
BITMAP
6038
17D0
048C
9A50
5250
5528
24FC
2488
2488
44F8
C488
4488
44F8
4488
ENDCHAR
STARTCHAR 3D64
ENCODING 15716
SWIDTH 1000 0
DWIDTH 16 0
BBX 14 15 1 -2
BITMAP
8108
6FFC
3294
17B4
DBDC
5424
1848
2FFC
2490
2258
E6D8
49A4
4120
4218
6C04
ENDCHAR
STARTCHAR 3D9A
ENCODING 15770
SWIDTH 1000 0
DWIDTH 16 0
BBX 14 14 1 -1
BITMAP
0004
FFFC
0FF8
194C
AFF8
6508
3FBC
2564
423C
CFBC
4FA4
5FC4
4244
4298
ENDCHAR
STARTCHAR 3DC0
ENCODING 15808
SWIDTH 1000 0
DWIDTH 16 0
BBX 14 15 1 -1
BITMAP
1040
5B68
5D50
5160
1C70
2488
C120
7FF0
0010
0410
0450
7FD4
041C
040C
0404
ENDCHAR
STARTCHAR 3DD4
ENCODING 15828
SWIDTH 1000 0
DWIDTH 16 0
BBX 14 14 1 -1
BITMAP
3038
27CC
2C8C
B248
B150
A408
A2FC
A288
2288
32F8
4A88
4A88
82F8
8288
ENDCHAR
STARTCHAR 3E05
ENCODING 15877
SWIDTH 1000 0
DWIDTH 16 0
BBX 14 14 1 -1
BITMAP
2230
24A4
37BC
3D50
BA90
A7BC
A8A4
A7A4
27A4
6424
55A4
56BC
84A0
87A0
ENDCHAR
STARTCHAR 3E3F
ENCODING 15935
SWIDTH 1000 0
DWIDTH 16 0
BBX 14 14 1 -1
BITMAP
3040
6048
A7FC
A840
FFF8
A000
A3FC
AC08
75A8
A120
2120
2124
2224
2C3C
ENDCHAR
STARTCHAR 3E60
ENCODING 15968
SWIDTH 1000 0
DWIDTH 16 0
BBX 14 14 1 -1
BITMAP
90C0
5888
50F4
2F80
6088
9688
3488
3488
5488
97F8
9488
1084
1084
E07C
ENDCHAR
STARTCHAR 3E66
ENCODING 15974
SWIDTH 1000 0
DWIDTH 16 0
BBX 14 14 1 -1
BITMAP
9008
5FFC
5088
2088
6088
9108
3278
3408
53F8
9208
1208
1208
93F8
6208
ENDCHAR
STARTCHAR 3E68
ENCODING 15976
SWIDTH 1000 0
DWIDTH 16 0
BBX 14 15 1 -1
BITMAP
0080
9840
5040
2848
67FC
6448
A448
3448
5448
57F8
9448
9448
1448
27F8
E408
ENDCHAR
STARTCHAR 3E83
ENCODING 16003
SWIDTH 1000 0
DWIDTH 16 0
BBX 14 14 1 -1
BITMAP
0130
9924
6FFC
6300
A208
A3FC
3408
5BC8
5248
9248
93C8
1008
2098
E070
ENDCHAR
STARTCHAR 3E94
ENCODING 16020
SWIDTH 1000 0
DWIDTH 16 0
BBX 14 14 1 -1
BITMAP
9070
5F90
2488
6468
ABF0
9A20
33F8
3210
53FC
9424
96D4
16A4
1A88
F238
ENDCHAR
STARTCHAR 3F57
ENCODING 16215
SWIDTH 1000 0
DWIDTH 16 0
BBX 14 14 1 -1
BITMAP
0440
FC40
9440
9440
9440
9440
FC40
94C0
94A0
94A0
FD10
8708
060C
0800
ENDCHAR
STARTCHAR 3F72
ENCODING 16242
SWIDTH 1000 0
DWIDTH 16 0
BBX 14 14 1 -1
BITMAP
0180
4104
3FFC
A000
A008
6FF8
6200
2210
63F0
A418
A010
4010
4020
81E0
ENDCHAR
STARTCHAR 3F75
ENCODING 16245
SWIDTH 1000 0
DWIDTH 16 0
BBX 14 15 1 -1
BITMAP
0180
0100
4104
3FFC
A000
A080
6080
6080
2090
6FF8
A080
2080
4088
5FFC
8000
ENDCHAR
STARTCHAR 3F77
ENCODING 16247
SWIDTH 1000 0
DWIDTH 16 0
BBX 14 14 1 -1
BITMAP
0180
4104
3FFC
A000
6080
6288
2E90
22E0
E2C0
A4A0
2890
508C
6088
8780
ENDCHAR
STARTCHAR 3FAE
ENCODING 16302
SWIDTH 1000 0
DWIDTH 16 0
BBX 14 15 1 -2
BITMAP
0180
4104
3FFC
A080
A7F0
6410
67F0
2410
67F0
AFF8
2090
2FF8
4088
9FFC
8000
ENDCHAR
STARTCHAR 3FC9
ENCODING 16329
SWIDTH 1000 0
DWIDTH 16 0
BBX 14 14 1 -1
BITMAP
0180
4104
3FFC
2080
A7F0
67F0
3FFC
2010
E7F8
A7F0
2410
47F0
4230
9D08
ENDCHAR
STARTCHAR 3FD7
ENCODING 16343
SWIDTH 1000 0
DWIDTH 16 0
BBX 14 14 1 -1
BITMAP
0180
4104
3FFC
A208
A7FC
7FA8
647C
2F78
F448
AF78
2A78
4AC8
4B48
95A4
ENDCHAR
STARTCHAR 4039
ENCODING 16441
SWIDTH 1000 0
DWIDTH 16 0
BBX 14 16 2 -2
BITMAP
0100
A0C0
F080
9088
9FF8
F690
94A0
94B0
FAA8
9AC8
9140
F140
9220
8210
0C0C
1000
ENDCHAR
STARTCHAR 4058
ENCODING 16472
SWIDTH 1000 0
DWIDTH 16 0
BBX 14 14 1 -1
BITMAP
9060
F888
89FC
9650
F1A0
90C0
9308
F7F8
9444
97FC
F34C
9248
83F8
0208
ENDCHAR
STARTCHAR 4093
ENCODING 16531
SWIDTH 1000 0
DWIDTH 16 0
BBX 14 14 1 -1
BITMAP
6208
41F8
4908
7DF8
5108
9108
95F8
FD08
21F8
30A0
28A4
44A4
4124
8E3C
ENDCHAR
STARTCHAR 4105
ENCODING 16645
SWIDTH 1000 0
DWIDTH 16 0
BBX 14 14 1 -1
BITMAP
2320
1240
1A90
7FF8
0488
FFFC
08A0
3FD8
4014
BFF8
1100
1960
6118
8E08
ENDCHAR
STARTCHAR 4148
ENCODING 16712
SWIDTH 1000 0
DWIDTH 16 0
BBX 14 14 1 -1
BITMAP
2320
1240
0A90
7FF8
0488
FFFC
0820
33D8
4E24
BFF0
0700
0AC0
323C
C200
ENDCHAR
STARTCHAR 414F
ENCODING 16719
SWIDTH 1000 0
DWIDTH 16 0
BBX 15 14 0 -1
BITMAP
0E04
19FE
7104
15FC
7D0C
1118
11E4
3924
36F8
5226
92F8
9222
1422
143E
ENDCHAR
STARTCHAR 4163
ENCODING 16739
SWIDTH 1000 0
DWIDTH 16 0
BBX 15 14 0 -1
BITMAP
0460
3A48
51FC
1104
7FFC
1104
11FC
3804
37FE
5020
51FC
9020
1022
17FE
ENDCHAR
STARTCHAR 41B4
ENCODING 16820
SWIDTH 1000 0
DWIDTH 16 0
BBX 14 14 1 0
BITMAP
0200
4308
7FFC
CC98
3CFC
5F80
3FF0
FFF0
2210
5FF0
3FF8
3FF0
3FF4
01FC
ENDCHAR
STARTCHAR 41BF
ENCODING 16831
SWIDTH 1000 0
DWIDTH 16 0
BBX 14 15 1 -1
BITMAP
0200
8308
7FFC
C488
B8FC
4850
69F8
49F8
79F8
0A08
F9F8
2BFC
48E0
4958
8E44
ENDCHAR
STARTCHAR 41E6
ENCODING 16870
SWIDTH 1000 0
DWIDTH 16 0
BBX 14 15 1 -2
BITMAP
30C0
2288
7EFC
4920
8200
3FF0
2210
2210
2214
FFFC
0300
0280
0460
181C
E000
ENDCHAR
STARTCHAR 41EE
ENCODING 16878
SWIDTH 1000 0
DWIDTH 16 0
BBX 14 14 1 -1
BITMAP
2080
32C8
7FFC
4920
9600
18F8
2F80
3088
EFFC
A080
2080
2080
2088
2FFC
ENDCHAR
STARTCHAR 41F3
ENCODING 16883
SWIDTH 1000 0
DWIDTH 16 0
BBX 14 15 1 -1
BITMAP
2080
32C8
3EFC
5140
8A20
85C0
04F8
FF10
7FE0
020C
FFF0
0160
0188
0668
F81C
ENDCHAR
STARTCHAR 4207
ENCODING 16903
SWIDTH 1000 0
DWIDTH 16 0
BBX 14 15 1 -1
BITMAP
2080
32C8
7EFC
4920
8210
03F8
0220
3FF0
3FF0
2010
3FF0
0204
FFFC
0200
0200
ENDCHAR
STARTCHAR 420E
ENCODING 16910
SWIDTH 1000 0
DWIDTH 16 0
BBX 14 15 1 -1
BITMAP
2080
32C8
3EFC
5120
8A40
1328
FFFC
13E0
1008
1FF8
FFFC
0680
0A60
321C
C200
ENDCHAR
STARTCHAR 4264
ENCODING 16996
SWIDTH 1000 0
DWIDTH 16 0
BBX 14 14 1 -1
BITMAP
32C4
7EFC
4920
9A40
7444
12FC
FF88
3690
D350
FF30
2420
6C30
1C48
F384
ENDCHAR
STARTCHAR 42C6
ENCODING 17094
SWIDTH 1000 0
DWIDTH 16 0
BBX 14 15 1 -1
BITMAP
2000
3004
37FC
C800
5008
53F8
3208
4A08
B608
23F8
EA00
AA00
A200
A400
2400
ENDCHAR
STARTCHAR 42D6
ENCODING 17110
SWIDTH 1000 0
DWIDTH 16 0
BBX 14 14 1 -1
BITMAP
3040
2050
CBF8
584C
77FC
2848
7FF8
A048
6BFC
A848
A7FC
A440
A040
2040
ENDCHAR
STARTCHAR 42DD
ENCODING 17117
SWIDTH 1000 0
DWIDTH 16 0
BBX 14 14 1 -1
BITMAP
3084
2248
CA48
5150
3010
28C0
7C84
E7FC
2110
6910
AB20
A4E0
A0D8
2708
ENDCHAR
STARTCHAR 4302
ENCODING 17154
SWIDTH 1000 0
DWIDTH 16 0
BBX 14 14 1 -1
BITMAP
3408
23FC
CA08
53F8
5208
2BFC
4A40
B698
B374
EA28
ABFC
AC20
A424
2BFC
ENDCHAR
STARTCHAR 432B
ENCODING 17195
SWIDTH 1000 0
DWIDTH 16 0
BBX 14 14 1 -1
BITMAP
2090
27A0
DFBC
57C4
66BC
57C0
F3F8
AA08
2BF8
F3F8
ABF8
A8A4
A124
2E3C
ENDCHAR
STARTCHAR 4343
ENCODING 17219
SWIDTH 1000 0
DWIDTH 16 0
BBX 14 15 1 -1
BITMAP
0200
0310
07F8
1E30
3160
C980
0E00
7010
BFF8
4208
FFFC
2210
2218
3FF0
2010
ENDCHAR
STARTCHAR 43EE
ENCODING 17390
SWIDTH 1000 0
DWIDTH 16 0
BBX 14 14 1 -1
BITMAP
9040
7880
4FFC
4888
7888
4908
4E30
4C08
7B14
4920
8880
88B0
8B0C
B404
ENDCHAR
STARTCHAR 43F0
ENCODING 17392
SWIDTH 1000 0
DWIDTH 16 0
BBX 14 14 1 -1
BITMAP
9008
7BFC
4848
4B88
78E8
4908
4A78
4C80
7860
48B0
8A88
8A94
8C94
B0F0
ENDCHAR
STARTCHAR 4408
ENCODING 17416
SWIDTH 1000 0
DWIDTH 16 0
BBX 14 14 1 -1
BITMAP
9020
7824
4BFC
4840
78FC
4888
4AF8
4A88
7AF8
4A88
8AF8
8A88
CBFC
B200
ENDCHAR
STARTCHAR 4417
ENCODING 17431
SWIDTH 1000 0
DWIDTH 16 0
BBX 14 14 1 -1
BITMAP
90C0
788C
53F8
5090
70A4
57FC
5060
50B0
73F8
5508
91F8
9108
D1F8
B108
ENDCHAR
STARTCHAR 441C
ENCODING 17436
SWIDTH 1000 0
DWIDTH 16 0
BBX 14 14 1 -1
BITMAP
9118
7A60
51F8
5004
7308
52F8
54F8
54F8
7488
54F8
93FC
9400
91B8
B604
ENDCHAR
STARTCHAR 4422
ENCODING 17442
SWIDTH 1000 0
DWIDTH 16 0
BBX 14 14 1 -1
BITMAP
9100
7BFC
52C4
5FB4
73E8
5088
5138
5708
73FC
56C4
9BB4
93E8
9088
B338
ENDCHAR
STARTCHAR 4453
ENCODING 17491
SWIDTH 1000 0
DWIDTH 16 0
BBX 14 15 1 -1
BITMAP
1820
1048
FFFC
1040
1FC0
1040
1FC0
7FFC
8028
BFF8
0830
77C8
7FF8
0208
FFFC
ENDCHAR
STARTCHAR 445B
ENCODING 17499
SWIDTH 1000 0
DWIDTH 16 0
BBX 14 14 1 -1
BITMAP
0808
3E34
E1E0
2120
2520
FD24
21FC
2120
2920
7D10
4954
4A94
7BEC
4804
ENDCHAR
STARTCHAR 4476
ENCODING 17526
SWIDTH 1000 0
DWIDTH 16 0
BBX 15 14 0 -1
BITMAP
1830
1422
3FFE
34FE
3422
2DFE
2604
7CFC
3CA4
34FC
5484
4484
4484
9C9C
ENDCHAR
STARTCHAR 447A
ENCODING 17530
SWIDTH 1000 0
DWIDTH 16 0
BBX 16 14 0 -1
BITMAP
1804
11FC
3D04
257C
35A4
3D7C
2F6C
FD6C
357C
3566
5536
453E
46CA
9E0B
ENDCHAR
STARTCHAR 4491
ENCODING 17553
SWIDTH 1000 0
DWIDTH 16 0
BBX 12 5 2 5
BITMAP
4080
30C0
1080
0910
FFF0
ENDCHAR
STARTCHAR 44B3
ENCODING 17587
SWIDTH 1000 0
DWIDTH 16 0
BBX 14 15 1 -1
BITMAP
0840
0C48
FFFC
0840
0040
7FC0
04F8
0808
10F0
E308
FFFC
0700
0AE0
321C
C200
ENDCHAR
STARTCHAR 44BE
ENCODING 17598
SWIDTH 1000 0
DWIDTH 16 0
BBX 14 14 1 -1
BITMAP
0C40
0848
FFFC
0B40
0208
FFFC
0300
0518
18B0
28C0
C840
08B0
0F18
7004
ENDCHAR
STARTCHAR 44D4
ENCODING 17620
SWIDTH 1000 0
DWIDTH 16 0
BBX 14 15 1 -1
BITMAP
0840
0C48
FFFC
0840
0290
3FE0
0288
FFFC
0240
1FE0
E180
7FFC
0100
0100
0F00
ENDCHAR
STARTCHAR 4508
ENCODING 17672
SWIDTH 1000 0
DWIDTH 16 0
BBX 14 14 1 -1
BITMAP
0CC8
FFFC
0880
7FF8
0208
FFFC
3FF0
2020
3FE0
3FE0
3FE0
2020
08F0
F40C
ENDCHAR
STARTCHAR 450D
ENCODING 17677
SWIDTH 1000 0
DWIDTH 16 0
BBX 14 15 1 -1
BITMAP
0C40
0848
FFFC
0840
2010
3FF8
2120
3FF0
3FF0
2100
3FFC
5248
4A68
4908
8878
ENDCHAR
STARTCHAR 4525
ENCODING 17701
SWIDTH 1000 0
DWIDTH 16 0
BBX 14 14 1 -1
BITMAP
0CC8
FFFC
0880
0320
3FF0
FFFC
3FF0
2A48
2EA8
3FE8
4208
47C8
5A68
A208
ENDCHAR
STARTCHAR 4543
ENCODING 17731
SWIDTH 1000 0
DWIDTH 16 0
BBX 14 14 1 -1
BITMAP
0C48
FFFC
0840
88C0
79C0
5330
57FC
5BF0
4A20
4BF0
4FFC
7120
4110
46E8
ENDCHAR
STARTCHAR 459D
ENCODING 17821
SWIDTH 1000 0
DWIDTH 16 0
BBX 13 14 2 -1
BITMAP
0040
01E0
3E00
C400
0420
7FE0
4420
4420
7FE0
4420
0440
0420
FFD0
8008
ENDCHAR
STARTCHAR 45B8
ENCODING 17848
SWIDTH 1000 0
DWIDTH 16 0
BBX 14 14 1 -1
BITMAP
1EF0
6894
FFFC
0890
7F68
0868
399C
0220
3FF0
2210
3FF0
0210
03F8
FC04
ENDCHAR
STARTCHAR 45E5
ENCODING 17893
SWIDTH 1000 0
DWIDTH 16 0
BBX 15 14 1 -1
BITMAP
2168
2248
B248
FD78
B9B4
B294
B2A0
B790
F650
2A5C
2250
32D0
EAB0
8B1E
ENDCHAR
STARTCHAR 45EA
ENCODING 17898
SWIDTH 1000 0
DWIDTH 16 0
BBX 14 14 1 -1
BITMAP
0100
0108
7FFC
4450
7FF8
47C0
5490
5248
6190
5FF0
5110
9FF0
8110
BEEC
ENDCHAR
STARTCHAR 460F
ENCODING 17935
SWIDTH 1000 0
DWIDTH 16 0
BBX 14 14 1 -1
BITMAP
1888
107C
7E48
5B50
5A50
5A60
5A58
5A48
5A44
5A44
5B44
5C78
E040
0040
ENDCHAR
STARTCHAR 4641
ENCODING 17985
SWIDTH 1000 0
DWIDTH 16 0
BBX 14 14 1 -1
BITMAP
21C0
2138
30BC
FFD0
1058
1068
299C
76C0
A8B8
A8FC
2798
2064
20E4
271C
ENDCHAR
STARTCHAR 4665
ENCODING 18021
SWIDTH 1000 0
DWIDTH 16 0
BBX 15 14 1 -1
BITMAP
2008
23F8
37FC
FC44
1778
1108
2F7C
68C0
B130
AFEE
27F8
2088
20C8
20B0
ENDCHAR
STARTCHAR 46A1
ENCODING 18081
SWIDTH 1000 0
DWIDTH 16 0
BBX 15 14 0 -1
BITMAP
1904
3CFE
2894
4C94
7EFC
B294
3E94
32FC
3220
3F74
42D2
434A
434A
8C3C
ENDCHAR
STARTCHAR 46AF
ENCODING 18095
SWIDTH 1000 0
DWIDTH 16 0
BBX 13 14 1 -1
BITMAP
0408
7C08
0288
FEC8
0488
7C88
0488
7C88
7C88
4488
4408
4408
7C48
4430
ENDCHAR
STARTCHAR 470C
ENCODING 18188
SWIDTH 1000 0
DWIDTH 16 0
BBX 14 14 1 -1
BITMAP
2098
4790
D8E4
5FE8
6118
5798
4924
FFFC
2010
F7B4
ACB4
ACD4
A7D0
2490
ENDCHAR
STARTCHAR 4764
ENCODING 18276
SWIDTH 1000 0
DWIDTH 16 0
BBX 15 14 1 -1
BITMAP
1040
2084
E7FC
9CA8
5314
61F8
630C
B5F6
3910
D1F0
2A60
4B58
9444
71C0
ENDCHAR
STARTCHAR 47FD
ENCODING 18429
SWIDTH 1000 0
DWIDTH 16 0
BBX 14 14 1 -1
BITMAP
0840
FC40
8BFC
8880
8890
F908
22F4
E998
9E50
A250
A250
AE54
F254
8C1C
ENDCHAR
STARTCHAR 4816
ENCODING 18454
SWIDTH 1000 0
DWIDTH 16 0
BBX 14 14 1 -1
BITMAP
8860
FA40
8F7C
88A8
8920
F930
2648
E88C
B904
A3F8
A208
BA08
C3F8
8208
ENDCHAR
STARTCHAR 4844
ENCODING 18500
SWIDTH 1000 0
DWIDTH 16 0
BBX 14 14 1 -1
BITMAP
1220
15F0
FF10
1110
7D10
9510
7D10
9510
7D10
9114
FD14
1214
1214
141C
ENDCHAR
STARTCHAR 484E
ENCODING 18510
SWIDTH 1000 0
DWIDTH 16 0
BBX 14 15 1 -1
BITMAP
3000
2004
27FC
FC00
2000
FDF8
A90C
F908
A908
F9F8
A100
FD00
2100
2200
2400
ENDCHAR
STARTCHAR 48B5
ENCODING 18613
SWIDTH 1000 0
DWIDTH 16 0
BBX 14 14 1 -1
BITMAP
0088
02FC
7E88
0090
0090
02A0
FF90
1088
1084
2884
2684
4EB8
F180
0080
ENDCHAR
STARTCHAR 49B0
ENCODING 18864
SWIDTH 1000 0
DWIDTH 16 0
BBX 13 15 2 -1
BITMAP
8A10
F9F8
8910
F9F0
F9F0
8A10
9F10
BFD0
9F90
9F90
BFD0
BFD0
BFD0
A450
83F0
ENDCHAR
STARTCHAR 49E7
ENCODING 18919
SWIDTH 1000 0
DWIDTH 16 0
BBX 14 14 1 -1
BITMAP
9110
F9A0
97FC
9050
A3F8
A7FC
9020
8FF8
892C
8FFC
8928
F7F4
8134
87CC
ENDCHAR
STARTCHAR 49FA
ENCODING 18938
SWIDTH 1000 0
DWIDTH 16 0
BBX 14 14 1 -1
BITMAP
10D0
1098
2528
FFFC
2120
2328
45FC
7D20
6520
A5FC
A520
2520
3DFC
2100
ENDCHAR
STARTCHAR 4A04
ENCODING 18948
SWIDTH 1000 0
DWIDTH 16 0
BBX 14 14 1 -1
BITMAP
1048
2850
4CA8
BAFC
7DA0
0AA8
FEFC
28A0
7EA0
ACFC
CCA0
7CA4
84FC
7C80
ENDCHAR
STARTCHAR 4A29
ENCODING 18985
SWIDTH 1000 0
DWIDTH 16 0
BBX 14 15 1 -1
BITMAP
0010
3FF0
8208
7FFC
BEF8
3EF0
0820
7C40
05FC
FD48
55F8
55F8
9548
9440
1040
ENDCHAR
STARTCHAR 4ABC
ENCODING 19132
SWIDTH 1000 0
DWIDTH 16 0
BBX 14 15 1 -2
BITMAP
1004
21FC
E440
A4FC
A508
FCF8
A508
2108
E6F8
A508
A4F8
FC50
848C
8104
0600
ENDCHAR
STARTCHAR 4B3B
ENCODING 19259
SWIDTH 1000 0
DWIDTH 16 0
BBX 14 15 1 -1
BITMAP
10C0
28A0
2498
54FC
9B90
FC58
47E0
7C44
44F8
4748
7C50
4824
4464
7C94
830C
ENDCHAR
STARTCHAR 4BC2
ENCODING 19394
SWIDTH 1000 0
DWIDTH 16 0
BBX 14 14 1 -1
BITMAP
1FF0
1FF0
1FF0
2958
6838
7EFC
7CFC
7EFC
DB74
2708
FFFC
0680
1A78
E204
ENDCHAR
STARTCHAR 4BCA
ENCODING 19402
SWIDTH 1000 0
DWIDTH 16 0
BBX 14 14 1 -1
BITMAP
8800
7FFC
6808
5808
EDE8
FF28
8528
FD28
7928
49E8
7808
4808
4808
5878
ENDCHAR
STARTCHAR 4BD2
ENCODING 19410
SWIDTH 1000 0
DWIDTH 16 0
BBX 15 14 0 -1
BITMAP
4440
3C42
24BE
3D00
3560
7E7E
4484
FCC4
3D84
2684
3C84
2484
2484
3CB8
ENDCHAR
STARTCHAR 4BE8
ENCODING 19432
SWIDTH 1000 0
DWIDTH 16 0
BBX 14 14 1 -1
BITMAP
0308
FFFC
1FE0
1FE0
4008
7FF8
4FC8
4FF8
0208
FFFC
0300
0680
0C70
F00C
ENDCHAR
STARTCHAR 4C17
ENCODING 19479
SWIDTH 1000 0
DWIDTH 16 0
BBX 14 15 1 -1
BITMAP
8418
FFF4
8C64
BDF4
BFF4
8404
8F84
9FE4
AFC4
8FC4
9FE4
9FE4
9FE4
9224
81F8
ENDCHAR
STARTCHAR 4C20
ENCODING 19488
SWIDTH 1000 0
DWIDTH 16 0
BBX 15 14 1 -1
BITMAP
3060
A840
FD48
A5F8
FD48
A5F8
A548
FD48
51F8
5C40
5E40
5244
9006
9FFC
ENDCHAR
STARTCHAR 4CC4
ENCODING 19652
SWIDTH 1000 0
DWIDTH 16 0
BBX 15 14 0 -1
BITMAP
0030
1428
147C
757C
5644
5E7C
5442
547E
547E
5642
566A
5DDC
E7A4
809C
ENDCHAR
STARTCHAR 4CD1
ENCODING 19665
SWIDTH 1000 0
DWIDTH 16 0
BBX 15 14 0 -1
BITMAP
1830
1028
12FC
7FFC
1084
1EFC
2282
3EFE
62FE
BEA4
22FC
22DC
22C4
2F1C
ENDCHAR
STARTCHAR 4D07
ENCODING 19719
SWIDTH 1000 0
DWIDTH 16 0
BBX 14 14 1 -1
BITMAP
0420
7C40
7CF8
D6F8
FC88
44F8
FE80
28FC
56FC
FAC4
25B4
25B4
2D88
2238
ENDCHAR
STARTCHAR 4D77
ENCODING 19831
SWIDTH 1000 0
DWIDTH 16 0
BBX 15 14 1 -1
BITMAP
2008
33FC
2AA8
FFB8
28A0
2AA8
FFBC
32A8
2BB8
FEA8
23B8
2EA4
F084
807E
ENDCHAR
STARTCHAR 4E00
ENCODING 19968
SWIDTH 1000 0
DWIDTH 16 0
BBX 14 2 1 5
BITMAP
0008
FFFC
ENDCHAR
STARTCHAR 4E01
ENCODING 19969
SWIDTH 1000 0
DWIDTH 16 0
BBX 14 14 1 -2
BITMAP
0008
FFFC
0100
0100
0100
0100
0100
0100
0100
0100
0100
0100
1F00
0200
ENDCHAR
STARTCHAR 4E02
ENCODING 19970
SWIDTH 1000 0
DWIDTH 16 0
BBX 14 13 1 -1
BITMAP
0008
FFFC
0400
0800
0820
0FF0
0820
1020
0020
0020
0020
0020
03C0
ENDCHAR
STARTCHAR 4E03
ENCODING 19971
SWIDTH 1000 0
DWIDTH 16 0
BBX 14 13 1 0
BITMAP
0C00
0800
0800
0808
080C
0FF0
F800
0800
0800
0808
0808
0808
0FF8
ENDCHAR
STARTCHAR 4E07
ENCODING 19975
SWIDTH 1000 0
DWIDTH 16 0
BBX 14 14 1 -1
BITMAP
0008
FFFC
0200
0400
0410
07F8
0410
0410
0C10
0810
1010
1030
23E0
C040
ENDCHAR
STARTCHAR 4E08
ENCODING 19976
SWIDTH 1000 0
DWIDTH 16 0
BBX 14 15 1 -2
BITMAP
0180
0100
0100
0108
FFFC
0100
1100
0900
0900
0500
0200
0380
0460
181C
E000
ENDCHAR
STARTCHAR 4E09
ENCODING 19977
SWIDTH 1000 0
DWIDTH 16 0
BBX 14 12 1 0
BITMAP
0010
7FF8
0000
0000
0000
0020
3FF0
0000
0000
0000
0008
FFFC
ENDCHAR
STARTCHAR 4E0A
ENCODING 19978
SWIDTH 1000 0
DWIDTH 16 0
BBX 14 12 1 0
BITMAP
0300
0200
0200
0200
0210
03F8
0200
0200
0200
0200
0208
FFFC
ENDCHAR
STARTCHAR 4E0B
ENCODING 19979
SWIDTH 1000 0
DWIDTH 16 0
BBX 14 13 1 -1
BITMAP
0008
FFFC
0200
0200
0200
03C0
0220
0210
0200
0200
0200
0200
0200
ENDCHAR
STARTCHAR 4E0D
ENCODING 19981
SWIDTH 1000 0
DWIDTH 16 0
BBX 14 13 1 -1
BITMAP
0008
FFFC
0100
0200
0300
0640
0A30
1208
220C
C200
0200
0200
0200
ENDCHAR
STARTCHAR 4E0E
ENCODING 19982
SWIDTH 1000 0
DWIDTH 16 0
BBX 14 15 1 -2
BITMAP
0800
0800
1010
1FF0
1000
1040
1FE0
2040
0044
FFFC
0040
0040
0080
0F80
0100
ENDCHAR
STARTCHAR 4E0F
ENCODING 19983
SWIDTH 1000 0
DWIDTH 16 0
BBX 14 14 1 -1
BITMAP
0008
FFFC
0200
0200
3208
23F8
2208
2208
3FF8
2008
0008
0010
0110
00E0
ENDCHAR
STARTCHAR 4E10
ENCODING 19984
SWIDTH 1000 0
DWIDTH 16 0
BBX 14 14 1 -1
BITMAP
0008
FFFC
0200
2210
33F0
2200
2210
3FF8
2008
4008
0008
0010
0210
01E0
ENDCHAR
STARTCHAR 4E11
ENCODING 19985
SWIDTH 1000 0
DWIDTH 16 0
BBX 14 13 1 0
BITMAP
0040
7FE0
0420
0420
0420
0840
0844
FFFC
0840
0840
0840
0848
FFFC
ENDCHAR
STARTCHAR 4E12
ENCODING 19986
SWIDTH 1000 0
DWIDTH 16 0
BBX 13 13 2 0
BITMAP
0010
FFF0
0010
0110
4210
3C10
0610
0920
30A0
4020
83E0
0010
FFF8
ENDCHAR
STARTCHAR 4E14
ENCODING 19988
SWIDTH 1000 0
DWIDTH 16 0
BBX 14 13 1 0
BITMAP
2020
1FE0
1020
1020
1020
1FE0
1020
1020
1020
1FE0
1020
1028
FFFC
ENDCHAR
STARTCHAR 4E15
ENCODING 19989
SWIDTH 1000 0
DWIDTH 16 0
BBX 14 13 1 0
BITMAP
0008
FFFC
0100
0200
0300
0640
0A30
1208
220C
C200
0200
0200
FFFC
ENDCHAR
STARTCHAR 4E16
ENCODING 19990
SWIDTH 1000 0
DWIDTH 16 0
BBX 14 14 1 -1
BITMAP
3320
2220
2220
2224
FFFC
2220
2220
2220
2220
23E0
2220
2008
3FFC
2000
ENDCHAR
STARTCHAR 4E17
ENCODING 19991
SWIDTH 1000 0
DWIDTH 16 0
BBX 14 14 1 -1
BITMAP
0300
3230
2220
2220
2224
FFFC
2220
2220
2220
2220
2220
2220
3FE0
2020
ENDCHAR
STARTCHAR 4E18
ENCODING 19992
SWIDTH 1000 0
DWIDTH 16 0
BBX 14 13 1 0
BITMAP
0020
01D0
1E00
1000
1000
1008
1FF8
1040
1040
1040
1040
104C
FFFC
ENDCHAR
STARTCHAR 4E19
ENCODING 19993
SWIDTH 1000 0
DWIDTH 16 0
BBX 14 14 1 -1
BITMAP
0008
FFFC
0200
0210
7FF8
4208
4208
4388
4448
4828
5008
4008
4088
4070
ENDCHAR
STARTCHAR 4E1E
ENCODING 19998
SWIDTH 1000 0
DWIDTH 16 0
BBX 14 13 1 0
BITMAP
0020
3FE0
0050
0380
0908
FD10
09A0
1940
3130
410C
8F00
0008
FFFC
ENDCHAR
STARTCHAR 4E21
ENCODING 20001
SWIDTH 1000 0
DWIDTH 16 0
BBX 14 14 1 -1
BITMAP
000C
FFFC
0200
0208
7FF8
420C
4A68
4A48
4A48
4A48
4FC8
4808
4008
4078
ENDCHAR
STARTCHAR 4E26
ENCODING 20006
SWIDTH 1000 0
DWIDTH 16 0
BBX 14 13 1 0
BITMAP
1060
0840
0C40
0488
FFFC
0480
4498
4490
2490
34A0
14C0
0484
FFFC
ENDCHAR
STARTCHAR 4E28
ENCODING 20008
SWIDTH 1000 0
DWIDTH 16 0
BBX 2 13 7 -1
BITMAP
C0
80
80
80
80
80
80
80
80
80
80
80
80
ENDCHAR
STARTCHAR 4E29
ENCODING 20009
SWIDTH 1000 0
DWIDTH 16 0
BBX 8 14 3 -1
BITMAP
03
62
42
42
42
42
42
42
42
7E
C2
82
02
02
ENDCHAR
STARTCHAR 4E2A
ENCODING 20010
SWIDTH 1000 0
DWIDTH 16 0
BBX 14 14 1 -1
BITMAP
0300
0300
0500
0480
0860
1330
220C
4200
8200
0200
0200
0200
0200
0200
ENDCHAR
STARTCHAR 4E2B
ENCODING 20011
SWIDTH 1000 0
DWIDTH 16 0
BBX 8 14 4 -1
BITMAP
83
42
24
28
18
10
10
10
10
10
10
10
10
10
ENDCHAR
STARTCHAR 4E2C
ENCODING 20012
SWIDTH 1000 0
DWIDTH 16 0
BBX 7 14 3 -1
BITMAP
02
02
42
22
32
12
02
06
1A
E2
82
02
02
02
ENDCHAR
STARTCHAR 4E2D
ENCODING 20013
SWIDTH 1000 0
DWIDTH 16 0
BBX 12 14 2 -1
BITMAP
0600
0400
0400
8410
FFF0
8410
8410
8410
FFF0
8410
0400
0400
0400
0400
ENDCHAR
STARTCHAR 4E2E
ENCODING 20014
SWIDTH 1000 0
DWIDTH 16 0
BBX 14 14 1 -1
BITMAP
0020
7FF0
0010
0610
0490
7FD0
0410
0410
0450
FFF4
0414
040C
040C
0404
ENDCHAR
STARTCHAR 4E2F
ENCODING 20015
SWIDTH 1000 0
DWIDTH 16 0
BBX 14 14 1 -1
BITMAP
0300
0200
0270
0780
3A10
0260
0380
7E08
0238
03C4
7E00
8200
0200
0200
ENDCHAR
STARTCHAR 4E30
ENCODING 20016
SWIDTH 1000 0
DWIDTH 16 0
BBX 14 14 1 -1
BITMAP
0300
0200
0208
7FF8
0200
0210
3FF8
0200
0208
FFFC
0200
0200
0200
0200
ENDCHAR
STARTCHAR 4E31
ENCODING 20017
SWIDTH 1000 0
DWIDTH 16 0
BBX 13 14 2 -1
BITMAP
0100
0980
C918
8910
8910
8910
8910
8910
F9F0
8910
1100
1100
2100
C100
ENDCHAR
STARTCHAR 4E32
ENCODING 20018
SWIDTH 1000 0
DWIDTH 16 0
BBX 13 14 2 -1
BITMAP
0600
0420
7FF0
4420
4420
7FE0
0410
FFF0
8418
8410
FFF0
8410
0400
0400
ENDCHAR
STARTCHAR 4E36
ENCODING 20022
SWIDTH 1000 0
DWIDTH 16 0
BBX 6 5 5 4
BITMAP
C0
20
10
08
0C
ENDCHAR
STARTCHAR 4E38
ENCODING 20024
SWIDTH 1000 0
DWIDTH 16 0
BBX 14 15 1 -2
BITMAP
0600
0400
0400
0440
FFE0
0440
0440
4440
3C40
0E40
0B48
1948
1044
2044
C03C
ENDCHAR
STARTCHAR 4E39
ENCODING 20025
SWIDTH 1000 0
DWIDTH 16 0
BBX 14 14 1 -1
BITMAP
2020
1FF0
1010
1410
1310
1110
1014
FFFC
1010
2010
2010
2010
4110
80E0
ENDCHAR
STARTCHAR 4E3B
ENCODING 20027
SWIDTH 1000 0
DWIDTH 16 0
BBX 14 13 1 0
BITMAP
0800
0600
0200
0108
7FF8
0200
0200
0210
3FF0
0200
0200
0208
FFFC
ENDCHAR
STARTCHAR 4E3C
ENCODING 20028
SWIDTH 1000 0
DWIDTH 16 0
BBX 14 13 1 -1
BITMAP
0860
0840
0848
7FF8
0840
0E40
0940
0848
FFFC
1040
1040
2040
C040
ENDCHAR
STARTCHAR 4E3F
ENCODING 20031
SWIDTH 1000 0
DWIDTH 16 0
BBX 5 13 5 -1
BITMAP
18
10
10
10
10
10
10
10
10
20
20
40
80
ENDCHAR
STARTCHAR 4E40
ENCODING 20032
SWIDTH 1000 0
DWIDTH 16 0
BBX 11 12 3 0
BITMAP
8000
8000
8000
4000
4000
2000
1000
0800
0400
0300
01C0
0060
ENDCHAR
STARTCHAR 4E42
ENCODING 20034
SWIDTH 1000 0
DWIDTH 16 0
BBX 14 13 1 -1
BITMAP
2030
1020
1040
0840
08C0
0480
0300
0300
0380
04C0
1830
201C
C000
ENDCHAR
STARTCHAR 4E43
ENCODING 20035
SWIDTH 1000 0
DWIDTH 16 0
BBX 14 15 1 -2
BITMAP
0040
7FE0
0440
0440
0440
0448
0478
048C
0808
0808
1808
1008
2010
41F0
8000
ENDCHAR
STARTCHAR 4E45
ENCODING 20037
SWIDTH 1000 0
DWIDTH 16 0
BBX 13 15 2 -2
BITMAP
0800
0C00
1100
1F80
1100
2100
2100
4200
4300
8500
0C80
0840
1020
6018
8010
ENDCHAR
STARTCHAR 4E47
ENCODING 20039
SWIDTH 1000 0
DWIDTH 16 0
BBX 14 13 1 -1
BITMAP
0060
0380
1C00
6400
0408
041C
1FE0
E400
0400
0408
0408
040C
03F8
ENDCHAR
STARTCHAR 4E48
ENCODING 20040
SWIDTH 1000 0
DWIDTH 16 0
BBX 13 13 1 -1
BITMAP
0600
0400
0800
1000
2100
4200
8200
0480
0440
0820
0830
7FD8
4008
ENDCHAR
STARTCHAR 4E4B
ENCODING 20043
SWIDTH 1000 0
DWIDTH 16 0
BBX 14 12 1 0
BITMAP
0300
0200
0220
7FF0
0020
0040
0080
2100
2200
5C00
4C00
83FC
ENDCHAR
STARTCHAR 4E4D
ENCODING 20045
SWIDTH 1000 0
DWIDTH 16 0
BBX 14 14 1 -1
BITMAP
0C00
0800
1008
1FFC
3200
2210
43F8
8200
0210
03F8
0200
0200
0200
0200
ENDCHAR
STARTCHAR 4E4E
ENCODING 20046
SWIDTH 1000 0
DWIDTH 16 0
BBX 14 13 1 -1
BITMAP
00F0
7F00
4110
3120
1120
0940
0108
FFFC
0100
0100
0100
0100
1E00
ENDCHAR
STARTCHAR 4E4F
ENCODING 20047
SWIDTH 1000 0
DWIDTH 16 0
BBX 14 13 1 0
BITMAP
0070
0780
7B00
0200
0220
3FF0
0020
0040
0180
2200
3400
4800
87FC
ENDCHAR
STARTCHAR 4E51
ENCODING 20049
SWIDTH 1000 0
DWIDTH 16 0
BBX 14 14 1 -1
BITMAP
0030
01C0
3F00
4110
0B18
16A0
22C0
4240
8E20
1A30
3218
420C
8200
0200
ENDCHAR
STARTCHAR 4E55
ENCODING 20053
SWIDTH 1000 0
DWIDTH 16 0
BBX 14 14 1 -1
BITMAP
0010
43E0
7D80
4108
7FF8
4108
7FFC
4100
5FF8
5110
5110
5110
9170
8100
ENDCHAR
STARTCHAR 4E56
ENCODING 20054
SWIDTH 1000 0
DWIDTH 16 0
BBX 14 14 1 -1
BITMAP
0020
07D0
7A00
0204
FFFC
0200
0A68
FA48
0A74
0A44
7A44
8A7C
0200
0200
ENDCHAR
STARTCHAR 4E57
ENCODING 20055
SWIDTH 1000 0
DWIDTH 16 0
BBX 14 14 1 -1
BITMAP
03F0
7E00
0208
7FFC
1220
1224
FFFC
1220
1228
7FFC
0700
0AC0
323C
C200
ENDCHAR
STARTCHAR 4E58
ENCODING 20056
SWIDTH 1000 0
DWIDTH 16 0
BBX 14 14 1 -1
BITMAP
03F0
7E00
0208
FFFC
0200
0A70
FA58
0A64
FB7C
0680
0A40
1230
620C
8200
ENDCHAR
STARTCHAR 4E59
ENCODING 20057
SWIDTH 1000 0
DWIDTH 16 0
BBX 12 12 2 0
BITMAP
0080
FFC0
0180
0300
0400
0800
1000
2000
4010
8010
8010
7FF0
ENDCHAR
STARTCHAR 4E5A
ENCODING 20058
SWIDTH 1000 0
DWIDTH 16 0
BBX 10 12 4 0
BITMAP
8000
8000
8000
8000
8000
8000
8000
8000
8080
8080
8040
FFC0
ENDCHAR
STARTCHAR 4E5D
ENCODING 20061
SWIDTH 1000 0
DWIDTH 16 0
BBX 14 14 1 -1
BITMAP
0600
0400
0400
0440
7FE0
0440
0440
0440
0440
0848
0848
1044
2044
C07C
ENDCHAR
STARTCHAR 4E5E
ENCODING 20062
SWIDTH 1000 0
DWIDTH 16 0
BBX 13 14 1 -1
BITMAP
0800
1800
1018
1FF8
2000
6080
7FC0
8080
0300
0C00
1808
3008
2008
3FF8
ENDCHAR
STARTCHAR 4E5F
ENCODING 20063
SWIDTH 1000 0
DWIDTH 16 0
BBX 14 14 1 -1
BITMAP
0100
1100
1110
1138
13D0
3D10
D110
1110
1110
11F0
1108
1008
100C
1FFC
ENDCHAR
STARTCHAR 4E62
ENCODING 20066
SWIDTH 1000 0
DWIDTH 16 0
BBX 14 14 1 -1
BITMAP
10C0
1080
D680
9480
9480
9480
9480
9480
9480
9488
FC88
8484
8084
00FC
ENDCHAR
STARTCHAR 4E69
ENCODING 20073
SWIDTH 1000 0
DWIDTH 16 0
BBX 13 14 2 -1
BITMAP
2000
2180
2100
2500
3D00
2100
2100
FD00
8900
8908
8908
8908
F908
89F8
ENDCHAR
STARTCHAR 4E71
ENCODING 20081
SWIDTH 1000 0
DWIDTH 16 0
BBX 14 14 1 -1
BITMAP
0400
1EC0
F080
1080
1280
FF80
1080
1080
1480
7E80
4484
4484
7C84
447C
ENDCHAR
STARTCHAR 4E73
ENCODING 20083
SWIDTH 1000 0
DWIDTH 16 0
BBX 14 14 1 -1
BITMAP
0200
1F40
E240
9340
5440
4A40
FF40
0640
0840
0F40
F044
1044
1044
707C
ENDCHAR
STARTCHAR 4E7E
ENCODING 20094
SWIDTH 1000 0
DWIDTH 16 0
BBX 14 14 1 -1
BITMAP
1040
1480
FE84
10FC
7D00
8500
7FF8
8410
7C20
1448
FE84
1104
1104
11FC
ENDCHAR
STARTCHAR 4E80
ENCODING 20096
SWIDTH 1000 0
DWIDTH 16 0
BBX 14 14 1 -1
BITMAP
1900
1F80
2120
7FF0
BFF0
2210
3FF0
7FF8
4210
7FF0
7FF4
4214
0204
03FC
ENDCHAR
STARTCHAR 4E82
ENCODING 20098
SWIDTH 1000 0
DWIDTH 16 0
BBX 14 15 1 -1
BITMAP
0200
5C60
7240
4D40
FEC0
A440
1A40
7F40
9940
A540
BD44
A944
9944
9544
A33C
ENDCHAR
STARTCHAR 4E85
ENCODING 20101
SWIDTH 1000 0
DWIDTH 16 0
BBX 4 14 5 -1
BITMAP
20
10
10
10
10
10
10
10
10
10
10
10
F0
20
ENDCHAR
STARTCHAR 4E86
ENCODING 20102
SWIDTH 1000 0
DWIDTH 16 0
BBX 11 14 3 -2
BITMAP
0040
FFC0
00E0
0100
0200
0400
0400
0400
0400
0400
0400
0400
4400
3800
ENDCHAR
STARTCHAR 4E88
ENCODING 20104
SWIDTH 1000 0
DWIDTH 16 0
BBX 14 14 1 -1
BITMAP
0020
3FF0
0060
0880
0700
0108
FFFC
0108
0110
0120
0140
0100
0100
1E00
ENDCHAR
STARTCHAR 4E89
ENCODING 20105
SWIDTH 1000 0
DWIDTH 16 0
BBX 14 15 1 -1
BITMAP
0800
0C80
0FC0
1080
2120
7FF0
8218
FFFC
0210
0210
3FF0
0200
0200
0200
1E00
ENDCHAR
STARTCHAR 4E8A
ENCODING 20106
SWIDTH 1000 0
DWIDTH 16 0
BBX 14 14 1 -1
BITMAP
0300
0208
FFFC
2220
1230
0A60
7FF0
0218
FFFC
7FF0
0210
0200
0200
0E00
ENDCHAR
STARTCHAR 4E8B
ENCODING 20107
SWIDTH 1000 0
DWIDTH 16 0
BBX 14 14 1 -1
BITMAP
0300
0208
FFFC
3FF0
2210
3FF0
0210
7FF0
0214
FFFC
7FF0
0210
0200
0E00
ENDCHAR
STARTCHAR 4E8C
ENCODING 20108
SWIDTH 1000 0
DWIDTH 16 0
BBX 14 10 1 1
BITMAP
0030
7FF0
0000
0000
0000
0000
0000
0000
0008
FFFC
ENDCHAR
STARTCHAR 4E8D
ENCODING 20109
SWIDTH 1000 0
DWIDTH 16 0
BBX 14 13 1 -1
BITMAP
0010
3FF0
0000
0008
FFFC
0100
0100
0100
0100
0100
0100
0100
1E00
ENDCHAR
STARTCHAR 4E8E
ENCODING 20110
SWIDTH 1000 0
DWIDTH 16 0
BBX 14 14 1 -1
BITMAP
0010
7FF8
0100
0100
0100
0108
FFFC
0100
0100
0100
0100
0100
0100
1E00
ENDCHAR
STARTCHAR 4E91
ENCODING 20113
SWIDTH 1000 0
DWIDTH 16 0
BBX 14 13 1 -1
BITMAP
0010
3FF0
0000
0000
0008
FFFC
0600
0400
0440
0820
0810
17E8
6808
ENDCHAR
STARTCHAR 4E92
ENCODING 20114
SWIDTH 1000 0
DWIDTH 16 0
BBX 14 13 1 0
BITMAP
0008
FFFC
0800
0800
0820
0FE0
0820
1020
1040
1FC0
1040
0048
FFFC
ENDCHAR
STARTCHAR 4E94
ENCODING 20116
SWIDTH 1000 0
DWIDTH 16 0
BBX 14 12 1 0
BITMAP
0008
7FF8
0200
0200
0440
7FE0
0420
0420
0420
0820
0824
FFFC
ENDCHAR
STARTCHAR 4E95
ENCODING 20117
SWIDTH 1000 0
DWIDTH 16 0
BBX 14 14 1 -1
BITMAP
0C60
0840
0840
0848
7FF8
0840
0840
0840
0848
FFFC
0840
1040
3040
C040
ENDCHAR
STARTCHAR 4E98
ENCODING 20120
SWIDTH 1000 0
DWIDTH 16 0
BBX 14 13 1 0
BITMAP
0008
7FF8
0000
2020
1FF0
1020
1020
1FE0
1020
1FE0
1020
1000
FFFC
ENDCHAR
STARTCHAR 4E99
ENCODING 20121
SWIDTH 1000 0
DWIDTH 16 0
BBX 14 13 1 0
BITMAP
0008
FFFC
0800
0840
0FE0
0820
1E20
1140
1040
1640
0140
0044
FFFC
ENDCHAR
STARTCHAR 4E9B
ENCODING 20123
SWIDTH 1000 0
DWIDTH 16 0
BBX 14 13 1 -1
BITMAP
0CC0
6888
4A90
4FA0
48C0
4888
7FFC
8020
3FF0
0000
0000
0008
FFFC
ENDCHAR
STARTCHAR 4E9C
ENCODING 20124
SWIDTH 1000 0
DWIDTH 16 0
BBX 14 13 1 0
BITMAP
0008
FFFC
0480
0480
8490
7FF8
4490
4490
4490
7FF0
0480
0484
FFFC
ENDCHAR
STARTCHAR 4E9D
ENCODING 20125
SWIDTH 1000 0
DWIDTH 16 0
BBX 14 13 1 0
BITMAP
0200
0480
0860
3F90
1040
28A0
4498
BD68
0020
3FF0
0000
0008
FFFC
ENDCHAR
STARTCHAR 4E9E
ENCODING 20126
SWIDTH 1000 0
DWIDTH 16 0
BBX 14 13 1 0
BITMAP
0008
FFFC
0480
0480
0490
7CF8
4008
4008
4888
7CF8
0480
0488
FFFC
ENDCHAR
STARTCHAR 4E9F
ENCODING 20127
SWIDTH 1000 0
DWIDTH 16 0
BBX 14 13 1 0
BITMAP
0008
FFFC
0800
0F08
01F8
7988
4950
4950
4920
7A30
12CC
0D08
FFFC
ENDCHAR
STARTCHAR 4EA0
ENCODING 20128
SWIDTH 1000 0
DWIDTH 16 0
BBX 14 5 1 6
BITMAP
0300
0200
0200
0208
FFFC
ENDCHAR
STARTCHAR 4EA1
ENCODING 20129
SWIDTH 1000 0
DWIDTH 16 0
BBX 14 13 1 0
BITMAP
0300
0200
0208
FFFC
1000
1000
1000
1000
1000
1000
1000
1000
1FF8
ENDCHAR
STARTCHAR 4EA2
ENCODING 20130
SWIDTH 1000 0
DWIDTH 16 0
BBX 14 15 1 -2
BITMAP
0300
0200
0208
FFFC
0000
1040
0FC0
0840
0840
0840
0840
1848
1048
2044
C07C
ENDCHAR
STARTCHAR 4EA4
ENCODING 20132
SWIDTH 1000 0
DWIDTH 16 0
BBX 14 15 1 -1
BITMAP
0300
0200
0208
FFFC
0000
08C0
1020
2090
48C8
8480
0300
0300
0680
0870
F018
ENDCHAR
STARTCHAR 4EA5
ENCODING 20133
SWIDTH 1000 0
DWIDTH 16 0
BBX 14 15 1 -2
BITMAP
0300
0200
0208
FFFC
0200
0440
28E0
1880
0D30
0620
08C0
31C0
4220
0C10
7010
ENDCHAR
STARTCHAR 4EA6
ENCODING 20134
SWIDTH 1000 0
DWIDTH 16 0
BBX 14 14 1 -1
BITMAP
0100
0200
0208
FFFC
0480
0480
34A0
2490
2488
4488
888C
0880
1080
6780
ENDCHAR
STARTCHAR 4EA8
ENCODING 20136
SWIDTH 1000 0
DWIDTH 16 0
BBX 14 14 1 -1
BITMAP
0300
0204
FFFC
0020
3FF0
2010
3FF0
0020
7FF0
0060
0180
0100
0100
0F00
ENDCHAR
STARTCHAR 4EAB
ENCODING 20139
SWIDTH 1000 0
DWIDTH 16 0
BBX 14 14 1 -1
BITMAP
0300
0208
FFFC
3FF0
2020
3FE0
0020
3FF0
0280
FFFC
0100
0100
0100
0E00
ENDCHAR
STARTCHAR 4EAC
ENCODING 20140
SWIDTH 1000 0
DWIDTH 16 0
BBX 14 14 1 -1
BITMAP
0300
0208
FFFC
0000
3FF0
2010
2010
3FF0
2110
1140
1930
2118
4108
8E00
ENDCHAR
STARTCHAR 4EAD
ENCODING 20141
SWIDTH 1000 0
DWIDTH 16 0
BBX 14 14 1 -1
BITMAP
0300
0208
7FFC
1FE0
1030
1020
1FC8
7FFC
4028
BFF8
0100
0100
0100
0E00
ENDCHAR
STARTCHAR 4EAE
ENCODING 20142
SWIDTH 1000 0
DWIDTH 16 0
BBX 14 15 1 -2
BITMAP
0300
0208
FFFC
1FE0
1030
1FE0
4008
7FFC
4008
84D0
0480
0888
0888
30FC
C000
ENDCHAR
STARTCHAR 4EB0
ENCODING 20144
SWIDTH 1000 0
DWIDTH 16 0
BBX 14 14 1 -1
BITMAP
0300
0208
FFFC
0000
3FF0
2010
3FF0
2010
3FF0
1940
1130
2118
4108
8E00
ENDCHAR
STARTCHAR 4EB3
ENCODING 20147
SWIDTH 1000 0
DWIDTH 16 0
BBX 14 14 1 -1
BITMAP
0300
0208
7FFC
1FE0
1030
1FE0
7FFC
4048
87B0
3A08
03F4
FE08
0208
03F8
ENDCHAR
STARTCHAR 4EB6
ENCODING 20150
SWIDTH 1000 0
DWIDTH 16 0
BBX 14 15 1 -1
BITMAP
0300
0208
FFFC
0010
3FF8
2FD0
2850
2FD0
3FF0
1020
1FE0
1020
1FE0
1028
FFFC
ENDCHAR
STARTCHAR 4EB9
ENCODING 20153
SWIDTH 1000 0
DWIDTH 16 0
BBX 14 14 1 -1
BITMAP
0300
0208
FFFC
57F0
7F98
37B0
37B0
C498
FFFC
9FE8
1FE0
1FE0
1024
FFFC
ENDCHAR
STARTCHAR 4EBA
ENCODING 20154
SWIDTH 1000 0
DWIDTH 16 0
BBX 14 14 1 -1
BITMAP
0300
0200
0200
0200
0300
0300
0300
0480
0480
0C40
0820
1010
600C
8008
ENDCHAR
STARTCHAR 4EBB
ENCODING 20155
SWIDTH 1000 0
DWIDTH 16 0
BBX 8 14 3 -1
BITMAP
01
02
04
04
08
1C
28
48
88
08
08
08
08
08
ENDCHAR
STARTCHAR 4EBC
ENCODING 20156
SWIDTH 1000 0
DWIDTH 16 0
BBX 14 13 1 0
BITMAP
0300
0300
0500
0480
0840
1020
2018
400C
8000
0000
0000
0010
7FF8
ENDCHAR
STARTCHAR 4EC0
ENCODING 20160
SWIDTH 1000 0
DWIDTH 16 0
BBX 14 14 1 -1
BITMAP
0800
1040
1040
1040
2040
3044
6FFC
A040
A040
A040
2040
2040
2040
2040
ENDCHAR
STARTCHAR 4EC1
ENCODING 20161
SWIDTH 1000 0
DWIDTH 16 0
BBX 14 14 1 -1
BITMAP
1800
1000
1008
27F8
2000
7000
6000
A000
A000
2000
2000
200C
2FFC
2000
ENDCHAR
STARTCHAR 4EC2
ENCODING 20162
SWIDTH 1000 0
DWIDTH 16 0
BBX 14 14 1 -1
BITMAP
1880
1080
3080
2088
2FFC
7088
6088
A108
A108
2108
2208
2208
2410
28F0
ENDCHAR
STARTCHAR 4EC3
ENCODING 20163
SWIDTH 1000 0
DWIDTH 16 0
BBX 14 14 1 -1
BITMAP
1800
1004
17FC
2040
2040
3040
6040
A040
A040
2040
2040
2040
2040
23C0
ENDCHAR
STARTCHAR 4EC4
ENCODING 20164
SWIDTH 1000 0
DWIDTH 16 0
BBX 14 14 1 -1
BITMAP
8008
7FFC
4000
4180
4100
4100
4100
4100
4180
4280
4240
8420
8818
B00C
ENDCHAR
STARTCHAR 4EC6
ENCODING 20166
SWIDTH 1000 0
DWIDTH 16 0
BBX 14 14 1 -1
BITMAP
0CC0
0880
0880
1080
1080
3880
50F0
5088
9084
1080
1080
1080
1080
1080
ENDCHAR
STARTCHAR 4EC7
ENCODING 20167
SWIDTH 1000 0
DWIDTH 16 0
BBX 14 15 1 -1
BITMAP
1000
1980
1100
1100
2120
2FF0
7120
6120
A120
A120
2220
2224
2424
2424
383C
ENDCHAR
STARTCHAR 4EC8
ENCODING 20168
SWIDTH 1000 0
DWIDTH 16 0
BBX 14 14 1 -1
BITMAP
1000
1820
11E0
1020
2020
3120
6220
6220
A220
2210
2410
2408
2804
3004
ENDCHAR
STARTCHAR 4ECA
ENCODING 20170
SWIDTH 1000 0
DWIDTH 16 0
BBX 14 15 1 -2
BITMAP
0300
0300
0480
0C40
0820
3090
4FCC
8000
3FE0
0020
0040
0040
0080
0080
0100
ENDCHAR
STARTCHAR 4ECB
ENCODING 20171
SWIDTH 1000 0
DWIDTH 16 0
BBX 14 14 1 -1
BITMAP
0300
0300
0480
0840
1020
2018
4C6C
8840
0840
0840
0840
1040
1040
6040
ENDCHAR
STARTCHAR 4ECD
ENCODING 20173
SWIDTH 1000 0
DWIDTH 16 0
BBX 15 15 0 -1
BITMAP
1000
0810
17F8
1090
1090
2090
3114
311E
5114
9104
1104
1204
1204
147C
1810
ENDCHAR
STARTCHAR 4ECE
ENCODING 20174
SWIDTH 1000 0
DWIDTH 16 0
BBX 14 14 1 -1
BITMAP
1040
1860
1040
1040
1040
1040
1040
1860
24A0
2490
4290
4108
820C
0408
ENDCHAR
STARTCHAR 4ECF
ENCODING 20175
SWIDTH 1000 0
DWIDTH 16 0
BBX 14 14 1 -1
BITMAP
1800
10C0
1080
2080
3080
2080
6100
A120
A110
2218
2208
25FC
2E04
2000
ENDCHAR
STARTCHAR 4ED0
ENCODING 20176
SWIDTH 1000 0
DWIDTH 16 0
BBX 14 15 1 -1
BITMAP
0200
0300
0700
04C0
0860
1318
220C
C200
0218
7FF8
0200
0200
0200
0200
0200
ENDCHAR
STARTCHAR 4ED4
ENCODING 20180
SWIDTH 1000 0
DWIDTH 16 0
BBX 15 14 0 -1
BITMAP
0800
0C08
0BFC
1008
1030
3040
3042
57FE
9040
1040
1040
1040
1040
13C0
ENDCHAR
STARTCHAR 4ED5
ENCODING 20181
SWIDTH 1000 0
DWIDTH 16 0
BBX 14 15 1 -1
BITMAP
1000
18C0
1080
1080
2080
3084
6FFC
6080
A080
A080
2080
2080
2088
2FFC
2000
ENDCHAR
STARTCHAR 4ED6
ENCODING 20182
SWIDTH 1000 0
DWIDTH 16 0
BBX 14 14 1 -1
BITMAP
1840
1640
2448
2458
24E8
7748
6C48
A448
A448
2478
2444
2404
23FC
2000
ENDCHAR
STARTCHAR 4ED7
ENCODING 20183
SWIDTH 1000 0
DWIDTH 16 0
BBX 15 14 0 -1
BITMAP
0C20
0820
1820
1022
17FE
3020
3220
5120
90C0
1040
1060
1090
110E
1602
ENDCHAR
STARTCHAR 4ED8
ENCODING 20184
SWIDTH 1000 0
DWIDTH 16 0
BBX 14 14 1 -1
BITMAP
1830
1020
1020
2024
2FFC
3020
6820
A620
A320
2120
2020
2020
2020
21E0
ENDCHAR
STARTCHAR 4ED9
ENCODING 20185
SWIDTH 1000 0
DWIDTH 16 0
BBX 15 14 0 -1
BITMAP
0C20
0820
1020
1020
1326
3224
5224
5224
9224
1224
1224
1224
13FC
1204
ENDCHAR
STARTCHAR 4EDA
ENCODING 20186
SWIDTH 1000 0
DWIDTH 16 0
BBX 14 15 1 -1
BITMAP
0200
0300
0700
0480
0860
1310
220C
C204
3218
2210
2210
2210
2210
3FF0
2010
ENDCHAR
STARTCHAR 4EDD
ENCODING 20189
SWIDTH 1000 0
DWIDTH 16 0
BBX 14 13 1 0
BITMAP
0300
0300
0480
0C40
0820
1018
602C
BFF0
0200
0200
0200
0208
FFF8
ENDCHAR
STARTCHAR 4EDE
ENCODING 20190
SWIDTH 1000 0
DWIDTH 16 0
BBX 14 14 1 -1
BITMAP
1800
1008
17FC
3088
2088
3488
6488
A488
A488
2908
2108
2208
24F8
2830
ENDCHAR
STARTCHAR 4EDF
ENCODING 20191
SWIDTH 1000 0
DWIDTH 16 0
BBX 14 14 1 -1
BITMAP
1000
1838
11C0
2E80
2080
3080
6084
AFFC
A080
A080
2080
2080
2080
2080
ENDCHAR
STARTCHAR 4EE1
ENCODING 20193
SWIDTH 1000 0
DWIDTH 16 0
BBX 14 14 1 -1
BITMAP
1980
1100
1208
23FC
2600
3420
6BE0
A070
A040
2080
2108
2208
220C
23FC
ENDCHAR
STARTCHAR 4EE3
ENCODING 20195
SWIDTH 1000 0
DWIDTH 16 0
BBX 14 14 1 -1
BITMAP
1980
1160
1110
2100
310C
67F0
6880
A080
A080
204C
2068
2038
201C
200C
ENDCHAR
STARTCHAR 4EE4
ENCODING 20196
SWIDTH 1000 0
DWIDTH 16 0
BBX 14 14 1 -1
BITMAP
0300
0700
0480
0840
10B0
2FDC
4004
8020
3FF0
0210
0210
0210
02E0
0200
ENDCHAR
STARTCHAR 4EE5
ENCODING 20197
SWIDTH 1000 0
DWIDTH 16 0
BBX 14 14 1 -1
BITMAP
0020
3010
2410
2220
2120
2120
2020
2020
2120
2650
3848
C08C
8304
0C00
ENDCHAR
STARTCHAR 4EEB
ENCODING 20203
SWIDTH 1000 0
DWIDTH 16 0
BBX 14 14 1 -1
BITMAP
1880
10C0
1080
2180
3100
2260
6440
A040
A080
2120
2110
2218
27E4
2004
ENDCHAR
STARTCHAR 4EED
ENCODING 20205
SWIDTH 1000 0
DWIDTH 16 0
BBX 15 15 1 -1
BITMAP
1000
1808
17F8
2088
2088
2488
7288
6188
A188
A168
2110
221C
2216
2510
28E0
ENDCHAR
STARTCHAR 4EEE
ENCODING 20206
SWIDTH 1000 0
DWIDTH 16 0
BBX 14 15 1 -1
BITMAP
1000
1C04
13FC
2200
2200
2208
73F8
6308
A290
A290
2460
2460
2470
2888
2B04
ENDCHAR
STARTCHAR 4EF0
ENCODING 20208
SWIDTH 1000 0
DWIDTH 16 0
BBX 15 14 0 -1
BITMAP
1900
1184
133E
1224
2224
3224
2224
6224
A224
22A4
2324
2C2C
2020
2020
ENDCHAR
STARTCHAR 4EF1
ENCODING 20209
SWIDTH 1000 0
DWIDTH 16 0
BBX 15 14 0 -1
BITMAP
0840
0C60
08A0
1090
1108
3216
35F2
5000
53F8
900C
1010
1010
1020
1060
ENDCHAR
STARTCHAR 4EF2
ENCODING 20210
SWIDTH 1000 0
DWIDTH 16 0
BBX 14 14 1 -1
BITMAP
1040
1840
3040
2848
27FC
6444
6444
A444
A7FC
2444
2040
2040
2040
2040
ENDCHAR
STARTCHAR 4EF5
ENCODING 20213
SWIDTH 1000 0
DWIDTH 16 0
BBX 14 14 1 -1
BITMAP
1B00
1200
2208
23F8
2440
6440
6840
A044
AFFC
A040
2040
2040
2040
2040
ENDCHAR
STARTCHAR 4EF6
ENCODING 20214
SWIDTH 1000 0
DWIDTH 16 0
BBX 15 14 0 -1
BITMAP
0C60
0940
1940
1244
13FE
3240
3440
5844
97FE
1040
1040
1040
1040
1040
ENDCHAR
STARTCHAR 4EF7
ENCODING 20215
SWIDTH 1000 0
DWIDTH 16 0
BBX 14 14 1 -1
BITMAP
18C0
10C0
2120
2230
2218
640C
7B30
A220
A220
2220
2220
2220
2420
2820
ENDCHAR
STARTCHAR 4EFB
ENCODING 20219
SWIDTH 1000 0
DWIDTH 16 0
BBX 15 14 0 -1
BITMAP
0C08
083C
11C0
1640
1040
3040
3042
57FE
9040
1040
1040
1044
17FE
1000
ENDCHAR
STARTCHAR 4EFC
ENCODING 20220
SWIDTH 1000 0
DWIDTH 16 0
BBX 14 14 1 -1
BITMAP
1800
1008
17FC
2040
2040
3040
6048
A7F8
A040
2040
2040
2048
2FFC
2000
ENDCHAR
STARTCHAR 4EFD
ENCODING 20221
SWIDTH 1000 0
DWIDTH 16 0
BBX 16 14 0 -1
BITMAP
0C10
08F0
0810
1190
1108
320C
3216
57FB
5888
9088
1088
1108
1308
14F0
ENDCHAR
STARTCHAR 4EFF
ENCODING 20223
SWIDTH 1000 0
DWIDTH 16 0
BBX 14 14 1 -1
BITMAP
18C0
1080
1084
2FFC
2100
3110
61F8
A108
A108
2108
2208
2210
2510
28E0
ENDCHAR
STARTCHAR 4F00
ENCODING 20224
SWIDTH 1000 0
DWIDTH 16 0
BBX 14 14 1 -1
BITMAP
1820
11F0
1020
1120
2210
3218
64CC
A884
B080
2120
2110
2208
27F8
2404
ENDCHAR
STARTCHAR 4F01
ENCODING 20225
SWIDTH 1000 0
DWIDTH 16 0
BBX 14 13 1 0
BITMAP
0300
0700
0480
0860
1130
210C
C100
1910
11F0
1100
1100
1108
FFFC
ENDCHAR
STARTCHAR 4F03
ENCODING 20227
SWIDTH 1000 0
DWIDTH 16 0
BBX 14 14 1 -1
BITMAP
1810
17F8
1010
2320
20C0
3068
6FFC
A048
A048
2050
2040
2040
2040
2380
ENDCHAR
STARTCHAR 4F09
ENCODING 20233
SWIDTH 1000 0
DWIDTH 16 0
BBX 15 14 0 -1
BITMAP
0860
0C40
1042
17FE
1000
39F8
3110
5110
9110
1110
1112
1112
1212
1C1E
ENDCHAR
STARTCHAR 4F0A
ENCODING 20234
SWIDTH 1000 0
DWIDTH 16 0
BBX 15 15 1 -1
BITMAP
2000
1010
27F8
2090
2090
2094
6FFE
6090
A090
AFF0
2110
2100
2100
2200
2C00
ENDCHAR
STARTCHAR 4F0B
ENCODING 20235
SWIDTH 1000 0
DWIDTH 16 0
BBX 15 14 1 -1
BITMAP
1020
3FF0
2220
2220
2220
6228
63F8
630C
A290
A250
2420
2450
288C
3706
ENDCHAR
STARTCHAR 4F0D
ENCODING 20237
SWIDTH 1000 0
DWIDTH 16 0
BBX 14 14 1 -1
BITMAP
1000
1008
2FFC
2100
2100
6120
AFF0
A110
A110
2110
2210
2214
3FFC
2000
ENDCHAR
STARTCHAR 4F0E
ENCODING 20238
SWIDTH 1000 0
DWIDTH 16 0
BBX 14 14 1 -1
BITMAP
1840
1080
1084
2FFC
2080
7090
6FF8
A210
A210
2120
20C0
20E0
2318
2C04
ENDCHAR
STARTCHAR 4F0F
ENCODING 20239
SWIDTH 1000 0
DWIDTH 16 0
BBX 14 14 1 -1
BITMAP
18C0
10A0
1090
2090
2088
3FFC
6080
A0C0
A140
2120
2220
2210
240C
2804
ENDCHAR
STARTCHAR 4F10
ENCODING 20240
SWIDTH 1000 0
DWIDTH 16 0
BBX 14 14 1 -1
BITMAP
1980
1160
1110
2108
21F4
7F10
6118
A0B0
A0A0
20C4
20C4
2124
261C
380C
ENDCHAR
STARTCHAR 4F11
ENCODING 20241
SWIDTH 1000 0
DWIDTH 16 0
BBX 14 14 1 -1
BITMAP
18C0
1080
1080
2084
2FFC
30C0
61C0
A1A0
A290
2298
248C
2884
2080
2080
ENDCHAR
STARTCHAR 4F16
ENCODING 20246
SWIDTH 1000 0
DWIDTH 16 0
BBX 15 14 0 -1
BITMAP
0CC0
0880
1882
17FE
1080
3088
30FC
5188
9148
1150
1230
1278
148C
1B02
ENDCHAR
STARTCHAR 4F1A
ENCODING 20250
SWIDTH 1000 0
DWIDTH 16 0
BBX 14 15 1 -1
BITMAP
0300
0300
0480
04C0
0860
1058
3FEC
C008
0008
7FF8
0400
0440
0820
11F8
7E08
ENDCHAR
STARTCHAR 4F1C
ENCODING 20252
SWIDTH 1000 0
DWIDTH 16 0
BBX 14 15 1 -1
BITMAP
1100
1980
1120
3FF0
2120
2128
7224
66FC
A880
A084
2FFC
2080
2080
2080
2080
ENDCHAR
ENDFONT
